M48
; DRILL file KiCad 10.0.2 date 2026-05-12T18:23:40
; FORMAT={-:-/ absolute / metric / decimal}
; #@! TF.CreationDate,2026-05-12T18:23:40+02:00
; #@! TF.GenerationSoftware,Kicad,Pcbnew,10.0.2
; #@! TF.FileFunction,Plated,1,2,PTH
FMAT,2
METRIC
; #@! TA.AperFunction,Plated,PTH,ViaDrill
T1C0.400
%
G90
G05
T1
X24.37Y-48.66
X25.4Y-48.65
X25.65Y-43.81
X26.432Y-48.657
X28.921Y-48.679
X31.75Y-65.405
X31.75Y-82.55
X31.75Y-99.42
X41.275Y-38.735
X49.53Y-52.705
X49.53Y-69.85
X49.53Y-86.995
X50.99Y-44.69
X60.57Y-67.08
X66.04Y-85.09
X67.31Y-50.255
X67.31Y-85.09
X67.945Y-45.72
X67.945Y-62.865
X67.945Y-80.01
X68.58Y-49.53
X68.58Y-85.09
X69.85Y-85.725
X78.09Y-74.99
X85.725Y-43.18
X85.725Y-53.975
X85.725Y-71.12
X86.36Y-88.265
X86.384Y-43.932
X95.56Y-86.1
X96.52Y-104.14
X103.505Y-55.88
X103.505Y-73.025
X104.14Y-89.26
X114.3Y-51.435
X116.205Y-104.14
X116.84Y-51.435
X116.84Y-57.785
X116.84Y-73.025
X116.84Y-80.645
X116.84Y-88.265
X116.854Y-95.885
X116.877Y-65.442
X119.38Y-51.435
X119.38Y-57.785
X119.38Y-65.405
X119.38Y-73.025
X119.38Y-80.645
X119.38Y-88.265
X119.392Y-95.885
X121.92Y-51.435
X121.92Y-57.785
X121.92Y-65.405
X121.92Y-73.025
X121.92Y-80.645
X121.92Y-88.265
X121.932Y-95.885
X133.985Y-109.22
X163.195Y-109.855
X176.53Y-51.435
X176.53Y-57.785
X176.53Y-65.405
X176.53Y-73.025
X176.53Y-80.645
X176.53Y-88.265
X176.53Y-95.885
X179.07Y-51.435
X179.07Y-57.785
X179.07Y-65.405
X179.07Y-73.025
X179.07Y-80.645
X179.07Y-88.265
X179.07Y-95.885
X181.61Y-51.435
X181.61Y-57.785
X181.61Y-65.405
X181.61Y-73.025
X181.61Y-80.645
X181.61Y-88.265
X181.61Y-95.885
X181.61Y-104.14
X184.15Y-51.435
X193.675Y-90.17
X194.31Y-56.515
X194.31Y-73.025
X201.295Y-104.14
X208.93Y-74.9
X210.82Y-42.545
X211.455Y-88.265
X211.572Y-41.82
X212.09Y-53.975
X212.09Y-71.12
X213.115Y-96.52
X218.4Y-96.51
X228.02Y-71.78
X229.87Y-80.01
X230.505Y-45.72
X230.505Y-62.865
X231.775Y-85.725
X232.41Y-85.09
X233.68Y-85.09
X234.95Y-49.53
X234.95Y-85.09
X235.708Y-50.255
X235.93Y-67.01
X247.578Y-44.36
X247.65Y-86.995
X248.285Y-45.085
X248.285Y-52.705
X248.285Y-69.85
X258.445Y-41.91
X265.43Y-99.695
X266.7Y-66.04
X266.7Y-83.185
X266.737Y-36.157
X267.97Y-43.18
X267.97Y-46.355
X268.455Y-42.305
X269.29Y-36.17
X271.805Y-36.155
X272.7Y-41.54
X274.34Y-36.16
M30
