%TF.GenerationSoftware,KiCad,Pcbnew,10.0.2*%
%TF.CreationDate,2026-05-12T18:23:40+02:00*%
%TF.ProjectId,mnhttn,6d6e6874-746e-42e6-9b69-6361645f7063,rev?*%
%TF.SameCoordinates,Original*%
%TF.FileFunction,Drillmap*%
%TF.FilePolarity,Positive*%
%FSLAX45Y45*%
G04 Gerber Fmt 4.5, Leading zero omitted, Abs format (unit mm)*
G04 Created by KiCad (PCBNEW 10.0.2) date 2026-05-12 18:23:40*
%MOMM*%
%LPD*%
G01*
G04 APERTURE LIST*
%ADD10C,0.100000*%
%ADD11C,0.635000*%
%ADD12C,0.200000*%
G04 APERTURE END LIST*
D10*
X2032000Y-3445684D02*
X2032000Y-10147300D01*
X2032000Y-3445684D02*
G75*
G02*
X2235200Y-3242484I203193J7D01*
G01*
X2235200Y-10350500D02*
G75*
G02*
X2032000Y-10147300I0J203200D01*
G01*
X2235200Y-10350500D02*
X6597507Y-10350500D01*
X4114800Y-9055100D02*
X7391400Y-9055100D01*
X7391400Y-10121900D01*
X4114800Y-10121900D01*
X4114800Y-9055100D01*
X6597507Y-10350500D02*
G75*
G02*
X7613939Y-11060861I0J-1082370D01*
G01*
X7613939Y-11060861D02*
X7620002Y-11075374D01*
X7683500Y-3238500D02*
X2235200Y-3242484D01*
X7994507Y-11430000D02*
G75*
G02*
X7620002Y-11075373I105883J486880D01*
G01*
X7994507Y-11430000D02*
X13893800Y-12153900D01*
X11303000Y-4229100D02*
X7683500Y-3238500D01*
X12346940Y-5011420D02*
X11303000Y-4229100D01*
X12346940Y-5011420D02*
G75*
G02*
X12447096Y-5183044I-96960J-171620D01*
G01*
X12446000Y-6921500D02*
X12447096Y-5183044D01*
X12446000Y-9461500D02*
X12446390Y-7937500D01*
X12446390Y-7937500D02*
G75*
G02*
X12573000Y-7810890I126610J0D01*
G01*
D11*
X12483197Y-7081520D02*
X12483197Y-7081520D01*
X12483197Y-7081520D01*
X12483197Y-7081520D01*
X12483197Y-7081520D01*
X12483197Y-7081520D01*
X12483197Y-7081520D01*
X12483197Y-7081520D01*
X12483197Y-7081520D01*
X12483197Y-7081520D01*
X12483197Y-7081520D01*
X12483197Y-7081520D01*
X12483197Y-7081520D01*
X12483197Y-7081520D01*
X12483197Y-7081520D01*
X12483197Y-7081520D01*
X12483197Y-7081520D01*
X12483197Y-7081520D01*
X12483197Y-7081520D01*
X12483197Y-7081520D01*
X12483197Y-7081520D01*
X12483197Y-7081520D01*
X12483197Y-7081520D01*
X12483197Y-7081520D01*
X12483197Y-7081520D01*
X12483197Y-7081520D01*
X12483197Y-7081520D01*
X12483197Y-7081520D01*
X12483197Y-7081520D01*
X12483197Y-7081520D01*
X12483197Y-7081520D01*
X12483197Y-7081520D01*
X12483197Y-7081520D01*
X12483197Y-7081520D01*
X12483197Y-7081520D01*
X12483197Y-7081520D01*
X12483197Y-7081520D01*
X12483197Y-7081520D02*
X12483197Y-7081520D01*
X12483197Y-7081520D01*
X12483197Y-7081520D01*
X12483197Y-7081520D01*
X12483197Y-7081520D01*
X12483197Y-7081520D01*
X12483197Y-7081520D01*
X12483197Y-7081520D01*
X12483197Y-7081520D01*
X12483197Y-7081520D01*
X12483197Y-7081520D01*
X12483197Y-7081520D01*
X12483197Y-7081520D01*
X12483197Y-7081520D01*
X12483197Y-7081520D01*
X12483197Y-7081520D01*
X12483197Y-7081520D01*
X12483197Y-7081520D01*
X12483197Y-7081520D01*
X12483197Y-7081520D01*
X12483197Y-7081520D01*
X12483197Y-7081520D01*
X12483197Y-7081520D01*
X12483197Y-7081520D01*
X12483197Y-7081520D01*
X12483197Y-7081520D01*
X12483197Y-7081520D01*
X12483197Y-7081520D01*
X12483197Y-7081520D01*
X12483197Y-7081520D01*
X12483197Y-7081520D01*
X12483197Y-7081520D01*
X12483197Y-7081520D01*
X12483197Y-7081520D01*
X12483197Y-7081520D01*
X12483197Y-7081520D01*
X12483197Y-7145020D02*
X12483197Y-7145020D01*
X12483197Y-7145020D01*
X12483197Y-7145020D01*
X12483197Y-7145020D01*
X12483197Y-7145020D01*
X12483197Y-7145020D01*
X12483197Y-7145020D01*
X12483197Y-7145020D01*
X12483197Y-7145020D01*
X12483197Y-7145020D01*
X12483197Y-7145020D01*
X12483197Y-7145020D01*
X12483197Y-7145020D01*
X12483197Y-7145020D01*
X12483197Y-7145020D01*
X12483197Y-7145020D01*
X12483197Y-7145020D01*
X12483197Y-7145020D01*
X12483197Y-7145020D01*
X12483197Y-7145020D01*
X12483197Y-7145020D01*
X12483197Y-7145020D01*
X12483197Y-7145020D01*
X12483197Y-7145020D01*
X12483197Y-7145020D01*
X12483197Y-7145020D01*
X12483197Y-7145020D01*
X12483197Y-7145020D01*
X12483197Y-7145020D01*
X12483197Y-7145020D01*
X12483197Y-7145020D01*
X12483197Y-7145020D01*
X12483197Y-7145020D01*
X12483197Y-7145020D01*
X12483197Y-7145020D01*
X12483197Y-7145020D01*
X12483197Y-7145020D02*
X12483197Y-7145020D01*
X12483197Y-7145020D01*
X12483197Y-7145020D01*
X12483197Y-7145020D01*
X12483197Y-7145020D01*
X12483197Y-7145020D01*
X12483197Y-7145020D01*
X12483197Y-7145020D01*
X12483197Y-7145020D01*
X12483197Y-7145020D01*
X12483197Y-7145020D01*
X12483197Y-7145020D01*
X12483197Y-7145020D01*
X12483197Y-7145020D01*
X12483197Y-7145020D01*
X12483197Y-7145020D01*
X12483197Y-7145020D01*
X12483197Y-7145020D01*
X12483197Y-7145020D01*
X12483197Y-7145020D01*
X12483197Y-7145020D01*
X12483197Y-7145020D01*
X12483197Y-7145020D01*
X12483197Y-7145020D01*
X12483197Y-7145020D01*
X12483197Y-7145020D01*
X12483197Y-7145020D01*
X12483197Y-7145020D01*
X12483197Y-7145020D01*
X12483197Y-7145020D01*
X12483197Y-7145020D01*
X12483197Y-7145020D01*
X12483197Y-7145020D01*
X12483197Y-7145020D01*
X12483197Y-7145020D01*
X12483197Y-7145020D01*
X12483197Y-7208520D02*
X12483197Y-7208520D01*
X12483197Y-7208520D01*
X12483197Y-7208520D01*
X12483197Y-7208520D01*
X12483197Y-7208520D01*
X12483197Y-7208520D01*
X12483197Y-7208520D01*
X12483197Y-7208520D01*
X12483197Y-7208520D01*
X12483197Y-7208520D01*
X12483197Y-7208520D01*
X12483197Y-7208520D01*
X12483197Y-7208520D01*
X12483197Y-7208520D01*
X12483197Y-7208520D01*
X12483197Y-7208520D01*
X12483197Y-7208520D01*
X12483197Y-7208520D01*
X12483197Y-7208520D01*
X12483197Y-7208520D01*
X12483197Y-7208520D01*
X12483197Y-7208520D01*
X12483197Y-7208520D01*
X12483197Y-7208520D01*
X12483197Y-7208520D01*
X12483197Y-7208520D01*
X12483197Y-7208520D01*
X12483197Y-7208520D01*
X12483197Y-7208520D01*
X12483197Y-7208520D01*
X12483197Y-7208520D01*
X12483197Y-7208520D01*
X12483197Y-7208520D01*
X12483197Y-7208520D01*
X12483197Y-7208520D01*
X12483197Y-7208520D01*
X12483197Y-7208520D02*
X12483197Y-7208520D01*
X12483197Y-7208520D01*
X12483197Y-7208520D01*
X12483197Y-7208520D01*
X12483197Y-7208520D01*
X12483197Y-7208520D01*
X12483197Y-7208520D01*
X12483197Y-7208520D01*
X12483197Y-7208520D01*
X12483197Y-7208520D01*
X12483197Y-7208520D01*
X12483197Y-7208520D01*
X12483197Y-7208520D01*
X12483197Y-7208520D01*
X12483197Y-7208520D01*
X12483197Y-7208520D01*
X12483197Y-7208520D01*
X12483197Y-7208520D01*
X12483197Y-7208520D01*
X12483197Y-7208520D01*
X12483197Y-7208520D01*
X12483197Y-7208520D01*
X12483197Y-7208520D01*
X12483197Y-7208520D01*
X12483197Y-7208520D01*
X12483197Y-7208520D01*
X12483197Y-7208520D01*
X12483197Y-7208520D01*
X12483197Y-7208520D01*
X12483197Y-7208520D01*
X12483197Y-7208520D01*
X12483197Y-7208520D01*
X12483197Y-7208520D01*
X12483197Y-7208520D01*
X12483197Y-7208520D01*
X12483197Y-7208520D01*
X12483197Y-7272020D02*
X12483197Y-7272020D01*
X12483197Y-7272020D01*
X12483197Y-7272020D01*
X12483197Y-7272020D01*
X12483197Y-7272020D01*
X12483197Y-7272020D01*
X12483197Y-7272020D01*
X12483197Y-7272020D01*
X12483197Y-7272020D01*
X12483197Y-7272020D01*
X12483197Y-7272020D01*
X12483197Y-7272020D01*
X12483197Y-7272020D01*
X12483197Y-7272020D01*
X12483197Y-7272020D01*
X12483197Y-7272020D01*
X12483197Y-7272020D01*
X12483197Y-7272020D01*
X12483197Y-7272020D01*
X12483197Y-7272020D01*
X12483197Y-7272020D01*
X12483197Y-7272020D01*
X12483197Y-7272020D01*
X12483197Y-7272020D01*
X12483197Y-7272020D01*
X12483197Y-7272020D01*
X12483197Y-7272020D01*
X12483197Y-7272020D01*
X12483197Y-7272020D01*
X12483197Y-7272020D01*
X12483197Y-7272020D01*
X12483197Y-7272020D01*
X12483197Y-7272020D01*
X12483197Y-7272020D01*
X12483197Y-7272020D01*
X12483197Y-7272020D01*
X12483197Y-7272020D02*
X12483197Y-7272020D01*
X12483197Y-7272020D01*
X12483197Y-7272020D01*
X12483197Y-7272020D01*
X12483197Y-7272020D01*
X12483197Y-7272020D01*
X12483197Y-7272020D01*
X12483197Y-7272020D01*
X12483197Y-7272020D01*
X12483197Y-7272020D01*
X12483197Y-7272020D01*
X12483197Y-7272020D01*
X12483197Y-7272020D01*
X12483197Y-7272020D01*
X12483197Y-7272020D01*
X12483197Y-7272020D01*
X12483197Y-7272020D01*
X12483197Y-7272020D01*
X12483197Y-7272020D01*
X12483197Y-7272020D01*
X12483197Y-7272020D01*
X12483197Y-7272020D01*
X12483197Y-7272020D01*
X12483197Y-7272020D01*
X12483197Y-7272020D01*
X12483197Y-7272020D01*
X12483197Y-7272020D01*
X12483197Y-7272020D01*
X12483197Y-7272020D01*
X12483197Y-7272020D01*
X12483197Y-7272020D01*
X12483197Y-7272020D01*
X12483197Y-7272020D01*
X12483197Y-7272020D01*
X12483197Y-7272020D01*
X12483197Y-7272020D01*
X12483197Y-7335520D02*
X12483197Y-7335520D01*
X12483197Y-7335520D01*
X12483197Y-7335520D01*
X12483197Y-7335520D01*
X12483197Y-7335520D01*
X12483197Y-7335520D01*
X12483197Y-7335520D01*
X12483197Y-7335520D01*
X12483197Y-7335520D01*
X12483197Y-7335520D01*
X12483197Y-7335520D01*
X12483197Y-7335520D01*
X12483197Y-7335520D01*
X12483197Y-7335520D01*
X12483197Y-7335520D01*
X12483197Y-7335520D01*
X12483197Y-7335520D01*
X12483197Y-7335520D01*
X12483197Y-7335520D01*
X12483197Y-7335520D01*
X12483197Y-7335520D01*
X12483197Y-7335520D01*
X12483197Y-7335520D01*
X12483197Y-7335520D01*
X12483197Y-7335520D01*
X12483197Y-7335520D01*
X12483197Y-7335520D01*
X12483197Y-7335520D01*
X12483197Y-7335520D01*
X12483197Y-7335520D01*
X12483197Y-7335520D01*
X12483197Y-7335520D01*
X12483197Y-7335520D01*
X12483197Y-7335520D01*
X12483197Y-7335520D01*
X12483197Y-7335520D01*
X12483197Y-7335520D02*
X12483197Y-7335520D01*
X12483197Y-7335520D01*
X12483197Y-7335520D01*
X12483197Y-7335520D01*
X12483197Y-7335520D01*
X12483197Y-7335520D01*
X12483197Y-7335520D01*
X12483197Y-7335520D01*
X12483197Y-7335520D01*
X12483197Y-7335520D01*
X12483197Y-7335520D01*
X12483197Y-7335520D01*
X12483197Y-7335520D01*
X12483197Y-7335520D01*
X12483197Y-7335520D01*
X12483197Y-7335520D01*
X12483197Y-7335520D01*
X12483197Y-7335520D01*
X12483197Y-7335520D01*
X12483197Y-7335520D01*
X12483197Y-7335520D01*
X12483197Y-7335520D01*
X12483197Y-7335520D01*
X12483197Y-7335520D01*
X12483197Y-7335520D01*
X12483197Y-7335520D01*
X12483197Y-7335520D01*
X12483197Y-7335520D01*
X12483197Y-7335520D01*
X12483197Y-7335520D01*
X12483197Y-7335520D01*
X12483197Y-7335520D01*
X12483197Y-7335520D01*
X12483197Y-7335520D01*
X12483197Y-7335520D01*
X12483197Y-7335520D01*
X12483197Y-7399020D02*
X12483197Y-7399020D01*
X12483197Y-7399020D01*
X12483197Y-7399020D01*
X12483197Y-7399020D01*
X12483197Y-7399020D01*
X12483197Y-7399020D01*
X12483197Y-7399020D01*
X12483197Y-7399020D01*
X12483197Y-7399020D01*
X12483197Y-7399020D01*
X12483197Y-7399020D01*
X12483197Y-7399020D01*
X12483197Y-7399020D01*
X12483197Y-7399020D01*
X12483197Y-7399020D01*
X12483197Y-7399020D01*
X12483197Y-7399020D01*
X12483197Y-7399020D01*
X12483197Y-7399020D01*
X12483197Y-7399020D01*
X12483197Y-7399020D01*
X12483197Y-7399020D01*
X12483197Y-7399020D01*
X12483197Y-7399020D01*
X12483197Y-7399020D01*
X12483197Y-7399020D01*
X12483197Y-7399020D01*
X12483197Y-7399020D01*
X12483197Y-7399020D01*
X12483197Y-7399020D01*
X12483197Y-7399020D01*
X12483197Y-7399020D01*
X12483197Y-7399020D01*
X12483197Y-7399020D01*
X12483197Y-7399020D01*
X12483197Y-7399020D01*
X12483197Y-7399020D02*
X12483197Y-7399020D01*
X12483197Y-7399020D01*
X12483197Y-7399020D01*
X12483197Y-7399020D01*
X12483197Y-7399020D01*
X12483197Y-7399020D01*
X12483197Y-7399020D01*
X12483197Y-7399020D01*
X12483197Y-7399020D01*
X12483197Y-7399020D01*
X12483197Y-7399020D01*
X12483197Y-7399020D01*
X12483197Y-7399020D01*
X12483197Y-7399020D01*
X12483197Y-7399020D01*
X12483197Y-7399020D01*
X12483197Y-7399020D01*
X12483197Y-7399020D01*
X12483197Y-7399020D01*
X12483197Y-7399020D01*
X12483197Y-7399020D01*
X12483197Y-7399020D01*
X12483197Y-7399020D01*
X12483197Y-7399020D01*
X12483197Y-7399020D01*
X12483197Y-7399020D01*
X12483197Y-7399020D01*
X12483197Y-7399020D01*
X12483197Y-7399020D01*
X12483197Y-7399020D01*
X12483197Y-7399020D01*
X12483197Y-7399020D01*
X12483197Y-7399020D01*
X12483197Y-7399020D01*
X12483197Y-7399020D01*
X12483197Y-7399020D01*
X12483197Y-7462520D02*
X12483197Y-7462520D01*
X12483197Y-7462520D01*
X12483197Y-7462520D01*
X12483197Y-7462520D01*
X12483197Y-7462520D01*
X12483197Y-7462520D01*
X12483197Y-7462520D01*
X12483197Y-7462520D01*
X12483197Y-7462520D01*
X12483197Y-7462520D01*
X12483197Y-7462520D01*
X12483197Y-7462520D01*
X12483197Y-7462520D01*
X12483197Y-7462520D01*
X12483197Y-7462520D01*
X12483197Y-7462520D01*
X12483197Y-7462520D01*
X12483197Y-7462520D01*
X12483197Y-7462520D01*
X12483197Y-7462520D01*
X12483197Y-7462520D01*
X12483197Y-7462520D01*
X12483197Y-7462520D01*
X12483197Y-7462520D01*
X12483197Y-7462520D01*
X12483197Y-7462520D01*
X12483197Y-7462520D01*
X12483197Y-7462520D01*
X12483197Y-7462520D01*
X12483197Y-7462520D01*
X12483197Y-7462520D01*
X12483197Y-7462520D01*
X12483197Y-7462520D01*
X12483197Y-7462520D01*
X12483197Y-7462520D01*
X12483197Y-7462520D01*
X12483197Y-7462520D02*
X12483197Y-7462520D01*
X12483197Y-7462520D01*
X12483197Y-7462520D01*
X12483197Y-7462520D01*
X12483197Y-7462520D01*
X12483197Y-7462520D01*
X12483197Y-7462520D01*
X12483197Y-7462520D01*
X12483197Y-7462520D01*
X12483197Y-7462520D01*
X12483197Y-7462520D01*
X12483197Y-7462520D01*
X12483197Y-7462520D01*
X12483197Y-7462520D01*
X12483197Y-7462520D01*
X12483197Y-7462520D01*
X12483197Y-7462520D01*
X12483197Y-7462520D01*
X12483197Y-7462520D01*
X12483197Y-7462520D01*
X12483197Y-7462520D01*
X12483197Y-7462520D01*
X12483197Y-7462520D01*
X12483197Y-7462520D01*
X12483197Y-7462520D01*
X12483197Y-7462520D01*
X12483197Y-7462520D01*
X12483197Y-7462520D01*
X12483197Y-7462520D01*
X12483197Y-7462520D01*
X12483197Y-7462520D01*
X12483197Y-7462520D01*
X12483197Y-7462520D01*
X12483197Y-7462520D01*
X12483197Y-7462520D01*
X12483197Y-7462520D01*
X12483197Y-7526020D02*
X12483197Y-7526020D01*
X12483197Y-7526020D01*
X12483197Y-7526020D01*
X12483197Y-7526020D01*
X12483197Y-7526020D01*
X12483197Y-7526020D01*
X12483197Y-7526020D01*
X12483197Y-7526020D01*
X12483197Y-7526020D01*
X12483197Y-7526020D01*
X12483197Y-7526020D01*
X12483197Y-7526020D01*
X12483197Y-7526020D01*
X12483197Y-7526020D01*
X12483197Y-7526020D01*
X12483197Y-7526020D01*
X12483197Y-7526020D01*
X12483197Y-7526020D01*
X12483197Y-7526020D01*
X12483197Y-7526020D01*
X12483197Y-7526020D01*
X12483197Y-7526020D01*
X12483197Y-7526020D01*
X12483197Y-7526020D01*
X12483197Y-7526020D01*
X12483197Y-7526020D01*
X12483197Y-7526020D01*
X12483197Y-7526020D01*
X12483197Y-7526020D01*
X12483197Y-7526020D01*
X12483197Y-7526020D01*
X12483197Y-7526020D01*
X12483197Y-7526020D01*
X12483197Y-7526020D01*
X12483197Y-7526020D01*
X12483197Y-7526020D01*
X12483197Y-7526020D02*
X12483197Y-7526020D01*
X12483197Y-7526020D01*
X12483197Y-7526020D01*
X12483197Y-7526020D01*
X12483197Y-7526020D01*
X12483197Y-7526020D01*
X12483197Y-7526020D01*
X12483197Y-7526020D01*
X12483197Y-7526020D01*
X12483197Y-7526020D01*
X12483197Y-7526020D01*
X12483197Y-7526020D01*
X12483197Y-7526020D01*
X12483197Y-7526020D01*
X12483197Y-7526020D01*
X12483197Y-7526020D01*
X12483197Y-7526020D01*
X12483197Y-7526020D01*
X12483197Y-7526020D01*
X12483197Y-7526020D01*
X12483197Y-7526020D01*
X12483197Y-7526020D01*
X12483197Y-7526020D01*
X12483197Y-7526020D01*
X12483197Y-7526020D01*
X12483197Y-7526020D01*
X12483197Y-7526020D01*
X12483197Y-7526020D01*
X12483197Y-7526020D01*
X12483197Y-7526020D01*
X12483197Y-7526020D01*
X12483197Y-7526020D01*
X12483197Y-7526020D01*
X12483197Y-7526020D01*
X12483197Y-7526020D01*
X12483197Y-7526020D01*
X12483197Y-7589520D02*
X12483197Y-7589520D01*
X12483197Y-7589520D01*
X12483197Y-7589520D01*
X12483197Y-7589520D01*
X12483197Y-7589520D01*
X12483197Y-7589520D01*
X12483197Y-7589520D01*
X12483197Y-7589520D01*
X12483197Y-7589520D01*
X12483197Y-7589520D01*
X12483197Y-7589520D01*
X12483197Y-7589520D01*
X12483197Y-7589520D01*
X12483197Y-7589520D01*
X12483197Y-7589520D01*
X12483197Y-7589520D01*
X12483197Y-7589520D01*
X12483197Y-7589520D01*
X12483197Y-7589520D01*
X12483197Y-7589520D01*
X12483197Y-7589520D01*
X12483197Y-7589520D01*
X12483197Y-7589520D01*
X12483197Y-7589520D01*
X12483197Y-7589520D01*
X12483197Y-7589520D01*
X12483197Y-7589520D01*
X12483197Y-7589520D01*
X12483197Y-7589520D01*
X12483197Y-7589520D01*
X12483197Y-7589520D01*
X12483197Y-7589520D01*
X12483197Y-7589520D01*
X12483197Y-7589520D01*
X12483197Y-7589520D01*
X12483197Y-7589520D01*
X12483197Y-7589520D02*
X12483197Y-7589520D01*
X12483197Y-7589520D01*
X12483197Y-7589520D01*
X12483197Y-7589520D01*
X12483197Y-7589520D01*
X12483197Y-7589520D01*
X12483197Y-7589520D01*
X12483197Y-7589520D01*
X12483197Y-7589520D01*
X12483197Y-7589520D01*
X12483197Y-7589520D01*
X12483197Y-7589520D01*
X12483197Y-7589520D01*
X12483197Y-7589520D01*
X12483197Y-7589520D01*
X12483197Y-7589520D01*
X12483197Y-7589520D01*
X12483197Y-7589520D01*
X12483197Y-7589520D01*
X12483197Y-7589520D01*
X12483197Y-7589520D01*
X12483197Y-7589520D01*
X12483197Y-7589520D01*
X12483197Y-7589520D01*
X12483197Y-7589520D01*
X12483197Y-7589520D01*
X12483197Y-7589520D01*
X12483197Y-7589520D01*
X12483197Y-7589520D01*
X12483197Y-7589520D01*
X12483197Y-7589520D01*
X12483197Y-7589520D01*
X12483197Y-7589520D01*
X12483197Y-7589520D01*
X12483197Y-7589520D01*
X12483197Y-7589520D01*
X12483197Y-7653020D02*
X12483197Y-7653020D01*
X12483197Y-7653020D01*
X12483197Y-7653020D01*
X12483197Y-7653020D01*
X12483197Y-7653020D01*
X12483197Y-7653020D01*
X12483197Y-7653020D01*
X12483197Y-7653020D01*
X12483197Y-7653020D01*
X12483197Y-7653020D01*
X12483197Y-7653020D01*
X12483197Y-7653020D01*
X12483197Y-7653020D01*
X12483197Y-7653020D01*
X12483197Y-7653020D01*
X12483197Y-7653020D01*
X12483197Y-7653020D01*
X12483197Y-7653020D01*
X12483197Y-7653020D01*
X12483197Y-7653020D01*
X12483197Y-7653020D01*
X12483197Y-7653020D01*
X12483197Y-7653020D01*
X12483197Y-7653020D01*
X12483197Y-7653020D01*
X12483197Y-7653020D01*
X12483197Y-7653020D01*
X12483197Y-7653020D01*
X12483197Y-7653020D01*
X12483197Y-7653020D01*
X12483197Y-7653020D01*
X12483197Y-7653020D01*
X12483197Y-7653020D01*
X12483197Y-7653020D01*
X12483197Y-7653020D01*
X12483197Y-7653020D01*
X12483197Y-7653020D02*
X12483197Y-7653020D01*
X12483197Y-7653020D01*
X12483197Y-7653020D01*
X12483197Y-7653020D01*
X12483197Y-7653020D01*
X12483197Y-7653020D01*
X12483197Y-7653020D01*
X12483197Y-7653020D01*
X12483197Y-7653020D01*
X12483197Y-7653020D01*
X12483197Y-7653020D01*
X12483197Y-7653020D01*
X12483197Y-7653020D01*
X12483197Y-7653020D01*
X12483197Y-7653020D01*
X12483197Y-7653020D01*
X12483197Y-7653020D01*
X12483197Y-7653020D01*
X12483197Y-7653020D01*
X12483197Y-7653020D01*
X12483197Y-7653020D01*
X12483197Y-7653020D01*
X12483197Y-7653020D01*
X12483197Y-7653020D01*
X12483197Y-7653020D01*
X12483197Y-7653020D01*
X12483197Y-7653020D01*
X12483197Y-7653020D01*
X12483197Y-7653020D01*
X12483197Y-7653020D01*
X12483197Y-7653020D01*
X12483197Y-7653020D01*
X12483197Y-7653020D01*
X12483197Y-7653020D01*
X12483197Y-7653020D01*
X12483197Y-7653020D01*
X12483197Y-7716520D02*
X12483197Y-7716520D01*
X12483197Y-7716520D01*
X12483197Y-7716520D01*
X12483197Y-7716520D01*
X12483197Y-7716520D01*
X12483197Y-7716520D01*
X12483197Y-7716520D01*
X12483197Y-7716520D01*
X12483197Y-7716520D01*
X12483197Y-7716520D01*
X12483197Y-7716520D01*
X12483197Y-7716520D01*
X12483197Y-7716520D01*
X12483197Y-7716520D01*
X12483197Y-7716520D01*
X12483197Y-7716520D01*
X12483197Y-7716520D01*
X12483197Y-7716520D01*
X12483197Y-7716520D01*
X12483197Y-7716520D01*
X12483197Y-7716520D01*
X12483197Y-7716520D01*
X12483197Y-7716520D01*
X12483197Y-7716520D01*
X12483197Y-7716520D01*
X12483197Y-7716520D01*
X12483197Y-7716520D01*
X12483197Y-7716520D01*
X12483197Y-7716520D01*
X12483197Y-7716520D01*
X12483197Y-7716520D01*
X12483197Y-7716520D01*
X12483197Y-7716520D01*
X12483197Y-7716520D01*
X12483197Y-7716520D01*
X12483197Y-7716520D01*
X12483197Y-7716520D02*
X12483197Y-7716520D01*
X12483197Y-7716520D01*
X12483197Y-7716520D01*
X12483197Y-7716520D01*
X12483197Y-7716520D01*
X12483197Y-7716520D01*
X12483197Y-7716520D01*
X12483197Y-7716520D01*
X12483197Y-7716520D01*
X12483197Y-7716520D01*
X12483197Y-7716520D01*
X12483197Y-7716520D01*
X12483197Y-7716520D01*
X12483197Y-7716520D01*
X12483197Y-7716520D01*
X12483197Y-7716520D01*
X12483197Y-7716520D01*
X12483197Y-7716520D01*
X12483197Y-7716520D01*
X12483197Y-7716520D01*
X12483197Y-7716520D01*
X12483197Y-7716520D01*
X12483197Y-7716520D01*
X12483197Y-7716520D01*
X12483197Y-7716520D01*
X12483197Y-7716520D01*
X12483197Y-7716520D01*
X12483197Y-7716520D01*
X12483197Y-7716520D01*
X12483197Y-7716520D01*
X12483197Y-7716520D01*
X12483197Y-7716520D01*
X12483197Y-7716520D01*
X12483197Y-7716520D01*
X12483197Y-7716520D01*
X12483197Y-7716520D01*
X12483197Y-7780020D02*
X12483197Y-7780020D01*
X12483197Y-7780020D01*
X12483197Y-7780020D01*
X12483197Y-7780020D01*
X12483197Y-7780020D01*
X12483197Y-7780020D01*
X12483197Y-7780020D01*
X12483197Y-7780020D01*
X12483197Y-7780020D01*
X12483197Y-7780020D01*
X12483197Y-7780020D01*
X12483197Y-7780020D01*
X12483197Y-7780020D01*
X12483197Y-7780020D01*
X12483197Y-7780020D01*
X12483197Y-7780020D01*
X12483197Y-7780020D01*
X12483197Y-7780020D01*
X12483197Y-7780020D01*
X12483197Y-7780020D01*
X12483197Y-7780020D01*
X12483197Y-7780020D01*
X12483197Y-7780020D01*
X12483197Y-7780020D01*
X12483197Y-7780020D01*
X12483197Y-7780020D01*
X12483197Y-7780020D01*
X12483197Y-7780020D01*
X12483197Y-7780020D01*
X12483197Y-7780020D01*
X12483197Y-7780020D01*
X12483197Y-7780020D01*
X12483197Y-7780020D01*
X12483197Y-7780020D01*
X12483197Y-7780020D01*
X12483197Y-7780020D01*
X12483197Y-7780020D02*
X12483197Y-7780020D01*
X12483197Y-7780020D01*
X12483197Y-7780020D01*
X12483197Y-7780020D01*
X12483197Y-7780020D01*
X12483197Y-7780020D01*
X12483197Y-7780020D01*
X12483197Y-7780020D01*
X12483197Y-7780020D01*
X12483197Y-7780020D01*
X12483197Y-7780020D01*
X12483197Y-7780020D01*
X12483197Y-7780020D01*
X12483197Y-7780020D01*
X12483197Y-7780020D01*
X12483197Y-7780020D01*
X12483197Y-7780020D01*
X12483197Y-7780020D01*
X12483197Y-7780020D01*
X12483197Y-7780020D01*
X12483197Y-7780020D01*
X12483197Y-7780020D01*
X12483197Y-7780020D01*
X12483197Y-7780020D01*
X12483197Y-7780020D01*
X12483197Y-7780020D01*
X12483197Y-7780020D01*
X12483197Y-7780020D01*
X12483197Y-7780020D01*
X12483197Y-7780020D01*
X12483197Y-7780020D01*
X12483197Y-7780020D01*
X12483197Y-7780020D01*
X12483197Y-7780020D01*
X12483197Y-7780020D01*
X12483197Y-7780020D01*
D10*
X12557760Y-9639300D02*
G75*
G02*
X12445999Y-9461500I85550J177800D01*
G01*
X12573000Y-7048500D02*
G75*
G02*
X12446000Y-6921500I0J127000D01*
G01*
X12573000Y-7048500D02*
X17272000Y-7048500D01*
X14147800Y-12001500D02*
G75*
G02*
X13893800Y-12153898I-221630J81520D01*
G01*
X14147800Y-12001500D02*
X14674416Y-10810675D01*
X14576130Y-10540637D02*
X12557760Y-9639300D01*
X14576130Y-10540637D02*
G75*
G02*
X14674416Y-10810675I-85880J-184163D01*
G01*
X15170584Y-10810675D02*
G75*
G02*
X15268869Y-10540637I184166J85875D01*
G01*
X15268870Y-10540637D02*
X17287240Y-9639300D01*
X15697200Y-12001500D02*
X15170584Y-10810675D01*
X15951200Y-12153900D02*
G75*
G02*
X15697198Y-12001501I-32370J233920D01*
G01*
X17272000Y-7810500D02*
X12573000Y-7810500D01*
X17272000Y-7810500D02*
G75*
G02*
X17399000Y-7937500I0J-127000D01*
G01*
D11*
X17360900Y-7081520D02*
X17360900Y-7081520D01*
X17360900Y-7081520D01*
X17360900Y-7081520D01*
X17360900Y-7081520D01*
X17360900Y-7081520D01*
X17360900Y-7081520D01*
X17360900Y-7081520D01*
X17360900Y-7081520D01*
X17360900Y-7081520D01*
X17360900Y-7081520D01*
X17360900Y-7081520D01*
X17360900Y-7081520D01*
X17360900Y-7081520D01*
X17360900Y-7081520D01*
X17360900Y-7081520D01*
X17360900Y-7081520D01*
X17360900Y-7081520D01*
X17360900Y-7081520D01*
X17360900Y-7081520D01*
X17360900Y-7081520D01*
X17360900Y-7081520D01*
X17360900Y-7081520D01*
X17360900Y-7081520D01*
X17360900Y-7081520D01*
X17360900Y-7081520D01*
X17360900Y-7081520D01*
X17360900Y-7081520D01*
X17360900Y-7081520D01*
X17360900Y-7081520D01*
X17360900Y-7081520D01*
X17360900Y-7081520D01*
X17360900Y-7081520D01*
X17360900Y-7081520D01*
X17360900Y-7081520D01*
X17360900Y-7081520D01*
X17360900Y-7081520D01*
X17360900Y-7081520D02*
X17360900Y-7081520D01*
X17360900Y-7081520D01*
X17360900Y-7081520D01*
X17360900Y-7081520D01*
X17360900Y-7081520D01*
X17360900Y-7081520D01*
X17360900Y-7081520D01*
X17360900Y-7081520D01*
X17360900Y-7081520D01*
X17360900Y-7081520D01*
X17360900Y-7081520D01*
X17360900Y-7081520D01*
X17360900Y-7081520D01*
X17360900Y-7081520D01*
X17360900Y-7081520D01*
X17360900Y-7081520D01*
X17360900Y-7081520D01*
X17360900Y-7081520D01*
X17360900Y-7081520D01*
X17360900Y-7081520D01*
X17360900Y-7081520D01*
X17360900Y-7081520D01*
X17360900Y-7081520D01*
X17360900Y-7081520D01*
X17360900Y-7081520D01*
X17360900Y-7081520D01*
X17360900Y-7081520D01*
X17360900Y-7081520D01*
X17360900Y-7081520D01*
X17360900Y-7081520D01*
X17360900Y-7081520D01*
X17360900Y-7081520D01*
X17360900Y-7081520D01*
X17360900Y-7081520D01*
X17360900Y-7081520D01*
X17360900Y-7081520D01*
X17360900Y-7145020D02*
X17360900Y-7145020D01*
X17360900Y-7145020D01*
X17360900Y-7145020D01*
X17360900Y-7145020D01*
X17360900Y-7145020D01*
X17360900Y-7145020D01*
X17360900Y-7145020D01*
X17360900Y-7145020D01*
X17360900Y-7145020D01*
X17360900Y-7145020D01*
X17360900Y-7145020D01*
X17360900Y-7145020D01*
X17360900Y-7145020D01*
X17360900Y-7145020D01*
X17360900Y-7145020D01*
X17360900Y-7145020D01*
X17360900Y-7145020D01*
X17360900Y-7145020D01*
X17360900Y-7145020D01*
X17360900Y-7145020D01*
X17360900Y-7145020D01*
X17360900Y-7145020D01*
X17360900Y-7145020D01*
X17360900Y-7145020D01*
X17360900Y-7145020D01*
X17360900Y-7145020D01*
X17360900Y-7145020D01*
X17360900Y-7145020D01*
X17360900Y-7145020D01*
X17360900Y-7145020D01*
X17360900Y-7145020D01*
X17360900Y-7145020D01*
X17360900Y-7145020D01*
X17360900Y-7145020D01*
X17360900Y-7145020D01*
X17360900Y-7145020D01*
X17360900Y-7145020D02*
X17360900Y-7145020D01*
X17360900Y-7145020D01*
X17360900Y-7145020D01*
X17360900Y-7145020D01*
X17360900Y-7145020D01*
X17360900Y-7145020D01*
X17360900Y-7145020D01*
X17360900Y-7145020D01*
X17360900Y-7145020D01*
X17360900Y-7145020D01*
X17360900Y-7145020D01*
X17360900Y-7145020D01*
X17360900Y-7145020D01*
X17360900Y-7145020D01*
X17360900Y-7145020D01*
X17360900Y-7145020D01*
X17360900Y-7145020D01*
X17360900Y-7145020D01*
X17360900Y-7145020D01*
X17360900Y-7145020D01*
X17360900Y-7145020D01*
X17360900Y-7145020D01*
X17360900Y-7145020D01*
X17360900Y-7145020D01*
X17360900Y-7145020D01*
X17360900Y-7145020D01*
X17360900Y-7145020D01*
X17360900Y-7145020D01*
X17360900Y-7145020D01*
X17360900Y-7145020D01*
X17360900Y-7145020D01*
X17360900Y-7145020D01*
X17360900Y-7145020D01*
X17360900Y-7145020D01*
X17360900Y-7145020D01*
X17360900Y-7145020D01*
X17360900Y-7208520D02*
X17360900Y-7208520D01*
X17360900Y-7208520D01*
X17360900Y-7208520D01*
X17360900Y-7208520D01*
X17360900Y-7208520D01*
X17360900Y-7208520D01*
X17360900Y-7208520D01*
X17360900Y-7208520D01*
X17360900Y-7208520D01*
X17360900Y-7208520D01*
X17360900Y-7208520D01*
X17360900Y-7208520D01*
X17360900Y-7208520D01*
X17360900Y-7208520D01*
X17360900Y-7208520D01*
X17360900Y-7208520D01*
X17360900Y-7208520D01*
X17360900Y-7208520D01*
X17360900Y-7208520D01*
X17360900Y-7208520D01*
X17360900Y-7208520D01*
X17360900Y-7208520D01*
X17360900Y-7208520D01*
X17360900Y-7208520D01*
X17360900Y-7208520D01*
X17360900Y-7208520D01*
X17360900Y-7208520D01*
X17360900Y-7208520D01*
X17360900Y-7208520D01*
X17360900Y-7208520D01*
X17360900Y-7208520D01*
X17360900Y-7208520D01*
X17360900Y-7208520D01*
X17360900Y-7208520D01*
X17360900Y-7208520D01*
X17360900Y-7208520D01*
X17360900Y-7208520D02*
X17360900Y-7208520D01*
X17360900Y-7208520D01*
X17360900Y-7208520D01*
X17360900Y-7208520D01*
X17360900Y-7208520D01*
X17360900Y-7208520D01*
X17360900Y-7208520D01*
X17360900Y-7208520D01*
X17360900Y-7208520D01*
X17360900Y-7208520D01*
X17360900Y-7208520D01*
X17360900Y-7208520D01*
X17360900Y-7208520D01*
X17360900Y-7208520D01*
X17360900Y-7208520D01*
X17360900Y-7208520D01*
X17360900Y-7208520D01*
X17360900Y-7208520D01*
X17360900Y-7208520D01*
X17360900Y-7208520D01*
X17360900Y-7208520D01*
X17360900Y-7208520D01*
X17360900Y-7208520D01*
X17360900Y-7208520D01*
X17360900Y-7208520D01*
X17360900Y-7208520D01*
X17360900Y-7208520D01*
X17360900Y-7208520D01*
X17360900Y-7208520D01*
X17360900Y-7208520D01*
X17360900Y-7208520D01*
X17360900Y-7208520D01*
X17360900Y-7208520D01*
X17360900Y-7208520D01*
X17360900Y-7208520D01*
X17360900Y-7208520D01*
X17360900Y-7272020D02*
X17360900Y-7272020D01*
X17360900Y-7272020D01*
X17360900Y-7272020D01*
X17360900Y-7272020D01*
X17360900Y-7272020D01*
X17360900Y-7272020D01*
X17360900Y-7272020D01*
X17360900Y-7272020D01*
X17360900Y-7272020D01*
X17360900Y-7272020D01*
X17360900Y-7272020D01*
X17360900Y-7272020D01*
X17360900Y-7272020D01*
X17360900Y-7272020D01*
X17360900Y-7272020D01*
X17360900Y-7272020D01*
X17360900Y-7272020D01*
X17360900Y-7272020D01*
X17360900Y-7272020D01*
X17360900Y-7272020D01*
X17360900Y-7272020D01*
X17360900Y-7272020D01*
X17360900Y-7272020D01*
X17360900Y-7272020D01*
X17360900Y-7272020D01*
X17360900Y-7272020D01*
X17360900Y-7272020D01*
X17360900Y-7272020D01*
X17360900Y-7272020D01*
X17360900Y-7272020D01*
X17360900Y-7272020D01*
X17360900Y-7272020D01*
X17360900Y-7272020D01*
X17360900Y-7272020D01*
X17360900Y-7272020D01*
X17360900Y-7272020D01*
X17360900Y-7272020D02*
X17360900Y-7272020D01*
X17360900Y-7272020D01*
X17360900Y-7272020D01*
X17360900Y-7272020D01*
X17360900Y-7272020D01*
X17360900Y-7272020D01*
X17360900Y-7272020D01*
X17360900Y-7272020D01*
X17360900Y-7272020D01*
X17360900Y-7272020D01*
X17360900Y-7272020D01*
X17360900Y-7272020D01*
X17360900Y-7272020D01*
X17360900Y-7272020D01*
X17360900Y-7272020D01*
X17360900Y-7272020D01*
X17360900Y-7272020D01*
X17360900Y-7272020D01*
X17360900Y-7272020D01*
X17360900Y-7272020D01*
X17360900Y-7272020D01*
X17360900Y-7272020D01*
X17360900Y-7272020D01*
X17360900Y-7272020D01*
X17360900Y-7272020D01*
X17360900Y-7272020D01*
X17360900Y-7272020D01*
X17360900Y-7272020D01*
X17360900Y-7272020D01*
X17360900Y-7272020D01*
X17360900Y-7272020D01*
X17360900Y-7272020D01*
X17360900Y-7272020D01*
X17360900Y-7272020D01*
X17360900Y-7272020D01*
X17360900Y-7272020D01*
X17360900Y-7335520D02*
X17360900Y-7335520D01*
X17360900Y-7335520D01*
X17360900Y-7335520D01*
X17360900Y-7335520D01*
X17360900Y-7335520D01*
X17360900Y-7335520D01*
X17360900Y-7335520D01*
X17360900Y-7335520D01*
X17360900Y-7335520D01*
X17360900Y-7335520D01*
X17360900Y-7335520D01*
X17360900Y-7335520D01*
X17360900Y-7335520D01*
X17360900Y-7335520D01*
X17360900Y-7335520D01*
X17360900Y-7335520D01*
X17360900Y-7335520D01*
X17360900Y-7335520D01*
X17360900Y-7335520D01*
X17360900Y-7335520D01*
X17360900Y-7335520D01*
X17360900Y-7335520D01*
X17360900Y-7335520D01*
X17360900Y-7335520D01*
X17360900Y-7335520D01*
X17360900Y-7335520D01*
X17360900Y-7335520D01*
X17360900Y-7335520D01*
X17360900Y-7335520D01*
X17360900Y-7335520D01*
X17360900Y-7335520D01*
X17360900Y-7335520D01*
X17360900Y-7335520D01*
X17360900Y-7335520D01*
X17360900Y-7335520D01*
X17360900Y-7335520D01*
X17360900Y-7335520D02*
X17360900Y-7335520D01*
X17360900Y-7335520D01*
X17360900Y-7335520D01*
X17360900Y-7335520D01*
X17360900Y-7335520D01*
X17360900Y-7335520D01*
X17360900Y-7335520D01*
X17360900Y-7335520D01*
X17360900Y-7335520D01*
X17360900Y-7335520D01*
X17360900Y-7335520D01*
X17360900Y-7335520D01*
X17360900Y-7335520D01*
X17360900Y-7335520D01*
X17360900Y-7335520D01*
X17360900Y-7335520D01*
X17360900Y-7335520D01*
X17360900Y-7335520D01*
X17360900Y-7335520D01*
X17360900Y-7335520D01*
X17360900Y-7335520D01*
X17360900Y-7335520D01*
X17360900Y-7335520D01*
X17360900Y-7335520D01*
X17360900Y-7335520D01*
X17360900Y-7335520D01*
X17360900Y-7335520D01*
X17360900Y-7335520D01*
X17360900Y-7335520D01*
X17360900Y-7335520D01*
X17360900Y-7335520D01*
X17360900Y-7335520D01*
X17360900Y-7335520D01*
X17360900Y-7335520D01*
X17360900Y-7335520D01*
X17360900Y-7335520D01*
X17360900Y-7399020D02*
X17360900Y-7399020D01*
X17360900Y-7399020D01*
X17360900Y-7399020D01*
X17360900Y-7399020D01*
X17360900Y-7399020D01*
X17360900Y-7399020D01*
X17360900Y-7399020D01*
X17360900Y-7399020D01*
X17360900Y-7399020D01*
X17360900Y-7399020D01*
X17360900Y-7399020D01*
X17360900Y-7399020D01*
X17360900Y-7399020D01*
X17360900Y-7399020D01*
X17360900Y-7399020D01*
X17360900Y-7399020D01*
X17360900Y-7399020D01*
X17360900Y-7399020D01*
X17360900Y-7399020D01*
X17360900Y-7399020D01*
X17360900Y-7399020D01*
X17360900Y-7399020D01*
X17360900Y-7399020D01*
X17360900Y-7399020D01*
X17360900Y-7399020D01*
X17360900Y-7399020D01*
X17360900Y-7399020D01*
X17360900Y-7399020D01*
X17360900Y-7399020D01*
X17360900Y-7399020D01*
X17360900Y-7399020D01*
X17360900Y-7399020D01*
X17360900Y-7399020D01*
X17360900Y-7399020D01*
X17360900Y-7399020D01*
X17360900Y-7399020D01*
X17360900Y-7399020D02*
X17360900Y-7399020D01*
X17360900Y-7399020D01*
X17360900Y-7399020D01*
X17360900Y-7399020D01*
X17360900Y-7399020D01*
X17360900Y-7399020D01*
X17360900Y-7399020D01*
X17360900Y-7399020D01*
X17360900Y-7399020D01*
X17360900Y-7399020D01*
X17360900Y-7399020D01*
X17360900Y-7399020D01*
X17360900Y-7399020D01*
X17360900Y-7399020D01*
X17360900Y-7399020D01*
X17360900Y-7399020D01*
X17360900Y-7399020D01*
X17360900Y-7399020D01*
X17360900Y-7399020D01*
X17360900Y-7399020D01*
X17360900Y-7399020D01*
X17360900Y-7399020D01*
X17360900Y-7399020D01*
X17360900Y-7399020D01*
X17360900Y-7399020D01*
X17360900Y-7399020D01*
X17360900Y-7399020D01*
X17360900Y-7399020D01*
X17360900Y-7399020D01*
X17360900Y-7399020D01*
X17360900Y-7399020D01*
X17360900Y-7399020D01*
X17360900Y-7399020D01*
X17360900Y-7399020D01*
X17360900Y-7399020D01*
X17360900Y-7399020D01*
X17360900Y-7462520D02*
X17360900Y-7462520D01*
X17360900Y-7462520D01*
X17360900Y-7462520D01*
X17360900Y-7462520D01*
X17360900Y-7462520D01*
X17360900Y-7462520D01*
X17360900Y-7462520D01*
X17360900Y-7462520D01*
X17360900Y-7462520D01*
X17360900Y-7462520D01*
X17360900Y-7462520D01*
X17360900Y-7462520D01*
X17360900Y-7462520D01*
X17360900Y-7462520D01*
X17360900Y-7462520D01*
X17360900Y-7462520D01*
X17360900Y-7462520D01*
X17360900Y-7462520D01*
X17360900Y-7462520D01*
X17360900Y-7462520D01*
X17360900Y-7462520D01*
X17360900Y-7462520D01*
X17360900Y-7462520D01*
X17360900Y-7462520D01*
X17360900Y-7462520D01*
X17360900Y-7462520D01*
X17360900Y-7462520D01*
X17360900Y-7462520D01*
X17360900Y-7462520D01*
X17360900Y-7462520D01*
X17360900Y-7462520D01*
X17360900Y-7462520D01*
X17360900Y-7462520D01*
X17360900Y-7462520D01*
X17360900Y-7462520D01*
X17360900Y-7462520D01*
X17360900Y-7462520D02*
X17360900Y-7462520D01*
X17360900Y-7462520D01*
X17360900Y-7462520D01*
X17360900Y-7462520D01*
X17360900Y-7462520D01*
X17360900Y-7462520D01*
X17360900Y-7462520D01*
X17360900Y-7462520D01*
X17360900Y-7462520D01*
X17360900Y-7462520D01*
X17360900Y-7462520D01*
X17360900Y-7462520D01*
X17360900Y-7462520D01*
X17360900Y-7462520D01*
X17360900Y-7462520D01*
X17360900Y-7462520D01*
X17360900Y-7462520D01*
X17360900Y-7462520D01*
X17360900Y-7462520D01*
X17360900Y-7462520D01*
X17360900Y-7462520D01*
X17360900Y-7462520D01*
X17360900Y-7462520D01*
X17360900Y-7462520D01*
X17360900Y-7462520D01*
X17360900Y-7462520D01*
X17360900Y-7462520D01*
X17360900Y-7462520D01*
X17360900Y-7462520D01*
X17360900Y-7462520D01*
X17360900Y-7462520D01*
X17360900Y-7462520D01*
X17360900Y-7462520D01*
X17360900Y-7462520D01*
X17360900Y-7462520D01*
X17360900Y-7462520D01*
X17360900Y-7526020D02*
X17360900Y-7526020D01*
X17360900Y-7526020D01*
X17360900Y-7526020D01*
X17360900Y-7526020D01*
X17360900Y-7526020D01*
X17360900Y-7526020D01*
X17360900Y-7526020D01*
X17360900Y-7526020D01*
X17360900Y-7526020D01*
X17360900Y-7526020D01*
X17360900Y-7526020D01*
X17360900Y-7526020D01*
X17360900Y-7526020D01*
X17360900Y-7526020D01*
X17360900Y-7526020D01*
X17360900Y-7526020D01*
X17360900Y-7526020D01*
X17360900Y-7526020D01*
X17360900Y-7526020D01*
X17360900Y-7526020D01*
X17360900Y-7526020D01*
X17360900Y-7526020D01*
X17360900Y-7526020D01*
X17360900Y-7526020D01*
X17360900Y-7526020D01*
X17360900Y-7526020D01*
X17360900Y-7526020D01*
X17360900Y-7526020D01*
X17360900Y-7526020D01*
X17360900Y-7526020D01*
X17360900Y-7526020D01*
X17360900Y-7526020D01*
X17360900Y-7526020D01*
X17360900Y-7526020D01*
X17360900Y-7526020D01*
X17360900Y-7526020D01*
X17360900Y-7526020D02*
X17360900Y-7526020D01*
X17360900Y-7526020D01*
X17360900Y-7526020D01*
X17360900Y-7526020D01*
X17360900Y-7526020D01*
X17360900Y-7526020D01*
X17360900Y-7526020D01*
X17360900Y-7526020D01*
X17360900Y-7526020D01*
X17360900Y-7526020D01*
X17360900Y-7526020D01*
X17360900Y-7526020D01*
X17360900Y-7526020D01*
X17360900Y-7526020D01*
X17360900Y-7526020D01*
X17360900Y-7526020D01*
X17360900Y-7526020D01*
X17360900Y-7526020D01*
X17360900Y-7526020D01*
X17360900Y-7526020D01*
X17360900Y-7526020D01*
X17360900Y-7526020D01*
X17360900Y-7526020D01*
X17360900Y-7526020D01*
X17360900Y-7526020D01*
X17360900Y-7526020D01*
X17360900Y-7526020D01*
X17360900Y-7526020D01*
X17360900Y-7526020D01*
X17360900Y-7526020D01*
X17360900Y-7526020D01*
X17360900Y-7526020D01*
X17360900Y-7526020D01*
X17360900Y-7526020D01*
X17360900Y-7526020D01*
X17360900Y-7526020D01*
X17360900Y-7589520D02*
X17360900Y-7589520D01*
X17360900Y-7589520D01*
X17360900Y-7589520D01*
X17360900Y-7589520D01*
X17360900Y-7589520D01*
X17360900Y-7589520D01*
X17360900Y-7589520D01*
X17360900Y-7589520D01*
X17360900Y-7589520D01*
X17360900Y-7589520D01*
X17360900Y-7589520D01*
X17360900Y-7589520D01*
X17360900Y-7589520D01*
X17360900Y-7589520D01*
X17360900Y-7589520D01*
X17360900Y-7589520D01*
X17360900Y-7589520D01*
X17360900Y-7589520D01*
X17360900Y-7589520D01*
X17360900Y-7589520D01*
X17360900Y-7589520D01*
X17360900Y-7589520D01*
X17360900Y-7589520D01*
X17360900Y-7589520D01*
X17360900Y-7589520D01*
X17360900Y-7589520D01*
X17360900Y-7589520D01*
X17360900Y-7589520D01*
X17360900Y-7589520D01*
X17360900Y-7589520D01*
X17360900Y-7589520D01*
X17360900Y-7589520D01*
X17360900Y-7589520D01*
X17360900Y-7589520D01*
X17360900Y-7589520D01*
X17360900Y-7589520D01*
X17360900Y-7589520D02*
X17360900Y-7589520D01*
X17360900Y-7589520D01*
X17360900Y-7589520D01*
X17360900Y-7589520D01*
X17360900Y-7589520D01*
X17360900Y-7589520D01*
X17360900Y-7589520D01*
X17360900Y-7589520D01*
X17360900Y-7589520D01*
X17360900Y-7589520D01*
X17360900Y-7589520D01*
X17360900Y-7589520D01*
X17360900Y-7589520D01*
X17360900Y-7589520D01*
X17360900Y-7589520D01*
X17360900Y-7589520D01*
X17360900Y-7589520D01*
X17360900Y-7589520D01*
X17360900Y-7589520D01*
X17360900Y-7589520D01*
X17360900Y-7589520D01*
X17360900Y-7589520D01*
X17360900Y-7589520D01*
X17360900Y-7589520D01*
X17360900Y-7589520D01*
X17360900Y-7589520D01*
X17360900Y-7589520D01*
X17360900Y-7589520D01*
X17360900Y-7589520D01*
X17360900Y-7589520D01*
X17360900Y-7589520D01*
X17360900Y-7589520D01*
X17360900Y-7589520D01*
X17360900Y-7589520D01*
X17360900Y-7589520D01*
X17360900Y-7589520D01*
X17360900Y-7653020D02*
X17360900Y-7653020D01*
X17360900Y-7653020D01*
X17360900Y-7653020D01*
X17360900Y-7653020D01*
X17360900Y-7653020D01*
X17360900Y-7653020D01*
X17360900Y-7653020D01*
X17360900Y-7653020D01*
X17360900Y-7653020D01*
X17360900Y-7653020D01*
X17360900Y-7653020D01*
X17360900Y-7653020D01*
X17360900Y-7653020D01*
X17360900Y-7653020D01*
X17360900Y-7653020D01*
X17360900Y-7653020D01*
X17360900Y-7653020D01*
X17360900Y-7653020D01*
X17360900Y-7653020D01*
X17360900Y-7653020D01*
X17360900Y-7653020D01*
X17360900Y-7653020D01*
X17360900Y-7653020D01*
X17360900Y-7653020D01*
X17360900Y-7653020D01*
X17360900Y-7653020D01*
X17360900Y-7653020D01*
X17360900Y-7653020D01*
X17360900Y-7653020D01*
X17360900Y-7653020D01*
X17360900Y-7653020D01*
X17360900Y-7653020D01*
X17360900Y-7653020D01*
X17360900Y-7653020D01*
X17360900Y-7653020D01*
X17360900Y-7653020D01*
X17360900Y-7653020D02*
X17360900Y-7653020D01*
X17360900Y-7653020D01*
X17360900Y-7653020D01*
X17360900Y-7653020D01*
X17360900Y-7653020D01*
X17360900Y-7653020D01*
X17360900Y-7653020D01*
X17360900Y-7653020D01*
X17360900Y-7653020D01*
X17360900Y-7653020D01*
X17360900Y-7653020D01*
X17360900Y-7653020D01*
X17360900Y-7653020D01*
X17360900Y-7653020D01*
X17360900Y-7653020D01*
X17360900Y-7653020D01*
X17360900Y-7653020D01*
X17360900Y-7653020D01*
X17360900Y-7653020D01*
X17360900Y-7653020D01*
X17360900Y-7653020D01*
X17360900Y-7653020D01*
X17360900Y-7653020D01*
X17360900Y-7653020D01*
X17360900Y-7653020D01*
X17360900Y-7653020D01*
X17360900Y-7653020D01*
X17360900Y-7653020D01*
X17360900Y-7653020D01*
X17360900Y-7653020D01*
X17360900Y-7653020D01*
X17360900Y-7653020D01*
X17360900Y-7653020D01*
X17360900Y-7653020D01*
X17360900Y-7653020D01*
X17360900Y-7653020D01*
X17360900Y-7716520D02*
X17360900Y-7716520D01*
X17360900Y-7716520D01*
X17360900Y-7716520D01*
X17360900Y-7716520D01*
X17360900Y-7716520D01*
X17360900Y-7716520D01*
X17360900Y-7716520D01*
X17360900Y-7716520D01*
X17360900Y-7716520D01*
X17360900Y-7716520D01*
X17360900Y-7716520D01*
X17360900Y-7716520D01*
X17360900Y-7716520D01*
X17360900Y-7716520D01*
X17360900Y-7716520D01*
X17360900Y-7716520D01*
X17360900Y-7716520D01*
X17360900Y-7716520D01*
X17360900Y-7716520D01*
X17360900Y-7716520D01*
X17360900Y-7716520D01*
X17360900Y-7716520D01*
X17360900Y-7716520D01*
X17360900Y-7716520D01*
X17360900Y-7716520D01*
X17360900Y-7716520D01*
X17360900Y-7716520D01*
X17360900Y-7716520D01*
X17360900Y-7716520D01*
X17360900Y-7716520D01*
X17360900Y-7716520D01*
X17360900Y-7716520D01*
X17360900Y-7716520D01*
X17360900Y-7716520D01*
X17360900Y-7716520D01*
X17360900Y-7716520D01*
X17360900Y-7716520D02*
X17360900Y-7716520D01*
X17360900Y-7716520D01*
X17360900Y-7716520D01*
X17360900Y-7716520D01*
X17360900Y-7716520D01*
X17360900Y-7716520D01*
X17360900Y-7716520D01*
X17360900Y-7716520D01*
X17360900Y-7716520D01*
X17360900Y-7716520D01*
X17360900Y-7716520D01*
X17360900Y-7716520D01*
X17360900Y-7716520D01*
X17360900Y-7716520D01*
X17360900Y-7716520D01*
X17360900Y-7716520D01*
X17360900Y-7716520D01*
X17360900Y-7716520D01*
X17360900Y-7716520D01*
X17360900Y-7716520D01*
X17360900Y-7716520D01*
X17360900Y-7716520D01*
X17360900Y-7716520D01*
X17360900Y-7716520D01*
X17360900Y-7716520D01*
X17360900Y-7716520D01*
X17360900Y-7716520D01*
X17360900Y-7716520D01*
X17360900Y-7716520D01*
X17360900Y-7716520D01*
X17360900Y-7716520D01*
X17360900Y-7716520D01*
X17360900Y-7716520D01*
X17360900Y-7716520D01*
X17360900Y-7716520D01*
X17360900Y-7716520D01*
X17360900Y-7780020D02*
X17360900Y-7780020D01*
X17360900Y-7780020D01*
X17360900Y-7780020D01*
X17360900Y-7780020D01*
X17360900Y-7780020D01*
X17360900Y-7780020D01*
X17360900Y-7780020D01*
X17360900Y-7780020D01*
X17360900Y-7780020D01*
X17360900Y-7780020D01*
X17360900Y-7780020D01*
X17360900Y-7780020D01*
X17360900Y-7780020D01*
X17360900Y-7780020D01*
X17360900Y-7780020D01*
X17360900Y-7780020D01*
X17360900Y-7780020D01*
X17360900Y-7780020D01*
X17360900Y-7780020D01*
X17360900Y-7780020D01*
X17360900Y-7780020D01*
X17360900Y-7780020D01*
X17360900Y-7780020D01*
X17360900Y-7780020D01*
X17360900Y-7780020D01*
X17360900Y-7780020D01*
X17360900Y-7780020D01*
X17360900Y-7780020D01*
X17360900Y-7780020D01*
X17360900Y-7780020D01*
X17360900Y-7780020D01*
X17360900Y-7780020D01*
X17360900Y-7780020D01*
X17360900Y-7780020D01*
X17360900Y-7780020D01*
X17360900Y-7780020D01*
X17360900Y-7780020D02*
X17360900Y-7780020D01*
X17360900Y-7780020D01*
X17360900Y-7780020D01*
X17360900Y-7780020D01*
X17360900Y-7780020D01*
X17360900Y-7780020D01*
X17360900Y-7780020D01*
X17360900Y-7780020D01*
X17360900Y-7780020D01*
X17360900Y-7780020D01*
X17360900Y-7780020D01*
X17360900Y-7780020D01*
X17360900Y-7780020D01*
X17360900Y-7780020D01*
X17360900Y-7780020D01*
X17360900Y-7780020D01*
X17360900Y-7780020D01*
X17360900Y-7780020D01*
X17360900Y-7780020D01*
X17360900Y-7780020D01*
X17360900Y-7780020D01*
X17360900Y-7780020D01*
X17360900Y-7780020D01*
X17360900Y-7780020D01*
X17360900Y-7780020D01*
X17360900Y-7780020D01*
X17360900Y-7780020D01*
X17360900Y-7780020D01*
X17360900Y-7780020D01*
X17360900Y-7780020D01*
X17360900Y-7780020D01*
X17360900Y-7780020D01*
X17360900Y-7780020D01*
X17360900Y-7780020D01*
X17360900Y-7780020D01*
X17360900Y-7780020D01*
D10*
X17397904Y-5183044D02*
G75*
G02*
X17498060Y-5011420I197116J4D01*
G01*
X17399000Y-6921500D02*
G75*
G02*
X17272000Y-7048500I-127000J0D01*
G01*
X17399000Y-6921500D02*
X17397904Y-5183044D01*
X17399000Y-9461500D02*
G75*
G02*
X17287240Y-9639299I-197310J0D01*
G01*
X17399000Y-9461500D02*
X17399000Y-7937500D01*
X17498060Y-5011420D02*
X18542000Y-4229100D01*
X18542000Y-4229100D02*
X22161500Y-3238500D01*
X21850493Y-11430000D02*
X15951200Y-12153900D01*
X22161500Y-3238500D02*
X27609800Y-3242484D01*
X22225000Y-11075374D02*
G75*
G02*
X21850494Y-11430002I-480390J132254D01*
G01*
X22231061Y-11060861D02*
X22225000Y-11075374D01*
X22231061Y-11060860D02*
G75*
G02*
X23247493Y-10350503I1016429J-372010D01*
G01*
X22453600Y-9055100D02*
X25730200Y-9055100D01*
X25730200Y-10121900D01*
X22453600Y-10121900D01*
X22453600Y-9055100D01*
X27609800Y-3242484D02*
G75*
G02*
X27813006Y-3445684I0J-203206D01*
G01*
X27609800Y-10350500D02*
X23247493Y-10350500D01*
X27813000Y-3445684D02*
X27813000Y-10147300D01*
X27813000Y-10147300D02*
G75*
G02*
X27609800Y-10350500I-203200J0D01*
G01*
D12*
D10*
X2417000Y-4846000D02*
X2457000Y-4886000D01*
X2457000Y-4846000D02*
X2417000Y-4886000D01*
X2520000Y-4845031D02*
X2560000Y-4885031D01*
X2560000Y-4845031D02*
X2520000Y-4885031D01*
X2544985Y-4360985D02*
X2584985Y-4400985D01*
X2584985Y-4360985D02*
X2544985Y-4400985D01*
X2623250Y-4845750D02*
X2663250Y-4885750D01*
X2663250Y-4845750D02*
X2623250Y-4885750D01*
X2872135Y-4847865D02*
X2912135Y-4887865D01*
X2912135Y-4847865D02*
X2872135Y-4887865D01*
X3155000Y-6520500D02*
X3195000Y-6560500D01*
X3195000Y-6520500D02*
X3155000Y-6560500D01*
X3155000Y-8235000D02*
X3195000Y-8275000D01*
X3195000Y-8235000D02*
X3155000Y-8275000D01*
X3155000Y-9922000D02*
X3195000Y-9962000D01*
X3195000Y-9922000D02*
X3155000Y-9962000D01*
X4107500Y-3853500D02*
X4147500Y-3893500D01*
X4147500Y-3853500D02*
X4107500Y-3893500D01*
X4933000Y-5250500D02*
X4973000Y-5290500D01*
X4973000Y-5250500D02*
X4933000Y-5290500D01*
X4933000Y-6965000D02*
X4973000Y-7005000D01*
X4973000Y-6965000D02*
X4933000Y-7005000D01*
X4933000Y-8679500D02*
X4973000Y-8719500D01*
X4973000Y-8679500D02*
X4933000Y-8719500D01*
X5079000Y-4449000D02*
X5119000Y-4489000D01*
X5119000Y-4449000D02*
X5079000Y-4489000D01*
X6037000Y-6688000D02*
X6077000Y-6728000D01*
X6077000Y-6688000D02*
X6037000Y-6728000D01*
X6584000Y-8489000D02*
X6624000Y-8529000D01*
X6624000Y-8489000D02*
X6584000Y-8529000D01*
X6711000Y-5005450D02*
X6751000Y-5045450D01*
X6751000Y-5005450D02*
X6711000Y-5045450D01*
X6711000Y-8489000D02*
X6751000Y-8529000D01*
X6751000Y-8489000D02*
X6711000Y-8529000D01*
X6774500Y-4552000D02*
X6814500Y-4592000D01*
X6814500Y-4552000D02*
X6774500Y-4592000D01*
X6774500Y-6266500D02*
X6814500Y-6306500D01*
X6814500Y-6266500D02*
X6774500Y-6306500D01*
X6774500Y-7981000D02*
X6814500Y-8021000D01*
X6814500Y-7981000D02*
X6774500Y-8021000D01*
X6838000Y-4933000D02*
X6878000Y-4973000D01*
X6878000Y-4933000D02*
X6838000Y-4973000D01*
X6838000Y-8489000D02*
X6878000Y-8529000D01*
X6878000Y-8489000D02*
X6838000Y-8529000D01*
X6965000Y-8552500D02*
X7005000Y-8592500D01*
X7005000Y-8552500D02*
X6965000Y-8592500D01*
X7789000Y-7479000D02*
X7829000Y-7519000D01*
X7829000Y-7479000D02*
X7789000Y-7519000D01*
X8552500Y-4298000D02*
X8592500Y-4338000D01*
X8592500Y-4298000D02*
X8552500Y-4338000D01*
X8552500Y-5377500D02*
X8592500Y-5417500D01*
X8592500Y-5377500D02*
X8552500Y-5417500D01*
X8552500Y-7092000D02*
X8592500Y-7132000D01*
X8592500Y-7092000D02*
X8552500Y-7132000D01*
X8616000Y-8806500D02*
X8656000Y-8846500D01*
X8656000Y-8806500D02*
X8616000Y-8846500D01*
X8618380Y-4373166D02*
X8658380Y-4413166D01*
X8658380Y-4373166D02*
X8618380Y-4413166D01*
X9536000Y-8590000D02*
X9576000Y-8630000D01*
X9576000Y-8590000D02*
X9536000Y-8630000D01*
X9632000Y-10394000D02*
X9672000Y-10434000D01*
X9672000Y-10394000D02*
X9632000Y-10434000D01*
X10330500Y-5568000D02*
X10370500Y-5608000D01*
X10370500Y-5568000D02*
X10330500Y-5608000D01*
X10330500Y-7282500D02*
X10370500Y-7322500D01*
X10370500Y-7282500D02*
X10330500Y-7322500D01*
X10394000Y-8906000D02*
X10434000Y-8946000D01*
X10434000Y-8906000D02*
X10394000Y-8946000D01*
X11410000Y-5123500D02*
X11450000Y-5163500D01*
X11450000Y-5123500D02*
X11410000Y-5163500D01*
X11600500Y-10394000D02*
X11640500Y-10434000D01*
X11640500Y-10394000D02*
X11600500Y-10434000D01*
X11664000Y-5123500D02*
X11704000Y-5163500D01*
X11704000Y-5123500D02*
X11664000Y-5163500D01*
X11664000Y-5758500D02*
X11704000Y-5798500D01*
X11704000Y-5758500D02*
X11664000Y-5798500D01*
X11664000Y-7282500D02*
X11704000Y-7322500D01*
X11704000Y-7282500D02*
X11664000Y-7322500D01*
X11664000Y-8044500D02*
X11704000Y-8084500D01*
X11704000Y-8044500D02*
X11664000Y-8084500D01*
X11664000Y-8806500D02*
X11704000Y-8846500D01*
X11704000Y-8806500D02*
X11664000Y-8846500D01*
X11665397Y-9568500D02*
X11705397Y-9608500D01*
X11705397Y-9568500D02*
X11665397Y-9608500D01*
X11667675Y-6524175D02*
X11707675Y-6564175D01*
X11707675Y-6524175D02*
X11667675Y-6564175D01*
X11918000Y-5123500D02*
X11958000Y-5163500D01*
X11958000Y-5123500D02*
X11918000Y-5163500D01*
X11918000Y-5758500D02*
X11958000Y-5798500D01*
X11958000Y-5758500D02*
X11918000Y-5798500D01*
X11918000Y-6520500D02*
X11958000Y-6560500D01*
X11958000Y-6520500D02*
X11918000Y-6560500D01*
X11918000Y-7282500D02*
X11958000Y-7322500D01*
X11958000Y-7282500D02*
X11918000Y-7322500D01*
X11918000Y-8044500D02*
X11958000Y-8084500D01*
X11958000Y-8044500D02*
X11918000Y-8084500D01*
X11918000Y-8806500D02*
X11958000Y-8846500D01*
X11958000Y-8806500D02*
X11918000Y-8846500D01*
X11919225Y-9568500D02*
X11959225Y-9608500D01*
X11959225Y-9568500D02*
X11919225Y-9608500D01*
X12172000Y-5123500D02*
X12212000Y-5163500D01*
X12212000Y-5123500D02*
X12172000Y-5163500D01*
X12172000Y-5758500D02*
X12212000Y-5798500D01*
X12212000Y-5758500D02*
X12172000Y-5798500D01*
X12172000Y-6520500D02*
X12212000Y-6560500D01*
X12212000Y-6520500D02*
X12172000Y-6560500D01*
X12172000Y-7282500D02*
X12212000Y-7322500D01*
X12212000Y-7282500D02*
X12172000Y-7322500D01*
X12172000Y-8044500D02*
X12212000Y-8084500D01*
X12212000Y-8044500D02*
X12172000Y-8084500D01*
X12172000Y-8806500D02*
X12212000Y-8846500D01*
X12212000Y-8806500D02*
X12172000Y-8846500D01*
X12173225Y-9568500D02*
X12213225Y-9608500D01*
X12213225Y-9568500D02*
X12173225Y-9608500D01*
X13378500Y-10902000D02*
X13418500Y-10942000D01*
X13418500Y-10902000D02*
X13378500Y-10942000D01*
X16299500Y-10965500D02*
X16339500Y-11005500D01*
X16339500Y-10965500D02*
X16299500Y-11005500D01*
X17633000Y-5123500D02*
X17673000Y-5163500D01*
X17673000Y-5123500D02*
X17633000Y-5163500D01*
X17633000Y-5758500D02*
X17673000Y-5798500D01*
X17673000Y-5758500D02*
X17633000Y-5798500D01*
X17633000Y-6520500D02*
X17673000Y-6560500D01*
X17673000Y-6520500D02*
X17633000Y-6560500D01*
X17633000Y-7282500D02*
X17673000Y-7322500D01*
X17673000Y-7282500D02*
X17633000Y-7322500D01*
X17633000Y-8044500D02*
X17673000Y-8084500D01*
X17673000Y-8044500D02*
X17633000Y-8084500D01*
X17633000Y-8806500D02*
X17673000Y-8846500D01*
X17673000Y-8806500D02*
X17633000Y-8846500D01*
X17633000Y-9568500D02*
X17673000Y-9608500D01*
X17673000Y-9568500D02*
X17633000Y-9608500D01*
X17887000Y-5123500D02*
X17927000Y-5163500D01*
X17927000Y-5123500D02*
X17887000Y-5163500D01*
X17887000Y-5758500D02*
X17927000Y-5798500D01*
X17927000Y-5758500D02*
X17887000Y-5798500D01*
X17887000Y-6520500D02*
X17927000Y-6560500D01*
X17927000Y-6520500D02*
X17887000Y-6560500D01*
X17887000Y-7282500D02*
X17927000Y-7322500D01*
X17927000Y-7282500D02*
X17887000Y-7322500D01*
X17887000Y-8044500D02*
X17927000Y-8084500D01*
X17927000Y-8044500D02*
X17887000Y-8084500D01*
X17887000Y-8806500D02*
X17927000Y-8846500D01*
X17927000Y-8806500D02*
X17887000Y-8846500D01*
X17887000Y-9568500D02*
X17927000Y-9608500D01*
X17927000Y-9568500D02*
X17887000Y-9608500D01*
X18141000Y-5123500D02*
X18181000Y-5163500D01*
X18181000Y-5123500D02*
X18141000Y-5163500D01*
X18141000Y-5758500D02*
X18181000Y-5798500D01*
X18181000Y-5758500D02*
X18141000Y-5798500D01*
X18141000Y-6520500D02*
X18181000Y-6560500D01*
X18181000Y-6520500D02*
X18141000Y-6560500D01*
X18141000Y-7282500D02*
X18181000Y-7322500D01*
X18181000Y-7282500D02*
X18141000Y-7322500D01*
X18141000Y-8044500D02*
X18181000Y-8084500D01*
X18181000Y-8044500D02*
X18141000Y-8084500D01*
X18141000Y-8806500D02*
X18181000Y-8846500D01*
X18181000Y-8806500D02*
X18141000Y-8846500D01*
X18141000Y-9568500D02*
X18181000Y-9608500D01*
X18181000Y-9568500D02*
X18141000Y-9608500D01*
X18141000Y-10394000D02*
X18181000Y-10434000D01*
X18181000Y-10394000D02*
X18141000Y-10434000D01*
X18395000Y-5123500D02*
X18435000Y-5163500D01*
X18435000Y-5123500D02*
X18395000Y-5163500D01*
X19347500Y-8997000D02*
X19387500Y-9037000D01*
X19387500Y-8997000D02*
X19347500Y-9037000D01*
X19411000Y-5631500D02*
X19451000Y-5671500D01*
X19451000Y-5631500D02*
X19411000Y-5671500D01*
X19411000Y-7282500D02*
X19451000Y-7322500D01*
X19451000Y-7282500D02*
X19411000Y-7322500D01*
X20109500Y-10394000D02*
X20149500Y-10434000D01*
X20149500Y-10394000D02*
X20109500Y-10434000D01*
X20873000Y-7470000D02*
X20913000Y-7510000D01*
X20913000Y-7470000D02*
X20873000Y-7510000D01*
X21062000Y-4234500D02*
X21102000Y-4274500D01*
X21102000Y-4234500D02*
X21062000Y-4274500D01*
X21125500Y-8806500D02*
X21165500Y-8846500D01*
X21165500Y-8806500D02*
X21125500Y-8846500D01*
X21137166Y-4162050D02*
X21177166Y-4202050D01*
X21177166Y-4162050D02*
X21137166Y-4202050D01*
X21189000Y-5377500D02*
X21229000Y-5417500D01*
X21229000Y-5377500D02*
X21189000Y-5417500D01*
X21189000Y-7092000D02*
X21229000Y-7132000D01*
X21229000Y-7092000D02*
X21189000Y-7132000D01*
X21291531Y-9632000D02*
X21331531Y-9672000D01*
X21331531Y-9632000D02*
X21291531Y-9672000D01*
X21820000Y-9631000D02*
X21860000Y-9671000D01*
X21860000Y-9631000D02*
X21820000Y-9671000D01*
X22782000Y-7158000D02*
X22822000Y-7198000D01*
X22822000Y-7158000D02*
X22782000Y-7198000D01*
X22967000Y-7981000D02*
X23007000Y-8021000D01*
X23007000Y-7981000D02*
X22967000Y-8021000D01*
X23030500Y-4552000D02*
X23070500Y-4592000D01*
X23070500Y-4552000D02*
X23030500Y-4592000D01*
X23030500Y-6266500D02*
X23070500Y-6306500D01*
X23070500Y-6266500D02*
X23030500Y-6306500D01*
X23157500Y-8552500D02*
X23197500Y-8592500D01*
X23197500Y-8552500D02*
X23157500Y-8592500D01*
X23221000Y-8489000D02*
X23261000Y-8529000D01*
X23261000Y-8489000D02*
X23221000Y-8529000D01*
X23348000Y-8489000D02*
X23388000Y-8529000D01*
X23388000Y-8489000D02*
X23348000Y-8529000D01*
X23475000Y-4933000D02*
X23515000Y-4973000D01*
X23515000Y-4933000D02*
X23475000Y-4973000D01*
X23475000Y-8489000D02*
X23515000Y-8529000D01*
X23515000Y-8489000D02*
X23475000Y-8529000D01*
X23550816Y-5005450D02*
X23590816Y-5045450D01*
X23590816Y-5005450D02*
X23550816Y-5045450D01*
X23573000Y-6681000D02*
X23613000Y-6721000D01*
X23613000Y-6681000D02*
X23573000Y-6721000D01*
X24737824Y-4416050D02*
X24777824Y-4456050D01*
X24777824Y-4416050D02*
X24737824Y-4456050D01*
X24745000Y-8679500D02*
X24785000Y-8719500D01*
X24785000Y-8679500D02*
X24745000Y-8719500D01*
X24808500Y-4488500D02*
X24848500Y-4528500D01*
X24848500Y-4488500D02*
X24808500Y-4528500D01*
X24808500Y-5250500D02*
X24848500Y-5290500D01*
X24848500Y-5250500D02*
X24808500Y-5290500D01*
X24808500Y-6965000D02*
X24848500Y-7005000D01*
X24848500Y-6965000D02*
X24808500Y-7005000D01*
X25824500Y-4171000D02*
X25864500Y-4211000D01*
X25864500Y-4171000D02*
X25824500Y-4211000D01*
X26523000Y-9949500D02*
X26563000Y-9989500D01*
X26563000Y-9949500D02*
X26523000Y-9989500D01*
X26650000Y-6584000D02*
X26690000Y-6624000D01*
X26690000Y-6584000D02*
X26650000Y-6624000D01*
X26650000Y-8298500D02*
X26690000Y-8338500D01*
X26690000Y-8298500D02*
X26650000Y-8338500D01*
X26653711Y-3595711D02*
X26693711Y-3635711D01*
X26693711Y-3595711D02*
X26653711Y-3635711D01*
X26777000Y-4298000D02*
X26817000Y-4338000D01*
X26817000Y-4298000D02*
X26777000Y-4338000D01*
X26777000Y-4615500D02*
X26817000Y-4655500D01*
X26817000Y-4615500D02*
X26777000Y-4655500D01*
X26825495Y-4210545D02*
X26865495Y-4250545D01*
X26865495Y-4210545D02*
X26825495Y-4250545D01*
X26909000Y-3597000D02*
X26949000Y-3637000D01*
X26949000Y-3597000D02*
X26909000Y-3637000D01*
X27160500Y-3595500D02*
X27200500Y-3635500D01*
X27200500Y-3595500D02*
X27160500Y-3635500D01*
X27250000Y-4134000D02*
X27290000Y-4174000D01*
X27290000Y-4134000D02*
X27250000Y-4174000D01*
X27414000Y-3596000D02*
X27454000Y-3636000D01*
X27454000Y-3596000D02*
X27414000Y-3636000D01*
D12*
X2287777Y-12472613D02*
X2287777Y-12272613D01*
X2287777Y-12272613D02*
X2335396Y-12272613D01*
X2335396Y-12272613D02*
X2363967Y-12282137D01*
X2363967Y-12282137D02*
X2383015Y-12301184D01*
X2383015Y-12301184D02*
X2392539Y-12320232D01*
X2392539Y-12320232D02*
X2402063Y-12358327D01*
X2402063Y-12358327D02*
X2402063Y-12386899D01*
X2402063Y-12386899D02*
X2392539Y-12424994D01*
X2392539Y-12424994D02*
X2383015Y-12444041D01*
X2383015Y-12444041D02*
X2363967Y-12463089D01*
X2363967Y-12463089D02*
X2335396Y-12472613D01*
X2335396Y-12472613D02*
X2287777Y-12472613D01*
X2487777Y-12472613D02*
X2487777Y-12339279D01*
X2487777Y-12377375D02*
X2497301Y-12358327D01*
X2497301Y-12358327D02*
X2506824Y-12348803D01*
X2506824Y-12348803D02*
X2525872Y-12339279D01*
X2525872Y-12339279D02*
X2544920Y-12339279D01*
X2611586Y-12472613D02*
X2611586Y-12339279D01*
X2611586Y-12272613D02*
X2602063Y-12282137D01*
X2602063Y-12282137D02*
X2611586Y-12291660D01*
X2611586Y-12291660D02*
X2621110Y-12282137D01*
X2621110Y-12282137D02*
X2611586Y-12272613D01*
X2611586Y-12272613D02*
X2611586Y-12291660D01*
X2735396Y-12472613D02*
X2716348Y-12463089D01*
X2716348Y-12463089D02*
X2706824Y-12444041D01*
X2706824Y-12444041D02*
X2706824Y-12272613D01*
X2840158Y-12472613D02*
X2821110Y-12463089D01*
X2821110Y-12463089D02*
X2811586Y-12444041D01*
X2811586Y-12444041D02*
X2811586Y-12272613D01*
X3068729Y-12472613D02*
X3068729Y-12272613D01*
X3068729Y-12272613D02*
X3135396Y-12415470D01*
X3135396Y-12415470D02*
X3202062Y-12272613D01*
X3202062Y-12272613D02*
X3202062Y-12472613D01*
X3383015Y-12472613D02*
X3383015Y-12367851D01*
X3383015Y-12367851D02*
X3373491Y-12348803D01*
X3373491Y-12348803D02*
X3354443Y-12339279D01*
X3354443Y-12339279D02*
X3316348Y-12339279D01*
X3316348Y-12339279D02*
X3297301Y-12348803D01*
X3383015Y-12463089D02*
X3363967Y-12472613D01*
X3363967Y-12472613D02*
X3316348Y-12472613D01*
X3316348Y-12472613D02*
X3297301Y-12463089D01*
X3297301Y-12463089D02*
X3287777Y-12444041D01*
X3287777Y-12444041D02*
X3287777Y-12424994D01*
X3287777Y-12424994D02*
X3297301Y-12405946D01*
X3297301Y-12405946D02*
X3316348Y-12396422D01*
X3316348Y-12396422D02*
X3363967Y-12396422D01*
X3363967Y-12396422D02*
X3383015Y-12386899D01*
X3478253Y-12339279D02*
X3478253Y-12539279D01*
X3478253Y-12348803D02*
X3497301Y-12339279D01*
X3497301Y-12339279D02*
X3535396Y-12339279D01*
X3535396Y-12339279D02*
X3554443Y-12348803D01*
X3554443Y-12348803D02*
X3563967Y-12358327D01*
X3563967Y-12358327D02*
X3573491Y-12377375D01*
X3573491Y-12377375D02*
X3573491Y-12434518D01*
X3573491Y-12434518D02*
X3563967Y-12453565D01*
X3563967Y-12453565D02*
X3554443Y-12463089D01*
X3554443Y-12463089D02*
X3535396Y-12472613D01*
X3535396Y-12472613D02*
X3497301Y-12472613D01*
X3497301Y-12472613D02*
X3478253Y-12463089D01*
X3659205Y-12453565D02*
X3668729Y-12463089D01*
X3668729Y-12463089D02*
X3659205Y-12472613D01*
X3659205Y-12472613D02*
X3649682Y-12463089D01*
X3649682Y-12463089D02*
X3659205Y-12453565D01*
X3659205Y-12453565D02*
X3659205Y-12472613D01*
X3659205Y-12348803D02*
X3668729Y-12358327D01*
X3668729Y-12358327D02*
X3659205Y-12367851D01*
X3659205Y-12367851D02*
X3649682Y-12358327D01*
X3649682Y-12358327D02*
X3659205Y-12348803D01*
X3659205Y-12348803D02*
X3659205Y-12367851D01*
D10*
X1987000Y-12781129D02*
X2027000Y-12821129D01*
X2027000Y-12781129D02*
X1987000Y-12821129D01*
D12*
X2325872Y-12692613D02*
X2344920Y-12692613D01*
X2344920Y-12692613D02*
X2363967Y-12702137D01*
X2363967Y-12702137D02*
X2373491Y-12711660D01*
X2373491Y-12711660D02*
X2383015Y-12730708D01*
X2383015Y-12730708D02*
X2392539Y-12768803D01*
X2392539Y-12768803D02*
X2392539Y-12816422D01*
X2392539Y-12816422D02*
X2383015Y-12854518D01*
X2383015Y-12854518D02*
X2373491Y-12873565D01*
X2373491Y-12873565D02*
X2363967Y-12883089D01*
X2363967Y-12883089D02*
X2344920Y-12892613D01*
X2344920Y-12892613D02*
X2325872Y-12892613D01*
X2325872Y-12892613D02*
X2306824Y-12883089D01*
X2306824Y-12883089D02*
X2297301Y-12873565D01*
X2297301Y-12873565D02*
X2287777Y-12854518D01*
X2287777Y-12854518D02*
X2278253Y-12816422D01*
X2278253Y-12816422D02*
X2278253Y-12768803D01*
X2278253Y-12768803D02*
X2287777Y-12730708D01*
X2287777Y-12730708D02*
X2297301Y-12711660D01*
X2297301Y-12711660D02*
X2306824Y-12702137D01*
X2306824Y-12702137D02*
X2325872Y-12692613D01*
X2478253Y-12873565D02*
X2487777Y-12883089D01*
X2487777Y-12883089D02*
X2478253Y-12892613D01*
X2478253Y-12892613D02*
X2468729Y-12883089D01*
X2468729Y-12883089D02*
X2478253Y-12873565D01*
X2478253Y-12873565D02*
X2478253Y-12892613D01*
X2659205Y-12759279D02*
X2659205Y-12892613D01*
X2611586Y-12683089D02*
X2563967Y-12825946D01*
X2563967Y-12825946D02*
X2687777Y-12825946D01*
X2802062Y-12692613D02*
X2821110Y-12692613D01*
X2821110Y-12692613D02*
X2840158Y-12702137D01*
X2840158Y-12702137D02*
X2849682Y-12711660D01*
X2849682Y-12711660D02*
X2859205Y-12730708D01*
X2859205Y-12730708D02*
X2868729Y-12768803D01*
X2868729Y-12768803D02*
X2868729Y-12816422D01*
X2868729Y-12816422D02*
X2859205Y-12854518D01*
X2859205Y-12854518D02*
X2849682Y-12873565D01*
X2849682Y-12873565D02*
X2840158Y-12883089D01*
X2840158Y-12883089D02*
X2821110Y-12892613D01*
X2821110Y-12892613D02*
X2802062Y-12892613D01*
X2802062Y-12892613D02*
X2783015Y-12883089D01*
X2783015Y-12883089D02*
X2773491Y-12873565D01*
X2773491Y-12873565D02*
X2763967Y-12854518D01*
X2763967Y-12854518D02*
X2754444Y-12816422D01*
X2754444Y-12816422D02*
X2754444Y-12768803D01*
X2754444Y-12768803D02*
X2763967Y-12730708D01*
X2763967Y-12730708D02*
X2773491Y-12711660D01*
X2773491Y-12711660D02*
X2783015Y-12702137D01*
X2783015Y-12702137D02*
X2802062Y-12692613D01*
X2992539Y-12692613D02*
X3011586Y-12692613D01*
X3011586Y-12692613D02*
X3030634Y-12702137D01*
X3030634Y-12702137D02*
X3040158Y-12711660D01*
X3040158Y-12711660D02*
X3049682Y-12730708D01*
X3049682Y-12730708D02*
X3059205Y-12768803D01*
X3059205Y-12768803D02*
X3059205Y-12816422D01*
X3059205Y-12816422D02*
X3049682Y-12854518D01*
X3049682Y-12854518D02*
X3040158Y-12873565D01*
X3040158Y-12873565D02*
X3030634Y-12883089D01*
X3030634Y-12883089D02*
X3011586Y-12892613D01*
X3011586Y-12892613D02*
X2992539Y-12892613D01*
X2992539Y-12892613D02*
X2973491Y-12883089D01*
X2973491Y-12883089D02*
X2963967Y-12873565D01*
X2963967Y-12873565D02*
X2954443Y-12854518D01*
X2954443Y-12854518D02*
X2944920Y-12816422D01*
X2944920Y-12816422D02*
X2944920Y-12768803D01*
X2944920Y-12768803D02*
X2954443Y-12730708D01*
X2954443Y-12730708D02*
X2963967Y-12711660D01*
X2963967Y-12711660D02*
X2973491Y-12702137D01*
X2973491Y-12702137D02*
X2992539Y-12692613D01*
X3144920Y-12892613D02*
X3144920Y-12759279D01*
X3144920Y-12778327D02*
X3154443Y-12768803D01*
X3154443Y-12768803D02*
X3173491Y-12759279D01*
X3173491Y-12759279D02*
X3202063Y-12759279D01*
X3202063Y-12759279D02*
X3221110Y-12768803D01*
X3221110Y-12768803D02*
X3230634Y-12787851D01*
X3230634Y-12787851D02*
X3230634Y-12892613D01*
X3230634Y-12787851D02*
X3240158Y-12768803D01*
X3240158Y-12768803D02*
X3259205Y-12759279D01*
X3259205Y-12759279D02*
X3287777Y-12759279D01*
X3287777Y-12759279D02*
X3306824Y-12768803D01*
X3306824Y-12768803D02*
X3316348Y-12787851D01*
X3316348Y-12787851D02*
X3316348Y-12892613D01*
X3411586Y-12892613D02*
X3411586Y-12759279D01*
X3411586Y-12778327D02*
X3421110Y-12768803D01*
X3421110Y-12768803D02*
X3440158Y-12759279D01*
X3440158Y-12759279D02*
X3468729Y-12759279D01*
X3468729Y-12759279D02*
X3487777Y-12768803D01*
X3487777Y-12768803D02*
X3497301Y-12787851D01*
X3497301Y-12787851D02*
X3497301Y-12892613D01*
X3497301Y-12787851D02*
X3506824Y-12768803D01*
X3506824Y-12768803D02*
X3525872Y-12759279D01*
X3525872Y-12759279D02*
X3554443Y-12759279D01*
X3554443Y-12759279D02*
X3573491Y-12768803D01*
X3573491Y-12768803D02*
X3583015Y-12787851D01*
X3583015Y-12787851D02*
X3583015Y-12892613D01*
X3973491Y-12683089D02*
X3802063Y-12940232D01*
X4230634Y-12692613D02*
X4249682Y-12692613D01*
X4249682Y-12692613D02*
X4268729Y-12702137D01*
X4268729Y-12702137D02*
X4278253Y-12711660D01*
X4278253Y-12711660D02*
X4287777Y-12730708D01*
X4287777Y-12730708D02*
X4297301Y-12768803D01*
X4297301Y-12768803D02*
X4297301Y-12816422D01*
X4297301Y-12816422D02*
X4287777Y-12854518D01*
X4287777Y-12854518D02*
X4278253Y-12873565D01*
X4278253Y-12873565D02*
X4268729Y-12883089D01*
X4268729Y-12883089D02*
X4249682Y-12892613D01*
X4249682Y-12892613D02*
X4230634Y-12892613D01*
X4230634Y-12892613D02*
X4211587Y-12883089D01*
X4211587Y-12883089D02*
X4202063Y-12873565D01*
X4202063Y-12873565D02*
X4192539Y-12854518D01*
X4192539Y-12854518D02*
X4183015Y-12816422D01*
X4183015Y-12816422D02*
X4183015Y-12768803D01*
X4183015Y-12768803D02*
X4192539Y-12730708D01*
X4192539Y-12730708D02*
X4202063Y-12711660D01*
X4202063Y-12711660D02*
X4211587Y-12702137D01*
X4211587Y-12702137D02*
X4230634Y-12692613D01*
X4383015Y-12873565D02*
X4392539Y-12883089D01*
X4392539Y-12883089D02*
X4383015Y-12892613D01*
X4383015Y-12892613D02*
X4373491Y-12883089D01*
X4373491Y-12883089D02*
X4383015Y-12873565D01*
X4383015Y-12873565D02*
X4383015Y-12892613D01*
X4516348Y-12692613D02*
X4535396Y-12692613D01*
X4535396Y-12692613D02*
X4554444Y-12702137D01*
X4554444Y-12702137D02*
X4563968Y-12711660D01*
X4563968Y-12711660D02*
X4573491Y-12730708D01*
X4573491Y-12730708D02*
X4583015Y-12768803D01*
X4583015Y-12768803D02*
X4583015Y-12816422D01*
X4583015Y-12816422D02*
X4573491Y-12854518D01*
X4573491Y-12854518D02*
X4563968Y-12873565D01*
X4563968Y-12873565D02*
X4554444Y-12883089D01*
X4554444Y-12883089D02*
X4535396Y-12892613D01*
X4535396Y-12892613D02*
X4516348Y-12892613D01*
X4516348Y-12892613D02*
X4497301Y-12883089D01*
X4497301Y-12883089D02*
X4487777Y-12873565D01*
X4487777Y-12873565D02*
X4478253Y-12854518D01*
X4478253Y-12854518D02*
X4468729Y-12816422D01*
X4468729Y-12816422D02*
X4468729Y-12768803D01*
X4468729Y-12768803D02*
X4478253Y-12730708D01*
X4478253Y-12730708D02*
X4487777Y-12711660D01*
X4487777Y-12711660D02*
X4497301Y-12702137D01*
X4497301Y-12702137D02*
X4516348Y-12692613D01*
X4773491Y-12892613D02*
X4659206Y-12892613D01*
X4716348Y-12892613D02*
X4716348Y-12692613D01*
X4716348Y-12692613D02*
X4697301Y-12721184D01*
X4697301Y-12721184D02*
X4678253Y-12740232D01*
X4678253Y-12740232D02*
X4659206Y-12749756D01*
X4954444Y-12692613D02*
X4859206Y-12692613D01*
X4859206Y-12692613D02*
X4849682Y-12787851D01*
X4849682Y-12787851D02*
X4859206Y-12778327D01*
X4859206Y-12778327D02*
X4878253Y-12768803D01*
X4878253Y-12768803D02*
X4925872Y-12768803D01*
X4925872Y-12768803D02*
X4944920Y-12778327D01*
X4944920Y-12778327D02*
X4954444Y-12787851D01*
X4954444Y-12787851D02*
X4963968Y-12806899D01*
X4963968Y-12806899D02*
X4963968Y-12854518D01*
X4963968Y-12854518D02*
X4954444Y-12873565D01*
X4954444Y-12873565D02*
X4944920Y-12883089D01*
X4944920Y-12883089D02*
X4925872Y-12892613D01*
X4925872Y-12892613D02*
X4878253Y-12892613D01*
X4878253Y-12892613D02*
X4859206Y-12883089D01*
X4859206Y-12883089D02*
X4849682Y-12873565D01*
X5030634Y-12692613D02*
X5163968Y-12692613D01*
X5163968Y-12692613D02*
X5078253Y-12892613D01*
X5230634Y-12692613D02*
X5230634Y-12730708D01*
X5306825Y-12692613D02*
X5306825Y-12730708D01*
X5602063Y-12968803D02*
X5592539Y-12959279D01*
X5592539Y-12959279D02*
X5573491Y-12930708D01*
X5573491Y-12930708D02*
X5563968Y-12911660D01*
X5563968Y-12911660D02*
X5554444Y-12883089D01*
X5554444Y-12883089D02*
X5544920Y-12835470D01*
X5544920Y-12835470D02*
X5544920Y-12797375D01*
X5544920Y-12797375D02*
X5554444Y-12749756D01*
X5554444Y-12749756D02*
X5563968Y-12721184D01*
X5563968Y-12721184D02*
X5573491Y-12702137D01*
X5573491Y-12702137D02*
X5592539Y-12673565D01*
X5592539Y-12673565D02*
X5602063Y-12664041D01*
X5783015Y-12892613D02*
X5668729Y-12892613D01*
X5725872Y-12892613D02*
X5725872Y-12692613D01*
X5725872Y-12692613D02*
X5706825Y-12721184D01*
X5706825Y-12721184D02*
X5687777Y-12740232D01*
X5687777Y-12740232D02*
X5668729Y-12749756D01*
X5859206Y-12711660D02*
X5868729Y-12702137D01*
X5868729Y-12702137D02*
X5887777Y-12692613D01*
X5887777Y-12692613D02*
X5935396Y-12692613D01*
X5935396Y-12692613D02*
X5954444Y-12702137D01*
X5954444Y-12702137D02*
X5963968Y-12711660D01*
X5963968Y-12711660D02*
X5973491Y-12730708D01*
X5973491Y-12730708D02*
X5973491Y-12749756D01*
X5973491Y-12749756D02*
X5963968Y-12778327D01*
X5963968Y-12778327D02*
X5849682Y-12892613D01*
X5849682Y-12892613D02*
X5973491Y-12892613D01*
X6049682Y-12711660D02*
X6059206Y-12702137D01*
X6059206Y-12702137D02*
X6078253Y-12692613D01*
X6078253Y-12692613D02*
X6125872Y-12692613D01*
X6125872Y-12692613D02*
X6144920Y-12702137D01*
X6144920Y-12702137D02*
X6154444Y-12711660D01*
X6154444Y-12711660D02*
X6163968Y-12730708D01*
X6163968Y-12730708D02*
X6163968Y-12749756D01*
X6163968Y-12749756D02*
X6154444Y-12778327D01*
X6154444Y-12778327D02*
X6040158Y-12892613D01*
X6040158Y-12892613D02*
X6163968Y-12892613D01*
X6402063Y-12892613D02*
X6402063Y-12692613D01*
X6487777Y-12892613D02*
X6487777Y-12787851D01*
X6487777Y-12787851D02*
X6478253Y-12768803D01*
X6478253Y-12768803D02*
X6459206Y-12759279D01*
X6459206Y-12759279D02*
X6430634Y-12759279D01*
X6430634Y-12759279D02*
X6411587Y-12768803D01*
X6411587Y-12768803D02*
X6402063Y-12778327D01*
X6611587Y-12892613D02*
X6592539Y-12883089D01*
X6592539Y-12883089D02*
X6583015Y-12873565D01*
X6583015Y-12873565D02*
X6573491Y-12854518D01*
X6573491Y-12854518D02*
X6573491Y-12797375D01*
X6573491Y-12797375D02*
X6583015Y-12778327D01*
X6583015Y-12778327D02*
X6592539Y-12768803D01*
X6592539Y-12768803D02*
X6611587Y-12759279D01*
X6611587Y-12759279D02*
X6640158Y-12759279D01*
X6640158Y-12759279D02*
X6659206Y-12768803D01*
X6659206Y-12768803D02*
X6668730Y-12778327D01*
X6668730Y-12778327D02*
X6678253Y-12797375D01*
X6678253Y-12797375D02*
X6678253Y-12854518D01*
X6678253Y-12854518D02*
X6668730Y-12873565D01*
X6668730Y-12873565D02*
X6659206Y-12883089D01*
X6659206Y-12883089D02*
X6640158Y-12892613D01*
X6640158Y-12892613D02*
X6611587Y-12892613D01*
X6792539Y-12892613D02*
X6773491Y-12883089D01*
X6773491Y-12883089D02*
X6763968Y-12864041D01*
X6763968Y-12864041D02*
X6763968Y-12692613D01*
X6944920Y-12883089D02*
X6925872Y-12892613D01*
X6925872Y-12892613D02*
X6887777Y-12892613D01*
X6887777Y-12892613D02*
X6868730Y-12883089D01*
X6868730Y-12883089D02*
X6859206Y-12864041D01*
X6859206Y-12864041D02*
X6859206Y-12787851D01*
X6859206Y-12787851D02*
X6868730Y-12768803D01*
X6868730Y-12768803D02*
X6887777Y-12759279D01*
X6887777Y-12759279D02*
X6925872Y-12759279D01*
X6925872Y-12759279D02*
X6944920Y-12768803D01*
X6944920Y-12768803D02*
X6954444Y-12787851D01*
X6954444Y-12787851D02*
X6954444Y-12806899D01*
X6954444Y-12806899D02*
X6859206Y-12825946D01*
X7030634Y-12883089D02*
X7049682Y-12892613D01*
X7049682Y-12892613D02*
X7087777Y-12892613D01*
X7087777Y-12892613D02*
X7106825Y-12883089D01*
X7106825Y-12883089D02*
X7116349Y-12864041D01*
X7116349Y-12864041D02*
X7116349Y-12854518D01*
X7116349Y-12854518D02*
X7106825Y-12835470D01*
X7106825Y-12835470D02*
X7087777Y-12825946D01*
X7087777Y-12825946D02*
X7059206Y-12825946D01*
X7059206Y-12825946D02*
X7040158Y-12816422D01*
X7040158Y-12816422D02*
X7030634Y-12797375D01*
X7030634Y-12797375D02*
X7030634Y-12787851D01*
X7030634Y-12787851D02*
X7040158Y-12768803D01*
X7040158Y-12768803D02*
X7059206Y-12759279D01*
X7059206Y-12759279D02*
X7087777Y-12759279D01*
X7087777Y-12759279D02*
X7106825Y-12768803D01*
X7183015Y-12968803D02*
X7192539Y-12959279D01*
X7192539Y-12959279D02*
X7211587Y-12930708D01*
X7211587Y-12930708D02*
X7221111Y-12911660D01*
X7221111Y-12911660D02*
X7230634Y-12883089D01*
X7230634Y-12883089D02*
X7240158Y-12835470D01*
X7240158Y-12835470D02*
X7240158Y-12797375D01*
X7240158Y-12797375D02*
X7230634Y-12749756D01*
X7230634Y-12749756D02*
X7221111Y-12721184D01*
X7221111Y-12721184D02*
X7211587Y-12702137D01*
X7211587Y-12702137D02*
X7192539Y-12673565D01*
X7192539Y-12673565D02*
X7183015Y-12664041D01*
M02*
