%TF.GenerationSoftware,KiCad,Pcbnew,10.0.2*%
%TF.CreationDate,2026-05-12T18:23:46+02:00*%
%TF.ProjectId,mnhttn,6d6e6874-746e-42e6-9b69-6361645f7063,rev?*%
%TF.SameCoordinates,Original*%
%TF.FileFunction,Paste,Top*%
%TF.FilePolarity,Positive*%
%FSLAX46Y46*%
G04 Gerber Fmt 4.6, Leading zero omitted, Abs format (unit mm)*
G04 Created by KiCad (PCBNEW 10.0.2) date 2026-05-12 18:23:46*
%MOMM*%
%LPD*%
G01*
G04 APERTURE LIST*
G04 Aperture macros list*
%AMRoundRect*
0 Rectangle with rounded corners*
0 $1 Rounding radius*
0 $2 $3 $4 $5 $6 $7 $8 $9 X,Y pos of 4 corners*
0 Add a 4 corners polygon primitive as box body*
4,1,4,$2,$3,$4,$5,$6,$7,$8,$9,$2,$3,0*
0 Add four circle primitives for the rounded corners*
1,1,$1+$1,$2,$3*
1,1,$1+$1,$4,$5*
1,1,$1+$1,$6,$7*
1,1,$1+$1,$8,$9*
0 Add four rect primitives between the rounded corners*
20,1,$1+$1,$2,$3,$4,$5,0*
20,1,$1+$1,$4,$5,$6,$7,0*
20,1,$1+$1,$6,$7,$8,$9,0*
20,1,$1+$1,$8,$9,$2,$3,0*%
%AMRotRect*
0 Rectangle, with rotation*
0 The origin of the aperture is its center*
0 $1 length*
0 $2 width*
0 $3 Rotation angle, in degrees counterclockwise*
0 Add horizontal line*
21,1,$1,$2,0,0,$3*%
G04 Aperture macros list end*
%ADD10R,0.700000X3.400000*%
%ADD11R,1.600000X3.800000*%
%ADD12R,1.600000X3.000000*%
%ADD13R,1.600000X1.850000*%
%ADD14R,1.600000X2.600000*%
%ADD15R,1.500000X1.800000*%
%ADD16RoundRect,0.250000X-0.500000X0.650000X-0.500000X-0.650000X0.500000X-0.650000X0.500000X0.650000X0*%
%ADD17RotRect,0.700000X3.400000X24.000000*%
%ADD18RotRect,1.600000X3.800000X24.000000*%
%ADD19RotRect,1.600000X3.000000X24.000000*%
%ADD20RotRect,1.600000X1.850000X24.000000*%
%ADD21RotRect,1.600000X2.600000X24.000000*%
%ADD22RotRect,0.700000X1.000000X344.000000*%
%ADD23RotRect,2.800000X1.000000X254.000000*%
%ADD24R,1.800000X1.300000*%
%ADD25RotRect,0.700000X3.400000X352.000000*%
%ADD26RotRect,1.600000X3.800000X352.000000*%
%ADD27RotRect,1.600000X3.000000X352.000000*%
%ADD28RotRect,1.600000X2.600000X352.000000*%
%ADD29RotRect,1.600000X1.850000X352.000000*%
%ADD30O,1.800000X2.750000*%
%ADD31C,1.397000*%
%ADD32RotRect,0.700000X3.400000X8.000000*%
%ADD33RotRect,1.600000X3.800000X8.000000*%
%ADD34RotRect,1.600000X3.000000X8.000000*%
%ADD35RotRect,1.600000X2.600000X8.000000*%
%ADD36RotRect,1.600000X1.850000X8.000000*%
%ADD37RotRect,0.700000X3.400000X336.000000*%
%ADD38RotRect,1.600000X3.800000X336.000000*%
%ADD39RotRect,1.600000X3.000000X336.000000*%
%ADD40RotRect,1.600000X1.850000X336.000000*%
%ADD41RotRect,1.600000X2.600000X336.000000*%
%ADD42RotRect,6.000000X2.000000X262.000000*%
%ADD43RotRect,3.500000X2.000000X262.000000*%
%ADD44RotRect,0.700000X1.000000X16.000000*%
%ADD45RotRect,2.800000X1.000000X286.000000*%
%ADD46RotRect,6.000000X2.000000X278.000000*%
%ADD47RotRect,3.500000X2.000000X278.000000*%
G04 APERTURE END LIST*
D10*
%TO.C,SW_L_1_2*%
X85286000Y-85168800D03*
X87686000Y-85168800D03*
D11*
X79686000Y-78768800D03*
D12*
X79686000Y-87368800D03*
D13*
X92086000Y-77793800D03*
D14*
X92086000Y-82868800D03*
D13*
X92086000Y-87943800D03*
%TD*%
D10*
%TO.C,SW_L_1_0*%
X85286000Y-51168800D03*
X87686000Y-51168800D03*
D11*
X79686000Y-44768800D03*
D12*
X79686000Y-53368800D03*
D13*
X92086000Y-43793800D03*
D14*
X92086000Y-48868800D03*
D13*
X92086000Y-53943800D03*
%TD*%
D15*
%TO.C,D_R_4_0*%
X176530000Y-83390000D03*
D16*
X176530000Y-86790000D03*
%TD*%
D10*
%TO.C,SW_L_4_1*%
X31286000Y-80168800D03*
X33686000Y-80168800D03*
D11*
X25686000Y-73768800D03*
D12*
X25686000Y-82368800D03*
D13*
X38086000Y-72793800D03*
D14*
X38086000Y-77868800D03*
D13*
X38086000Y-82943800D03*
%TD*%
D15*
%TO.C,D_R_0_1*%
X179070000Y-52910000D03*
D16*
X179070000Y-56310000D03*
%TD*%
D15*
%TO.C,D_R_3_1*%
X179070000Y-75770000D03*
D16*
X179070000Y-79170000D03*
%TD*%
D17*
%TO.C,SW_R_0_3*%
X162947367Y-112707197D03*
X165139876Y-111731029D03*
D18*
X155228398Y-109138231D03*
D19*
X158726333Y-116994722D03*
D20*
X166159793Y-103203990D03*
D21*
X168223982Y-107840233D03*
D20*
X170288170Y-112476476D03*
%TD*%
D10*
%TO.C,SW_L_0_2*%
X103286000Y-87168800D03*
X105686000Y-87168800D03*
D11*
X97686000Y-80768800D03*
D12*
X97686000Y-89368800D03*
D13*
X110086000Y-79793800D03*
D14*
X110086000Y-84868800D03*
D13*
X110086000Y-89943800D03*
%TD*%
D22*
%TO.C,SW2*%
X86849286Y-39071588D03*
X83965501Y-38244676D03*
X82523608Y-37831220D03*
D23*
X88911016Y-37686211D03*
X81268985Y-35494894D03*
%TD*%
D10*
%TO.C,SW_L_0_0*%
X103286000Y-53168800D03*
X105686000Y-53168800D03*
D11*
X97686000Y-46768800D03*
D12*
X97686000Y-55368800D03*
D13*
X110086000Y-45793800D03*
D14*
X110086000Y-50868800D03*
D13*
X110086000Y-55943800D03*
%TD*%
D10*
%TO.C,SW_L_2_0*%
X67286000Y-43168800D03*
X69686000Y-43168800D03*
D11*
X61686000Y-36768800D03*
D12*
X61686000Y-45368800D03*
D13*
X74086000Y-35793800D03*
D14*
X74086000Y-40868800D03*
D13*
X74086000Y-45943800D03*
%TD*%
D15*
%TO.C,D_L_3_1*%
X119380000Y-75770000D03*
D16*
X119380000Y-79170000D03*
%TD*%
D10*
%TO.C,SW_L_3_2*%
X49286000Y-84168800D03*
X51686000Y-84168800D03*
D11*
X43686000Y-77768800D03*
D12*
X43686000Y-86368800D03*
D13*
X56086000Y-76793800D03*
D14*
X56086000Y-81868800D03*
D13*
X56086000Y-86943800D03*
%TD*%
D24*
%TO.C,SW3*%
X248995000Y-35080000D03*
X255195000Y-35030000D03*
X248995000Y-38530000D03*
X255095000Y-38530000D03*
%TD*%
D15*
%TO.C,D_R_1_1*%
X179070000Y-60530000D03*
D16*
X179070000Y-63930000D03*
%TD*%
D10*
%TO.C,SW_L_3_0*%
X49286000Y-50168800D03*
X51686000Y-50168800D03*
D11*
X43686000Y-43768800D03*
D12*
X43686000Y-52368800D03*
D13*
X56086000Y-42793800D03*
D14*
X56086000Y-47868800D03*
D13*
X56086000Y-52943800D03*
%TD*%
D15*
%TO.C,D_L_2_2*%
X116840000Y-68150000D03*
D16*
X116840000Y-71550000D03*
%TD*%
D10*
%TO.C,SW_L_0_1*%
X103286000Y-70168800D03*
X105686000Y-70168800D03*
D11*
X97686000Y-63768800D03*
D12*
X97686000Y-72368800D03*
D13*
X110086000Y-62793800D03*
D14*
X110086000Y-67868800D03*
D13*
X110086000Y-72943800D03*
%TD*%
D25*
%TO.C,SW_R_2_3*%
X201650741Y-106943113D03*
X204027384Y-107277128D03*
D26*
X196995948Y-99826028D03*
D27*
X195799059Y-108342333D03*
D28*
X208704662Y-105611873D03*
D29*
X209410967Y-100586263D03*
X207998360Y-110637484D03*
%TD*%
D15*
%TO.C,D_L_1_3*%
X119392251Y-91010000D03*
D16*
X119392251Y-94410000D03*
%TD*%
D15*
%TO.C,D_L_0_0*%
X121920000Y-52910000D03*
D16*
X121920000Y-56310000D03*
%TD*%
D15*
%TO.C,D_L_2_3*%
X116852251Y-91010000D03*
D16*
X116852251Y-94410000D03*
%TD*%
D15*
%TO.C,D_R_2_3*%
X181610000Y-91010000D03*
D16*
X181610000Y-94410000D03*
%TD*%
D10*
%TO.C,SW_R_4_0*%
X265957753Y-63168800D03*
X268357753Y-63168800D03*
D11*
X260357753Y-56768800D03*
D12*
X260357753Y-65368800D03*
D13*
X272757753Y-55793800D03*
D14*
X272757753Y-60868800D03*
D13*
X272757753Y-65943800D03*
%TD*%
D30*
%TO.C,U2*%
X275590000Y-34450000D03*
X273050000Y-34450000D03*
X270510000Y-34450000D03*
X267970000Y-34450000D03*
X265430000Y-34450000D03*
X262890000Y-34450000D03*
X260350000Y-34450000D03*
X260350000Y-50640000D03*
X262890000Y-50640000D03*
X265430000Y-50640000D03*
X267970000Y-50640000D03*
X270510000Y-50640000D03*
X273050000Y-50640000D03*
X275590000Y-50640000D03*
D31*
X276542000Y-41275000D03*
X276542000Y-43815000D03*
X274002000Y-41275000D03*
X274002000Y-43815000D03*
X268287000Y-38100000D03*
X270192000Y-38100000D03*
%TD*%
D25*
%TO.C,SW_L_1_3*%
X115451741Y-106942913D03*
X117828384Y-107276928D03*
D26*
X110796948Y-99825828D03*
D27*
X109600059Y-108342133D03*
D28*
X122505662Y-105611673D03*
D29*
X123211967Y-100586063D03*
X121799360Y-110637284D03*
%TD*%
D10*
%TO.C,SW_R_2_1*%
X229957753Y-60168800D03*
X232357753Y-60168800D03*
D11*
X224357753Y-53768800D03*
D12*
X224357753Y-62368800D03*
D13*
X236757753Y-52793800D03*
D14*
X236757753Y-57868800D03*
D13*
X236757753Y-62943800D03*
%TD*%
D10*
%TO.C,SW_R_4_1*%
X265957753Y-80168800D03*
X268357753Y-80168800D03*
D11*
X260357753Y-73768800D03*
D12*
X260357753Y-82368800D03*
D13*
X272757753Y-72793800D03*
D14*
X272757753Y-77868800D03*
D13*
X272757753Y-82943800D03*
%TD*%
D10*
%TO.C,SW_L_1_1*%
X85286000Y-68168800D03*
X87686000Y-68168800D03*
D11*
X79686000Y-61768800D03*
D12*
X79686000Y-70368800D03*
D13*
X92086000Y-60793800D03*
D14*
X92086000Y-65868800D03*
D13*
X92086000Y-70943800D03*
%TD*%
D10*
%TO.C,SW_R_1_2*%
X211951506Y-85168847D03*
X214351506Y-85168847D03*
D11*
X206351506Y-78768847D03*
D12*
X206351506Y-87368847D03*
D13*
X218751506Y-77793847D03*
D14*
X218751506Y-82868847D03*
D13*
X218751506Y-87943847D03*
%TD*%
D15*
%TO.C,D_R_0_3*%
X176530000Y-91010000D03*
D16*
X176530000Y-94410000D03*
%TD*%
D15*
%TO.C,D_L_0_1*%
X119380000Y-52910000D03*
D16*
X119380000Y-56310000D03*
%TD*%
D15*
%TO.C,D_R_1_3*%
X179070000Y-91010000D03*
D16*
X179070000Y-94410000D03*
%TD*%
D10*
%TO.C,SW_R_3_1*%
X247957753Y-67168800D03*
X250357753Y-67168800D03*
D11*
X242357753Y-60768800D03*
D12*
X242357753Y-69368800D03*
D13*
X254757753Y-59793800D03*
D14*
X254757753Y-64868800D03*
D13*
X254757753Y-69943800D03*
%TD*%
D24*
%TO.C,SW1*%
X43255000Y-35080000D03*
X49455000Y-35030000D03*
X43255000Y-38530000D03*
X49355000Y-38530000D03*
%TD*%
D15*
%TO.C,D_L_1_1*%
X119380000Y-60530000D03*
D16*
X119380000Y-63930000D03*
%TD*%
D32*
%TO.C,SW_R_1_3*%
X181970937Y-107110120D03*
X184347581Y-106776105D03*
D33*
X175534728Y-101551774D03*
D34*
X176731617Y-110068080D03*
D35*
X188384662Y-103886127D03*
D36*
X187678360Y-98860516D03*
X189090967Y-108911737D03*
%TD*%
D15*
%TO.C,D_R_2_2*%
X181610000Y-68150000D03*
D16*
X181610000Y-71550000D03*
%TD*%
D10*
%TO.C,SW_L_4_2*%
X31286000Y-97168800D03*
X33686000Y-97168800D03*
D11*
X25686000Y-90768800D03*
D12*
X25686000Y-99368800D03*
D13*
X38086000Y-89793800D03*
D14*
X38086000Y-94868800D03*
D13*
X38086000Y-99943800D03*
%TD*%
D37*
%TO.C,SW_L_0_3*%
X134414978Y-112219313D03*
X136607488Y-113195481D03*
D38*
X131902237Y-104094896D03*
D39*
X128404303Y-111951387D03*
D40*
X143626770Y-108247724D03*
D41*
X141562582Y-112883967D03*
D40*
X139498393Y-117520210D03*
%TD*%
D15*
%TO.C,D_L_4_2*%
X116840000Y-83390000D03*
D16*
X116840000Y-86790000D03*
%TD*%
D15*
%TO.C,D_L_2_1*%
X119380000Y-68150000D03*
D16*
X119380000Y-71550000D03*
%TD*%
D30*
%TO.C,U1*%
X22860000Y-50640000D03*
X25400000Y-50640000D03*
X27940000Y-50640000D03*
X30480000Y-50640000D03*
X33020000Y-50640000D03*
X35560000Y-50640000D03*
X38100000Y-50640000D03*
X38100000Y-34450000D03*
X35560000Y-34450000D03*
X33020000Y-34450000D03*
X30480000Y-34450000D03*
X27940000Y-34450000D03*
X25400000Y-34450000D03*
X22860000Y-34450000D03*
D31*
X21908000Y-43815000D03*
X21908000Y-41275000D03*
X24448000Y-43815000D03*
X24448000Y-41275000D03*
X30163000Y-46990000D03*
X28258000Y-46990000D03*
%TD*%
D15*
%TO.C,D_L_1_0*%
X121920000Y-60530000D03*
D16*
X121920000Y-63930000D03*
%TD*%
D15*
%TO.C,D_R_4_1*%
X179070000Y-83390000D03*
D16*
X179070000Y-86790000D03*
%TD*%
D15*
%TO.C,D_R_4_2*%
X181610000Y-83390000D03*
D16*
X181610000Y-86790000D03*
%TD*%
D15*
%TO.C,D_R_1_2*%
X181610000Y-60530000D03*
D16*
X181610000Y-63930000D03*
%TD*%
D10*
%TO.C,SW_L_2_1*%
X67286000Y-60168800D03*
X69686000Y-60168800D03*
D11*
X61686000Y-53768800D03*
D12*
X61686000Y-62368800D03*
D13*
X74086000Y-52793800D03*
D14*
X74086000Y-57868800D03*
D13*
X74086000Y-62943800D03*
%TD*%
D15*
%TO.C,D_L_4_1*%
X119380000Y-83390000D03*
D16*
X119380000Y-86790000D03*
%TD*%
D15*
%TO.C,D_L_0_2*%
X116840000Y-52910000D03*
D16*
X116840000Y-56310000D03*
%TD*%
D15*
%TO.C,D_R_2_1*%
X179070000Y-68150000D03*
D16*
X179070000Y-71550000D03*
%TD*%
D10*
%TO.C,SW_R_0_1*%
X193957753Y-70168800D03*
X196357753Y-70168800D03*
D11*
X188357753Y-63768800D03*
D12*
X188357753Y-72368800D03*
D13*
X200757753Y-62793800D03*
D14*
X200757753Y-67868800D03*
D13*
X200757753Y-72943800D03*
%TD*%
D10*
%TO.C,SW_R_3_0*%
X247957753Y-50168800D03*
X250357753Y-50168800D03*
D11*
X242357753Y-43768800D03*
D12*
X242357753Y-52368800D03*
D13*
X254757753Y-42793800D03*
D14*
X254757753Y-47868800D03*
D13*
X254757753Y-52943800D03*
%TD*%
D15*
%TO.C,D_R_0_2*%
X181610000Y-52910000D03*
D16*
X181610000Y-56310000D03*
%TD*%
D15*
%TO.C,D_R_3_2*%
X181610000Y-75770000D03*
D16*
X181610000Y-79170000D03*
%TD*%
D15*
%TO.C,D_L_1_2*%
X116840000Y-60530000D03*
D16*
X116840000Y-63930000D03*
%TD*%
D10*
%TO.C,SW_R_2_0*%
X229957753Y-43168800D03*
X232357753Y-43168800D03*
D11*
X224357753Y-36768800D03*
D12*
X224357753Y-45368800D03*
D13*
X236757753Y-35793800D03*
D14*
X236757753Y-40868800D03*
D13*
X236757753Y-45943800D03*
%TD*%
D15*
%TO.C,D_R_0_0*%
X176530000Y-52910000D03*
D16*
X176530000Y-56310000D03*
%TD*%
D15*
%TO.C,D_L_0_3*%
X121932251Y-91010000D03*
D16*
X121932251Y-94410000D03*
%TD*%
D10*
%TO.C,SW_R_0_2*%
X193957753Y-87168800D03*
X196357753Y-87168800D03*
D11*
X188357753Y-80768800D03*
D12*
X188357753Y-89368800D03*
D13*
X200757753Y-79793800D03*
D14*
X200757753Y-84868800D03*
D13*
X200757753Y-89943800D03*
%TD*%
D42*
%TO.C,BT2*%
X219707229Y-101727274D03*
D43*
X218419877Y-110887254D03*
D42*
X215746156Y-101170583D03*
D43*
X214458805Y-110330561D03*
%TD*%
D10*
%TO.C,SW_R_3_2*%
X247957753Y-84168800D03*
X250357753Y-84168800D03*
D11*
X242357753Y-77768800D03*
D12*
X242357753Y-86368800D03*
D13*
X254757753Y-76793800D03*
D14*
X254757753Y-81868800D03*
D13*
X254757753Y-86943800D03*
%TD*%
D15*
%TO.C,D_L_2_0*%
X121920000Y-68150000D03*
D16*
X121920000Y-71550000D03*
%TD*%
D44*
%TO.C,SW4*%
X215531708Y-37796765D03*
X212647923Y-38623678D03*
X211206030Y-39037134D03*
D45*
X216546016Y-35529348D03*
X208903985Y-37720665D03*
%TD*%
D15*
%TO.C,D_R_1_0*%
X176530000Y-60530000D03*
D16*
X176530000Y-63930000D03*
%TD*%
D32*
%TO.C,SW_L_2_3*%
X95771937Y-107109920D03*
X98148581Y-106775905D03*
D33*
X89335728Y-101551574D03*
D34*
X90532617Y-110067880D03*
D35*
X102185662Y-103885927D03*
D36*
X101479360Y-98860316D03*
X102891967Y-108911537D03*
%TD*%
D15*
%TO.C,D_R_3_0*%
X176530000Y-75770000D03*
D16*
X176530000Y-79170000D03*
%TD*%
D46*
%TO.C,BT1*%
X82703844Y-101170583D03*
D47*
X83991195Y-110330561D03*
D46*
X78742771Y-101727274D03*
D47*
X80030123Y-110887254D03*
%TD*%
D10*
%TO.C,SW_L_3_1*%
X49286000Y-67168800D03*
X51686000Y-67168800D03*
D11*
X43686000Y-60768800D03*
D12*
X43686000Y-69368800D03*
D13*
X56086000Y-59793800D03*
D14*
X56086000Y-64868800D03*
D13*
X56086000Y-69943800D03*
%TD*%
D10*
%TO.C,SW_L_2_2*%
X67286000Y-77168800D03*
X69686000Y-77168800D03*
D11*
X61686000Y-70768800D03*
D12*
X61686000Y-79368800D03*
D13*
X74086000Y-69793800D03*
D14*
X74086000Y-74868800D03*
D13*
X74086000Y-79943800D03*
%TD*%
D10*
%TO.C,SW_R_1_1*%
X211951506Y-68168847D03*
X214351506Y-68168847D03*
D11*
X206351506Y-61768847D03*
D12*
X206351506Y-70368847D03*
D13*
X218751506Y-60793847D03*
D14*
X218751506Y-65868847D03*
D13*
X218751506Y-70943847D03*
%TD*%
D15*
%TO.C,D_R_2_0*%
X176530000Y-68150000D03*
D16*
X176530000Y-71550000D03*
%TD*%
D10*
%TO.C,SW_R_2_2*%
X229957753Y-77168800D03*
X232357753Y-77168800D03*
D11*
X224357753Y-70768800D03*
D12*
X224357753Y-79368800D03*
D13*
X236757753Y-69793800D03*
D14*
X236757753Y-74868800D03*
D13*
X236757753Y-79943800D03*
%TD*%
D15*
%TO.C,D_L_3_0*%
X121920000Y-75770000D03*
D16*
X121920000Y-79170000D03*
%TD*%
D10*
%TO.C,SW_R_1_0*%
X211951506Y-51168847D03*
X214351506Y-51168847D03*
D11*
X206351506Y-44768847D03*
D12*
X206351506Y-53368847D03*
D13*
X218751506Y-43793847D03*
D14*
X218751506Y-48868847D03*
D13*
X218751506Y-53943847D03*
%TD*%
D10*
%TO.C,SW_R_4_2*%
X265957753Y-97168800D03*
X268357753Y-97168800D03*
D11*
X260357753Y-90768800D03*
D12*
X260357753Y-99368800D03*
D13*
X272757753Y-89793800D03*
D14*
X272757753Y-94868800D03*
D13*
X272757753Y-99943800D03*
%TD*%
D10*
%TO.C,SW_R_0_0*%
X193957753Y-53168800D03*
X196357753Y-53168800D03*
D11*
X188357753Y-46768800D03*
D12*
X188357753Y-55368800D03*
D13*
X200757753Y-45793800D03*
D14*
X200757753Y-50868800D03*
D13*
X200757753Y-55943800D03*
%TD*%
D10*
%TO.C,SW_L_4_0*%
X31286000Y-63168800D03*
X33686000Y-63168800D03*
D11*
X25686000Y-56768800D03*
D12*
X25686000Y-65368800D03*
D13*
X38086000Y-55793800D03*
D14*
X38086000Y-60868800D03*
D13*
X38086000Y-65943800D03*
%TD*%
D15*
%TO.C,D_L_3_2*%
X116840000Y-75770000D03*
D16*
X116840000Y-79170000D03*
%TD*%
D15*
%TO.C,D_L_4_0*%
X121920000Y-83390000D03*
D16*
X121920000Y-86790000D03*
%TD*%
M02*
