%TF.GenerationSoftware,KiCad,Pcbnew,10.0.2*%
%TF.CreationDate,2026-05-12T18:23:46+02:00*%
%TF.ProjectId,mnhttn,6d6e6874-746e-42e6-9b69-6361645f7063,rev?*%
%TF.SameCoordinates,Original*%
%TF.FileFunction,Profile,NP*%
%FSLAX46Y46*%
G04 Gerber Fmt 4.6, Leading zero omitted, Abs format (unit mm)*
G04 Created by KiCad (PCBNEW 10.0.2) date 2026-05-12 18:23:46*
%MOMM*%
%LPD*%
G01*
G04 APERTURE LIST*
%TA.AperFunction,Profile*%
%ADD10C,0.100000*%
%TD*%
%TA.AperFunction,Profile*%
%ADD11C,0.635000*%
%TD*%
%ADD12C,0.635000*%
G04 APERTURE END LIST*
D10*
X20320000Y-34456841D02*
X20320000Y-101473000D01*
X20320000Y-34456841D02*
G75*
G02*
X22352000Y-32424840I2031930J71D01*
G01*
X22352000Y-103505000D02*
G75*
G02*
X20320000Y-101473000I0J2032000D01*
G01*
X22352000Y-103505000D02*
X65975070Y-103505000D01*
X41148000Y-90551000D02*
X73914000Y-90551000D01*
X73914000Y-101219000D01*
X41148000Y-101219000D01*
X41148000Y-90551000D01*
X65975070Y-103505000D02*
G75*
G02*
X76139389Y-110608605I0J-10823700D01*
G01*
X76139388Y-110608605D02*
X76200024Y-110753738D01*
X76835000Y-32385000D02*
X22352000Y-32424841D01*
X79945070Y-114300000D02*
G75*
G02*
X76200022Y-110753732I1058830J4868800D01*
G01*
X79945070Y-114300000D02*
X138938000Y-121539000D01*
X113030000Y-42291000D02*
X76835000Y-32385000D01*
X123469400Y-50114200D02*
X113030000Y-42291000D01*
X123469400Y-50114200D02*
G75*
G02*
X124470959Y-51830441I-969600J-1716200D01*
G01*
X124460000Y-69215000D02*
X124470959Y-51830441D01*
X124460000Y-94615000D02*
X124463903Y-79375001D01*
X124463903Y-79375001D02*
G75*
G02*
X125730000Y-78108903I1266097J1D01*
G01*
D11*
D12*
X124831975Y-70815200D02*
X124831975Y-70815200D01*
X124831975Y-70815200D01*
X124831975Y-70815200D01*
X124831975Y-70815200D01*
X124831975Y-70815200D01*
X124831975Y-70815201D01*
X124831975Y-70815201D01*
X124831975Y-70815201D01*
X124831975Y-70815201D01*
X124831975Y-70815201D01*
X124831975Y-70815201D01*
X124831975Y-70815201D01*
X124831974Y-70815201D01*
X124831974Y-70815201D01*
X124831974Y-70815201D01*
X124831974Y-70815201D01*
X124831974Y-70815201D01*
X124831974Y-70815201D01*
X124831974Y-70815201D01*
X124831974Y-70815201D01*
X124831974Y-70815201D01*
X124831974Y-70815201D01*
X124831974Y-70815201D01*
X124831974Y-70815201D01*
X124831973Y-70815201D01*
X124831973Y-70815201D01*
X124831973Y-70815201D01*
X124831973Y-70815201D01*
X124831973Y-70815201D01*
X124831973Y-70815201D01*
X124831973Y-70815200D01*
X124831973Y-70815200D01*
X124831973Y-70815200D01*
X124831973Y-70815200D01*
X124831973Y-70815200D01*
X124831973Y-70815200D01*
X124831973Y-70815200D02*
X124831973Y-70815200D01*
X124831973Y-70815200D01*
X124831973Y-70815200D01*
X124831973Y-70815200D01*
X124831973Y-70815200D01*
X124831973Y-70815200D01*
X124831973Y-70815199D01*
X124831973Y-70815199D01*
X124831973Y-70815199D01*
X124831973Y-70815199D01*
X124831973Y-70815199D01*
X124831974Y-70815199D01*
X124831974Y-70815199D01*
X124831974Y-70815199D01*
X124831974Y-70815199D01*
X124831974Y-70815199D01*
X124831974Y-70815199D01*
X124831974Y-70815199D01*
X124831974Y-70815199D01*
X124831974Y-70815199D01*
X124831974Y-70815199D01*
X124831974Y-70815199D01*
X124831974Y-70815199D01*
X124831975Y-70815199D01*
X124831975Y-70815199D01*
X124831975Y-70815199D01*
X124831975Y-70815199D01*
X124831975Y-70815199D01*
X124831975Y-70815199D01*
X124831975Y-70815200D01*
X124831975Y-70815200D01*
X124831975Y-70815200D01*
X124831975Y-70815200D01*
X124831975Y-70815200D01*
X124831975Y-70815200D01*
X124831975Y-70815200D01*
D11*
D12*
X124831975Y-71450200D02*
X124831975Y-71450200D01*
X124831975Y-71450200D01*
X124831975Y-71450200D01*
X124831975Y-71450200D01*
X124831975Y-71450200D01*
X124831975Y-71450201D01*
X124831975Y-71450201D01*
X124831975Y-71450201D01*
X124831975Y-71450201D01*
X124831975Y-71450201D01*
X124831975Y-71450201D01*
X124831975Y-71450201D01*
X124831974Y-71450201D01*
X124831974Y-71450201D01*
X124831974Y-71450201D01*
X124831974Y-71450201D01*
X124831974Y-71450201D01*
X124831974Y-71450201D01*
X124831974Y-71450201D01*
X124831974Y-71450201D01*
X124831974Y-71450201D01*
X124831974Y-71450201D01*
X124831974Y-71450201D01*
X124831974Y-71450201D01*
X124831973Y-71450201D01*
X124831973Y-71450201D01*
X124831973Y-71450201D01*
X124831973Y-71450201D01*
X124831973Y-71450201D01*
X124831973Y-71450201D01*
X124831973Y-71450200D01*
X124831973Y-71450200D01*
X124831973Y-71450200D01*
X124831973Y-71450200D01*
X124831973Y-71450200D01*
X124831973Y-71450200D01*
X124831973Y-71450200D02*
X124831973Y-71450200D01*
X124831973Y-71450200D01*
X124831973Y-71450200D01*
X124831973Y-71450200D01*
X124831973Y-71450200D01*
X124831973Y-71450200D01*
X124831973Y-71450199D01*
X124831973Y-71450199D01*
X124831973Y-71450199D01*
X124831973Y-71450199D01*
X124831973Y-71450199D01*
X124831974Y-71450199D01*
X124831974Y-71450199D01*
X124831974Y-71450199D01*
X124831974Y-71450199D01*
X124831974Y-71450199D01*
X124831974Y-71450199D01*
X124831974Y-71450199D01*
X124831974Y-71450199D01*
X124831974Y-71450199D01*
X124831974Y-71450199D01*
X124831974Y-71450199D01*
X124831974Y-71450199D01*
X124831975Y-71450199D01*
X124831975Y-71450199D01*
X124831975Y-71450199D01*
X124831975Y-71450199D01*
X124831975Y-71450199D01*
X124831975Y-71450199D01*
X124831975Y-71450200D01*
X124831975Y-71450200D01*
X124831975Y-71450200D01*
X124831975Y-71450200D01*
X124831975Y-71450200D01*
X124831975Y-71450200D01*
X124831975Y-71450200D01*
D11*
D12*
X124831975Y-72085200D02*
X124831975Y-72085200D01*
X124831975Y-72085200D01*
X124831975Y-72085200D01*
X124831975Y-72085200D01*
X124831975Y-72085200D01*
X124831975Y-72085201D01*
X124831975Y-72085201D01*
X124831975Y-72085201D01*
X124831975Y-72085201D01*
X124831975Y-72085201D01*
X124831975Y-72085201D01*
X124831975Y-72085201D01*
X124831974Y-72085201D01*
X124831974Y-72085201D01*
X124831974Y-72085201D01*
X124831974Y-72085201D01*
X124831974Y-72085201D01*
X124831974Y-72085201D01*
X124831974Y-72085201D01*
X124831974Y-72085201D01*
X124831974Y-72085201D01*
X124831974Y-72085201D01*
X124831974Y-72085201D01*
X124831974Y-72085201D01*
X124831973Y-72085201D01*
X124831973Y-72085201D01*
X124831973Y-72085201D01*
X124831973Y-72085201D01*
X124831973Y-72085201D01*
X124831973Y-72085201D01*
X124831973Y-72085200D01*
X124831973Y-72085200D01*
X124831973Y-72085200D01*
X124831973Y-72085200D01*
X124831973Y-72085200D01*
X124831973Y-72085200D01*
X124831973Y-72085200D02*
X124831973Y-72085200D01*
X124831973Y-72085200D01*
X124831973Y-72085200D01*
X124831973Y-72085200D01*
X124831973Y-72085200D01*
X124831973Y-72085200D01*
X124831973Y-72085199D01*
X124831973Y-72085199D01*
X124831973Y-72085199D01*
X124831973Y-72085199D01*
X124831973Y-72085199D01*
X124831974Y-72085199D01*
X124831974Y-72085199D01*
X124831974Y-72085199D01*
X124831974Y-72085199D01*
X124831974Y-72085199D01*
X124831974Y-72085199D01*
X124831974Y-72085199D01*
X124831974Y-72085199D01*
X124831974Y-72085199D01*
X124831974Y-72085199D01*
X124831974Y-72085199D01*
X124831974Y-72085199D01*
X124831975Y-72085199D01*
X124831975Y-72085199D01*
X124831975Y-72085199D01*
X124831975Y-72085199D01*
X124831975Y-72085199D01*
X124831975Y-72085199D01*
X124831975Y-72085200D01*
X124831975Y-72085200D01*
X124831975Y-72085200D01*
X124831975Y-72085200D01*
X124831975Y-72085200D01*
X124831975Y-72085200D01*
X124831975Y-72085200D01*
D11*
D12*
X124831975Y-72720200D02*
X124831975Y-72720200D01*
X124831975Y-72720200D01*
X124831975Y-72720200D01*
X124831975Y-72720200D01*
X124831975Y-72720200D01*
X124831975Y-72720201D01*
X124831975Y-72720201D01*
X124831975Y-72720201D01*
X124831975Y-72720201D01*
X124831975Y-72720201D01*
X124831975Y-72720201D01*
X124831975Y-72720201D01*
X124831974Y-72720201D01*
X124831974Y-72720201D01*
X124831974Y-72720201D01*
X124831974Y-72720201D01*
X124831974Y-72720201D01*
X124831974Y-72720201D01*
X124831974Y-72720201D01*
X124831974Y-72720201D01*
X124831974Y-72720201D01*
X124831974Y-72720201D01*
X124831974Y-72720201D01*
X124831974Y-72720201D01*
X124831973Y-72720201D01*
X124831973Y-72720201D01*
X124831973Y-72720201D01*
X124831973Y-72720201D01*
X124831973Y-72720201D01*
X124831973Y-72720201D01*
X124831973Y-72720200D01*
X124831973Y-72720200D01*
X124831973Y-72720200D01*
X124831973Y-72720200D01*
X124831973Y-72720200D01*
X124831973Y-72720200D01*
X124831973Y-72720200D02*
X124831973Y-72720200D01*
X124831973Y-72720200D01*
X124831973Y-72720200D01*
X124831973Y-72720200D01*
X124831973Y-72720200D01*
X124831973Y-72720200D01*
X124831973Y-72720199D01*
X124831973Y-72720199D01*
X124831973Y-72720199D01*
X124831973Y-72720199D01*
X124831973Y-72720199D01*
X124831974Y-72720199D01*
X124831974Y-72720199D01*
X124831974Y-72720199D01*
X124831974Y-72720199D01*
X124831974Y-72720199D01*
X124831974Y-72720199D01*
X124831974Y-72720199D01*
X124831974Y-72720199D01*
X124831974Y-72720199D01*
X124831974Y-72720199D01*
X124831974Y-72720199D01*
X124831974Y-72720199D01*
X124831975Y-72720199D01*
X124831975Y-72720199D01*
X124831975Y-72720199D01*
X124831975Y-72720199D01*
X124831975Y-72720199D01*
X124831975Y-72720199D01*
X124831975Y-72720200D01*
X124831975Y-72720200D01*
X124831975Y-72720200D01*
X124831975Y-72720200D01*
X124831975Y-72720200D01*
X124831975Y-72720200D01*
X124831975Y-72720200D01*
D11*
D12*
X124831975Y-73355201D02*
X124831975Y-73355201D01*
X124831975Y-73355201D01*
X124831975Y-73355201D01*
X124831975Y-73355201D01*
X124831975Y-73355201D01*
X124831975Y-73355202D01*
X124831975Y-73355202D01*
X124831975Y-73355202D01*
X124831975Y-73355202D01*
X124831975Y-73355202D01*
X124831975Y-73355202D01*
X124831975Y-73355202D01*
X124831974Y-73355202D01*
X124831974Y-73355202D01*
X124831974Y-73355202D01*
X124831974Y-73355202D01*
X124831974Y-73355202D01*
X124831974Y-73355202D01*
X124831974Y-73355202D01*
X124831974Y-73355202D01*
X124831974Y-73355202D01*
X124831974Y-73355202D01*
X124831974Y-73355202D01*
X124831974Y-73355202D01*
X124831973Y-73355202D01*
X124831973Y-73355202D01*
X124831973Y-73355202D01*
X124831973Y-73355202D01*
X124831973Y-73355202D01*
X124831973Y-73355202D01*
X124831973Y-73355201D01*
X124831973Y-73355201D01*
X124831973Y-73355201D01*
X124831973Y-73355201D01*
X124831973Y-73355201D01*
X124831973Y-73355201D01*
X124831973Y-73355201D02*
X124831973Y-73355201D01*
X124831973Y-73355201D01*
X124831973Y-73355201D01*
X124831973Y-73355201D01*
X124831973Y-73355201D01*
X124831973Y-73355201D01*
X124831973Y-73355200D01*
X124831973Y-73355200D01*
X124831973Y-73355200D01*
X124831973Y-73355200D01*
X124831973Y-73355200D01*
X124831974Y-73355200D01*
X124831974Y-73355200D01*
X124831974Y-73355200D01*
X124831974Y-73355200D01*
X124831974Y-73355200D01*
X124831974Y-73355200D01*
X124831974Y-73355200D01*
X124831974Y-73355200D01*
X124831974Y-73355200D01*
X124831974Y-73355200D01*
X124831974Y-73355200D01*
X124831974Y-73355200D01*
X124831975Y-73355200D01*
X124831975Y-73355200D01*
X124831975Y-73355200D01*
X124831975Y-73355200D01*
X124831975Y-73355200D01*
X124831975Y-73355200D01*
X124831975Y-73355201D01*
X124831975Y-73355201D01*
X124831975Y-73355201D01*
X124831975Y-73355201D01*
X124831975Y-73355201D01*
X124831975Y-73355201D01*
X124831975Y-73355201D01*
D11*
D12*
X124831975Y-73990200D02*
X124831975Y-73990200D01*
X124831975Y-73990200D01*
X124831975Y-73990200D01*
X124831975Y-73990200D01*
X124831975Y-73990200D01*
X124831975Y-73990201D01*
X124831975Y-73990201D01*
X124831975Y-73990201D01*
X124831975Y-73990201D01*
X124831975Y-73990201D01*
X124831975Y-73990201D01*
X124831975Y-73990201D01*
X124831974Y-73990201D01*
X124831974Y-73990201D01*
X124831974Y-73990201D01*
X124831974Y-73990201D01*
X124831974Y-73990201D01*
X124831974Y-73990201D01*
X124831974Y-73990201D01*
X124831974Y-73990201D01*
X124831974Y-73990201D01*
X124831974Y-73990201D01*
X124831974Y-73990201D01*
X124831974Y-73990201D01*
X124831973Y-73990201D01*
X124831973Y-73990201D01*
X124831973Y-73990201D01*
X124831973Y-73990201D01*
X124831973Y-73990201D01*
X124831973Y-73990201D01*
X124831973Y-73990200D01*
X124831973Y-73990200D01*
X124831973Y-73990200D01*
X124831973Y-73990200D01*
X124831973Y-73990200D01*
X124831973Y-73990200D01*
X124831973Y-73990200D02*
X124831973Y-73990200D01*
X124831973Y-73990200D01*
X124831973Y-73990200D01*
X124831973Y-73990200D01*
X124831973Y-73990200D01*
X124831973Y-73990200D01*
X124831973Y-73990199D01*
X124831973Y-73990199D01*
X124831973Y-73990199D01*
X124831973Y-73990199D01*
X124831973Y-73990199D01*
X124831974Y-73990199D01*
X124831974Y-73990199D01*
X124831974Y-73990199D01*
X124831974Y-73990199D01*
X124831974Y-73990199D01*
X124831974Y-73990199D01*
X124831974Y-73990199D01*
X124831974Y-73990199D01*
X124831974Y-73990199D01*
X124831974Y-73990199D01*
X124831974Y-73990199D01*
X124831974Y-73990199D01*
X124831975Y-73990199D01*
X124831975Y-73990199D01*
X124831975Y-73990199D01*
X124831975Y-73990199D01*
X124831975Y-73990199D01*
X124831975Y-73990199D01*
X124831975Y-73990200D01*
X124831975Y-73990200D01*
X124831975Y-73990200D01*
X124831975Y-73990200D01*
X124831975Y-73990200D01*
X124831975Y-73990200D01*
X124831975Y-73990200D01*
D11*
D12*
X124831975Y-74625200D02*
X124831975Y-74625200D01*
X124831975Y-74625200D01*
X124831975Y-74625200D01*
X124831975Y-74625200D01*
X124831975Y-74625200D01*
X124831975Y-74625201D01*
X124831975Y-74625201D01*
X124831975Y-74625201D01*
X124831975Y-74625201D01*
X124831975Y-74625201D01*
X124831975Y-74625201D01*
X124831975Y-74625201D01*
X124831974Y-74625201D01*
X124831974Y-74625201D01*
X124831974Y-74625201D01*
X124831974Y-74625201D01*
X124831974Y-74625201D01*
X124831974Y-74625201D01*
X124831974Y-74625201D01*
X124831974Y-74625201D01*
X124831974Y-74625201D01*
X124831974Y-74625201D01*
X124831974Y-74625201D01*
X124831974Y-74625201D01*
X124831973Y-74625201D01*
X124831973Y-74625201D01*
X124831973Y-74625201D01*
X124831973Y-74625201D01*
X124831973Y-74625201D01*
X124831973Y-74625201D01*
X124831973Y-74625200D01*
X124831973Y-74625200D01*
X124831973Y-74625200D01*
X124831973Y-74625200D01*
X124831973Y-74625200D01*
X124831973Y-74625200D01*
X124831973Y-74625200D02*
X124831973Y-74625200D01*
X124831973Y-74625200D01*
X124831973Y-74625200D01*
X124831973Y-74625200D01*
X124831973Y-74625200D01*
X124831973Y-74625200D01*
X124831973Y-74625199D01*
X124831973Y-74625199D01*
X124831973Y-74625199D01*
X124831973Y-74625199D01*
X124831973Y-74625199D01*
X124831974Y-74625199D01*
X124831974Y-74625199D01*
X124831974Y-74625199D01*
X124831974Y-74625199D01*
X124831974Y-74625199D01*
X124831974Y-74625199D01*
X124831974Y-74625199D01*
X124831974Y-74625199D01*
X124831974Y-74625199D01*
X124831974Y-74625199D01*
X124831974Y-74625199D01*
X124831974Y-74625199D01*
X124831975Y-74625199D01*
X124831975Y-74625199D01*
X124831975Y-74625199D01*
X124831975Y-74625199D01*
X124831975Y-74625199D01*
X124831975Y-74625199D01*
X124831975Y-74625200D01*
X124831975Y-74625200D01*
X124831975Y-74625200D01*
X124831975Y-74625200D01*
X124831975Y-74625200D01*
X124831975Y-74625200D01*
X124831975Y-74625200D01*
D11*
D12*
X124831975Y-75260200D02*
X124831975Y-75260200D01*
X124831975Y-75260200D01*
X124831975Y-75260200D01*
X124831975Y-75260200D01*
X124831975Y-75260200D01*
X124831975Y-75260201D01*
X124831975Y-75260201D01*
X124831975Y-75260201D01*
X124831975Y-75260201D01*
X124831975Y-75260201D01*
X124831975Y-75260201D01*
X124831975Y-75260201D01*
X124831974Y-75260201D01*
X124831974Y-75260201D01*
X124831974Y-75260201D01*
X124831974Y-75260201D01*
X124831974Y-75260201D01*
X124831974Y-75260201D01*
X124831974Y-75260201D01*
X124831974Y-75260201D01*
X124831974Y-75260201D01*
X124831974Y-75260201D01*
X124831974Y-75260201D01*
X124831974Y-75260201D01*
X124831973Y-75260201D01*
X124831973Y-75260201D01*
X124831973Y-75260201D01*
X124831973Y-75260201D01*
X124831973Y-75260201D01*
X124831973Y-75260201D01*
X124831973Y-75260200D01*
X124831973Y-75260200D01*
X124831973Y-75260200D01*
X124831973Y-75260200D01*
X124831973Y-75260200D01*
X124831973Y-75260200D01*
X124831973Y-75260200D02*
X124831973Y-75260200D01*
X124831973Y-75260200D01*
X124831973Y-75260200D01*
X124831973Y-75260200D01*
X124831973Y-75260200D01*
X124831973Y-75260200D01*
X124831973Y-75260199D01*
X124831973Y-75260199D01*
X124831973Y-75260199D01*
X124831973Y-75260199D01*
X124831973Y-75260199D01*
X124831974Y-75260199D01*
X124831974Y-75260199D01*
X124831974Y-75260199D01*
X124831974Y-75260199D01*
X124831974Y-75260199D01*
X124831974Y-75260199D01*
X124831974Y-75260199D01*
X124831974Y-75260199D01*
X124831974Y-75260199D01*
X124831974Y-75260199D01*
X124831974Y-75260199D01*
X124831974Y-75260199D01*
X124831975Y-75260199D01*
X124831975Y-75260199D01*
X124831975Y-75260199D01*
X124831975Y-75260199D01*
X124831975Y-75260199D01*
X124831975Y-75260199D01*
X124831975Y-75260200D01*
X124831975Y-75260200D01*
X124831975Y-75260200D01*
X124831975Y-75260200D01*
X124831975Y-75260200D01*
X124831975Y-75260200D01*
X124831975Y-75260200D01*
D11*
D12*
X124831975Y-75895200D02*
X124831975Y-75895200D01*
X124831975Y-75895200D01*
X124831975Y-75895200D01*
X124831975Y-75895200D01*
X124831975Y-75895200D01*
X124831975Y-75895201D01*
X124831975Y-75895201D01*
X124831975Y-75895201D01*
X124831975Y-75895201D01*
X124831975Y-75895201D01*
X124831975Y-75895201D01*
X124831975Y-75895201D01*
X124831974Y-75895201D01*
X124831974Y-75895201D01*
X124831974Y-75895201D01*
X124831974Y-75895201D01*
X124831974Y-75895201D01*
X124831974Y-75895201D01*
X124831974Y-75895201D01*
X124831974Y-75895201D01*
X124831974Y-75895201D01*
X124831974Y-75895201D01*
X124831974Y-75895201D01*
X124831974Y-75895201D01*
X124831973Y-75895201D01*
X124831973Y-75895201D01*
X124831973Y-75895201D01*
X124831973Y-75895201D01*
X124831973Y-75895201D01*
X124831973Y-75895201D01*
X124831973Y-75895200D01*
X124831973Y-75895200D01*
X124831973Y-75895200D01*
X124831973Y-75895200D01*
X124831973Y-75895200D01*
X124831973Y-75895200D01*
X124831973Y-75895200D02*
X124831973Y-75895200D01*
X124831973Y-75895200D01*
X124831973Y-75895200D01*
X124831973Y-75895200D01*
X124831973Y-75895200D01*
X124831973Y-75895200D01*
X124831973Y-75895199D01*
X124831973Y-75895199D01*
X124831973Y-75895199D01*
X124831973Y-75895199D01*
X124831973Y-75895199D01*
X124831974Y-75895199D01*
X124831974Y-75895199D01*
X124831974Y-75895199D01*
X124831974Y-75895199D01*
X124831974Y-75895199D01*
X124831974Y-75895199D01*
X124831974Y-75895199D01*
X124831974Y-75895199D01*
X124831974Y-75895199D01*
X124831974Y-75895199D01*
X124831974Y-75895199D01*
X124831974Y-75895199D01*
X124831975Y-75895199D01*
X124831975Y-75895199D01*
X124831975Y-75895199D01*
X124831975Y-75895199D01*
X124831975Y-75895199D01*
X124831975Y-75895199D01*
X124831975Y-75895200D01*
X124831975Y-75895200D01*
X124831975Y-75895200D01*
X124831975Y-75895200D01*
X124831975Y-75895200D01*
X124831975Y-75895200D01*
X124831975Y-75895200D01*
D11*
D12*
X124831975Y-76530200D02*
X124831975Y-76530200D01*
X124831975Y-76530200D01*
X124831975Y-76530200D01*
X124831975Y-76530200D01*
X124831975Y-76530200D01*
X124831975Y-76530201D01*
X124831975Y-76530201D01*
X124831975Y-76530201D01*
X124831975Y-76530201D01*
X124831975Y-76530201D01*
X124831975Y-76530201D01*
X124831975Y-76530201D01*
X124831974Y-76530201D01*
X124831974Y-76530201D01*
X124831974Y-76530201D01*
X124831974Y-76530201D01*
X124831974Y-76530201D01*
X124831974Y-76530201D01*
X124831974Y-76530201D01*
X124831974Y-76530201D01*
X124831974Y-76530201D01*
X124831974Y-76530201D01*
X124831974Y-76530201D01*
X124831974Y-76530201D01*
X124831973Y-76530201D01*
X124831973Y-76530201D01*
X124831973Y-76530201D01*
X124831973Y-76530201D01*
X124831973Y-76530201D01*
X124831973Y-76530201D01*
X124831973Y-76530200D01*
X124831973Y-76530200D01*
X124831973Y-76530200D01*
X124831973Y-76530200D01*
X124831973Y-76530200D01*
X124831973Y-76530200D01*
X124831973Y-76530200D02*
X124831973Y-76530200D01*
X124831973Y-76530200D01*
X124831973Y-76530200D01*
X124831973Y-76530200D01*
X124831973Y-76530200D01*
X124831973Y-76530200D01*
X124831973Y-76530199D01*
X124831973Y-76530199D01*
X124831973Y-76530199D01*
X124831973Y-76530199D01*
X124831973Y-76530199D01*
X124831974Y-76530199D01*
X124831974Y-76530199D01*
X124831974Y-76530199D01*
X124831974Y-76530199D01*
X124831974Y-76530199D01*
X124831974Y-76530199D01*
X124831974Y-76530199D01*
X124831974Y-76530199D01*
X124831974Y-76530199D01*
X124831974Y-76530199D01*
X124831974Y-76530199D01*
X124831974Y-76530199D01*
X124831975Y-76530199D01*
X124831975Y-76530199D01*
X124831975Y-76530199D01*
X124831975Y-76530199D01*
X124831975Y-76530199D01*
X124831975Y-76530199D01*
X124831975Y-76530200D01*
X124831975Y-76530200D01*
X124831975Y-76530200D01*
X124831975Y-76530200D01*
X124831975Y-76530200D01*
X124831975Y-76530200D01*
X124831975Y-76530200D01*
D11*
D12*
X124831975Y-77165200D02*
X124831975Y-77165200D01*
X124831975Y-77165200D01*
X124831975Y-77165200D01*
X124831975Y-77165200D01*
X124831975Y-77165200D01*
X124831975Y-77165201D01*
X124831975Y-77165201D01*
X124831975Y-77165201D01*
X124831975Y-77165201D01*
X124831975Y-77165201D01*
X124831975Y-77165201D01*
X124831975Y-77165201D01*
X124831974Y-77165201D01*
X124831974Y-77165201D01*
X124831974Y-77165201D01*
X124831974Y-77165201D01*
X124831974Y-77165201D01*
X124831974Y-77165201D01*
X124831974Y-77165201D01*
X124831974Y-77165201D01*
X124831974Y-77165201D01*
X124831974Y-77165201D01*
X124831974Y-77165201D01*
X124831974Y-77165201D01*
X124831973Y-77165201D01*
X124831973Y-77165201D01*
X124831973Y-77165201D01*
X124831973Y-77165201D01*
X124831973Y-77165201D01*
X124831973Y-77165201D01*
X124831973Y-77165200D01*
X124831973Y-77165200D01*
X124831973Y-77165200D01*
X124831973Y-77165200D01*
X124831973Y-77165200D01*
X124831973Y-77165200D01*
X124831973Y-77165200D02*
X124831973Y-77165200D01*
X124831973Y-77165200D01*
X124831973Y-77165200D01*
X124831973Y-77165200D01*
X124831973Y-77165200D01*
X124831973Y-77165200D01*
X124831973Y-77165199D01*
X124831973Y-77165199D01*
X124831973Y-77165199D01*
X124831973Y-77165199D01*
X124831973Y-77165199D01*
X124831974Y-77165199D01*
X124831974Y-77165199D01*
X124831974Y-77165199D01*
X124831974Y-77165199D01*
X124831974Y-77165199D01*
X124831974Y-77165199D01*
X124831974Y-77165199D01*
X124831974Y-77165199D01*
X124831974Y-77165199D01*
X124831974Y-77165199D01*
X124831974Y-77165199D01*
X124831974Y-77165199D01*
X124831975Y-77165199D01*
X124831975Y-77165199D01*
X124831975Y-77165199D01*
X124831975Y-77165199D01*
X124831975Y-77165199D01*
X124831975Y-77165199D01*
X124831975Y-77165200D01*
X124831975Y-77165200D01*
X124831975Y-77165200D01*
X124831975Y-77165200D01*
X124831975Y-77165200D01*
X124831975Y-77165200D01*
X124831975Y-77165200D01*
D11*
D12*
X124831975Y-77800200D02*
X124831975Y-77800200D01*
X124831975Y-77800200D01*
X124831975Y-77800200D01*
X124831975Y-77800200D01*
X124831975Y-77800200D01*
X124831975Y-77800201D01*
X124831975Y-77800201D01*
X124831975Y-77800201D01*
X124831975Y-77800201D01*
X124831975Y-77800201D01*
X124831975Y-77800201D01*
X124831975Y-77800201D01*
X124831974Y-77800201D01*
X124831974Y-77800201D01*
X124831974Y-77800201D01*
X124831974Y-77800201D01*
X124831974Y-77800201D01*
X124831974Y-77800201D01*
X124831974Y-77800201D01*
X124831974Y-77800201D01*
X124831974Y-77800201D01*
X124831974Y-77800201D01*
X124831974Y-77800201D01*
X124831974Y-77800201D01*
X124831973Y-77800201D01*
X124831973Y-77800201D01*
X124831973Y-77800201D01*
X124831973Y-77800201D01*
X124831973Y-77800201D01*
X124831973Y-77800201D01*
X124831973Y-77800200D01*
X124831973Y-77800200D01*
X124831973Y-77800200D01*
X124831973Y-77800200D01*
X124831973Y-77800200D01*
X124831973Y-77800200D01*
X124831973Y-77800200D02*
X124831973Y-77800200D01*
X124831973Y-77800200D01*
X124831973Y-77800200D01*
X124831973Y-77800200D01*
X124831973Y-77800200D01*
X124831973Y-77800200D01*
X124831973Y-77800199D01*
X124831973Y-77800199D01*
X124831973Y-77800199D01*
X124831973Y-77800199D01*
X124831973Y-77800199D01*
X124831974Y-77800199D01*
X124831974Y-77800199D01*
X124831974Y-77800199D01*
X124831974Y-77800199D01*
X124831974Y-77800199D01*
X124831974Y-77800199D01*
X124831974Y-77800199D01*
X124831974Y-77800199D01*
X124831974Y-77800199D01*
X124831974Y-77800199D01*
X124831974Y-77800199D01*
X124831974Y-77800199D01*
X124831975Y-77800199D01*
X124831975Y-77800199D01*
X124831975Y-77800199D01*
X124831975Y-77800199D01*
X124831975Y-77800199D01*
X124831975Y-77800199D01*
X124831975Y-77800200D01*
X124831975Y-77800200D01*
X124831975Y-77800200D01*
X124831975Y-77800200D01*
X124831975Y-77800200D01*
X124831975Y-77800200D01*
X124831975Y-77800200D01*
D10*
X125577600Y-96393000D02*
G75*
G02*
X124459990Y-94615000I855500J1778000D01*
G01*
X125730000Y-70485000D02*
G75*
G02*
X124460000Y-69215000I0J1270000D01*
G01*
X125730000Y-70485000D02*
X172720000Y-70485000D01*
X141478000Y-120015000D02*
G75*
G02*
X138938003Y-121538979I-2216300J815200D01*
G01*
X141478000Y-120015000D02*
X146744161Y-108106746D01*
X145761304Y-105406368D02*
X125577600Y-96393000D01*
X145761304Y-105406368D02*
G75*
G02*
X146744159Y-108106745I-858804J-1841632D01*
G01*
X151705839Y-108106746D02*
G75*
G02*
X152688695Y-105406366I1841661J858746D01*
G01*
X152688696Y-105406368D02*
X172872400Y-96393000D01*
X156972000Y-120015000D02*
X151705839Y-108106746D01*
X159512000Y-121539000D02*
G75*
G02*
X156971980Y-120015007I-323700J2339200D01*
G01*
X172720000Y-78105000D02*
X125730000Y-78105000D01*
X172720000Y-78105000D02*
G75*
G02*
X173990000Y-79375000I0J-1270000D01*
G01*
D11*
D12*
X173609001Y-70815200D02*
X173609001Y-70815200D01*
X173609001Y-70815200D01*
X173609001Y-70815200D01*
X173609001Y-70815200D01*
X173609001Y-70815200D01*
X173609001Y-70815201D01*
X173609001Y-70815201D01*
X173609001Y-70815201D01*
X173609001Y-70815201D01*
X173609001Y-70815201D01*
X173609001Y-70815201D01*
X173609001Y-70815201D01*
X173609000Y-70815201D01*
X173609000Y-70815201D01*
X173609000Y-70815201D01*
X173609000Y-70815201D01*
X173609000Y-70815201D01*
X173609000Y-70815201D01*
X173609000Y-70815201D01*
X173609000Y-70815201D01*
X173609000Y-70815201D01*
X173609000Y-70815201D01*
X173609000Y-70815201D01*
X173609000Y-70815201D01*
X173608999Y-70815201D01*
X173608999Y-70815201D01*
X173608999Y-70815201D01*
X173608999Y-70815201D01*
X173608999Y-70815201D01*
X173608999Y-70815201D01*
X173608999Y-70815200D01*
X173608999Y-70815200D01*
X173608999Y-70815200D01*
X173608999Y-70815200D01*
X173608999Y-70815200D01*
X173608999Y-70815200D01*
X173608999Y-70815200D02*
X173608999Y-70815200D01*
X173608999Y-70815200D01*
X173608999Y-70815200D01*
X173608999Y-70815200D01*
X173608999Y-70815200D01*
X173608999Y-70815200D01*
X173608999Y-70815199D01*
X173608999Y-70815199D01*
X173608999Y-70815199D01*
X173608999Y-70815199D01*
X173608999Y-70815199D01*
X173609000Y-70815199D01*
X173609000Y-70815199D01*
X173609000Y-70815199D01*
X173609000Y-70815199D01*
X173609000Y-70815199D01*
X173609000Y-70815199D01*
X173609000Y-70815199D01*
X173609000Y-70815199D01*
X173609000Y-70815199D01*
X173609000Y-70815199D01*
X173609000Y-70815199D01*
X173609000Y-70815199D01*
X173609001Y-70815199D01*
X173609001Y-70815199D01*
X173609001Y-70815199D01*
X173609001Y-70815199D01*
X173609001Y-70815199D01*
X173609001Y-70815199D01*
X173609001Y-70815200D01*
X173609001Y-70815200D01*
X173609001Y-70815200D01*
X173609001Y-70815200D01*
X173609001Y-70815200D01*
X173609001Y-70815200D01*
X173609001Y-70815200D01*
D11*
D12*
X173609001Y-71450200D02*
X173609001Y-71450200D01*
X173609001Y-71450200D01*
X173609001Y-71450200D01*
X173609001Y-71450200D01*
X173609001Y-71450200D01*
X173609001Y-71450201D01*
X173609001Y-71450201D01*
X173609001Y-71450201D01*
X173609001Y-71450201D01*
X173609001Y-71450201D01*
X173609001Y-71450201D01*
X173609001Y-71450201D01*
X173609000Y-71450201D01*
X173609000Y-71450201D01*
X173609000Y-71450201D01*
X173609000Y-71450201D01*
X173609000Y-71450201D01*
X173609000Y-71450201D01*
X173609000Y-71450201D01*
X173609000Y-71450201D01*
X173609000Y-71450201D01*
X173609000Y-71450201D01*
X173609000Y-71450201D01*
X173609000Y-71450201D01*
X173608999Y-71450201D01*
X173608999Y-71450201D01*
X173608999Y-71450201D01*
X173608999Y-71450201D01*
X173608999Y-71450201D01*
X173608999Y-71450201D01*
X173608999Y-71450200D01*
X173608999Y-71450200D01*
X173608999Y-71450200D01*
X173608999Y-71450200D01*
X173608999Y-71450200D01*
X173608999Y-71450200D01*
X173608999Y-71450200D02*
X173608999Y-71450200D01*
X173608999Y-71450200D01*
X173608999Y-71450200D01*
X173608999Y-71450200D01*
X173608999Y-71450200D01*
X173608999Y-71450200D01*
X173608999Y-71450199D01*
X173608999Y-71450199D01*
X173608999Y-71450199D01*
X173608999Y-71450199D01*
X173608999Y-71450199D01*
X173609000Y-71450199D01*
X173609000Y-71450199D01*
X173609000Y-71450199D01*
X173609000Y-71450199D01*
X173609000Y-71450199D01*
X173609000Y-71450199D01*
X173609000Y-71450199D01*
X173609000Y-71450199D01*
X173609000Y-71450199D01*
X173609000Y-71450199D01*
X173609000Y-71450199D01*
X173609000Y-71450199D01*
X173609001Y-71450199D01*
X173609001Y-71450199D01*
X173609001Y-71450199D01*
X173609001Y-71450199D01*
X173609001Y-71450199D01*
X173609001Y-71450199D01*
X173609001Y-71450200D01*
X173609001Y-71450200D01*
X173609001Y-71450200D01*
X173609001Y-71450200D01*
X173609001Y-71450200D01*
X173609001Y-71450200D01*
X173609001Y-71450200D01*
D11*
D12*
X173609001Y-72085200D02*
X173609001Y-72085200D01*
X173609001Y-72085200D01*
X173609001Y-72085200D01*
X173609001Y-72085200D01*
X173609001Y-72085200D01*
X173609001Y-72085201D01*
X173609001Y-72085201D01*
X173609001Y-72085201D01*
X173609001Y-72085201D01*
X173609001Y-72085201D01*
X173609001Y-72085201D01*
X173609001Y-72085201D01*
X173609000Y-72085201D01*
X173609000Y-72085201D01*
X173609000Y-72085201D01*
X173609000Y-72085201D01*
X173609000Y-72085201D01*
X173609000Y-72085201D01*
X173609000Y-72085201D01*
X173609000Y-72085201D01*
X173609000Y-72085201D01*
X173609000Y-72085201D01*
X173609000Y-72085201D01*
X173609000Y-72085201D01*
X173608999Y-72085201D01*
X173608999Y-72085201D01*
X173608999Y-72085201D01*
X173608999Y-72085201D01*
X173608999Y-72085201D01*
X173608999Y-72085201D01*
X173608999Y-72085200D01*
X173608999Y-72085200D01*
X173608999Y-72085200D01*
X173608999Y-72085200D01*
X173608999Y-72085200D01*
X173608999Y-72085200D01*
X173608999Y-72085200D02*
X173608999Y-72085200D01*
X173608999Y-72085200D01*
X173608999Y-72085200D01*
X173608999Y-72085200D01*
X173608999Y-72085200D01*
X173608999Y-72085200D01*
X173608999Y-72085199D01*
X173608999Y-72085199D01*
X173608999Y-72085199D01*
X173608999Y-72085199D01*
X173608999Y-72085199D01*
X173609000Y-72085199D01*
X173609000Y-72085199D01*
X173609000Y-72085199D01*
X173609000Y-72085199D01*
X173609000Y-72085199D01*
X173609000Y-72085199D01*
X173609000Y-72085199D01*
X173609000Y-72085199D01*
X173609000Y-72085199D01*
X173609000Y-72085199D01*
X173609000Y-72085199D01*
X173609000Y-72085199D01*
X173609001Y-72085199D01*
X173609001Y-72085199D01*
X173609001Y-72085199D01*
X173609001Y-72085199D01*
X173609001Y-72085199D01*
X173609001Y-72085199D01*
X173609001Y-72085200D01*
X173609001Y-72085200D01*
X173609001Y-72085200D01*
X173609001Y-72085200D01*
X173609001Y-72085200D01*
X173609001Y-72085200D01*
X173609001Y-72085200D01*
D11*
D12*
X173609001Y-72720200D02*
X173609001Y-72720200D01*
X173609001Y-72720200D01*
X173609001Y-72720200D01*
X173609001Y-72720200D01*
X173609001Y-72720200D01*
X173609001Y-72720201D01*
X173609001Y-72720201D01*
X173609001Y-72720201D01*
X173609001Y-72720201D01*
X173609001Y-72720201D01*
X173609001Y-72720201D01*
X173609001Y-72720201D01*
X173609000Y-72720201D01*
X173609000Y-72720201D01*
X173609000Y-72720201D01*
X173609000Y-72720201D01*
X173609000Y-72720201D01*
X173609000Y-72720201D01*
X173609000Y-72720201D01*
X173609000Y-72720201D01*
X173609000Y-72720201D01*
X173609000Y-72720201D01*
X173609000Y-72720201D01*
X173609000Y-72720201D01*
X173608999Y-72720201D01*
X173608999Y-72720201D01*
X173608999Y-72720201D01*
X173608999Y-72720201D01*
X173608999Y-72720201D01*
X173608999Y-72720201D01*
X173608999Y-72720200D01*
X173608999Y-72720200D01*
X173608999Y-72720200D01*
X173608999Y-72720200D01*
X173608999Y-72720200D01*
X173608999Y-72720200D01*
X173608999Y-72720200D02*
X173608999Y-72720200D01*
X173608999Y-72720200D01*
X173608999Y-72720200D01*
X173608999Y-72720200D01*
X173608999Y-72720200D01*
X173608999Y-72720200D01*
X173608999Y-72720199D01*
X173608999Y-72720199D01*
X173608999Y-72720199D01*
X173608999Y-72720199D01*
X173608999Y-72720199D01*
X173609000Y-72720199D01*
X173609000Y-72720199D01*
X173609000Y-72720199D01*
X173609000Y-72720199D01*
X173609000Y-72720199D01*
X173609000Y-72720199D01*
X173609000Y-72720199D01*
X173609000Y-72720199D01*
X173609000Y-72720199D01*
X173609000Y-72720199D01*
X173609000Y-72720199D01*
X173609000Y-72720199D01*
X173609001Y-72720199D01*
X173609001Y-72720199D01*
X173609001Y-72720199D01*
X173609001Y-72720199D01*
X173609001Y-72720199D01*
X173609001Y-72720199D01*
X173609001Y-72720200D01*
X173609001Y-72720200D01*
X173609001Y-72720200D01*
X173609001Y-72720200D01*
X173609001Y-72720200D01*
X173609001Y-72720200D01*
X173609001Y-72720200D01*
D11*
D12*
X173609001Y-73355200D02*
X173609001Y-73355200D01*
X173609001Y-73355200D01*
X173609001Y-73355200D01*
X173609001Y-73355200D01*
X173609001Y-73355200D01*
X173609001Y-73355201D01*
X173609001Y-73355201D01*
X173609001Y-73355201D01*
X173609001Y-73355201D01*
X173609001Y-73355201D01*
X173609001Y-73355201D01*
X173609001Y-73355201D01*
X173609000Y-73355201D01*
X173609000Y-73355201D01*
X173609000Y-73355201D01*
X173609000Y-73355201D01*
X173609000Y-73355201D01*
X173609000Y-73355201D01*
X173609000Y-73355201D01*
X173609000Y-73355201D01*
X173609000Y-73355201D01*
X173609000Y-73355201D01*
X173609000Y-73355201D01*
X173609000Y-73355201D01*
X173608999Y-73355201D01*
X173608999Y-73355201D01*
X173608999Y-73355201D01*
X173608999Y-73355201D01*
X173608999Y-73355201D01*
X173608999Y-73355201D01*
X173608999Y-73355200D01*
X173608999Y-73355200D01*
X173608999Y-73355200D01*
X173608999Y-73355200D01*
X173608999Y-73355200D01*
X173608999Y-73355200D01*
X173608999Y-73355200D02*
X173608999Y-73355200D01*
X173608999Y-73355200D01*
X173608999Y-73355200D01*
X173608999Y-73355200D01*
X173608999Y-73355200D01*
X173608999Y-73355200D01*
X173608999Y-73355199D01*
X173608999Y-73355199D01*
X173608999Y-73355199D01*
X173608999Y-73355199D01*
X173608999Y-73355199D01*
X173609000Y-73355199D01*
X173609000Y-73355199D01*
X173609000Y-73355199D01*
X173609000Y-73355199D01*
X173609000Y-73355199D01*
X173609000Y-73355199D01*
X173609000Y-73355199D01*
X173609000Y-73355199D01*
X173609000Y-73355199D01*
X173609000Y-73355199D01*
X173609000Y-73355199D01*
X173609000Y-73355199D01*
X173609001Y-73355199D01*
X173609001Y-73355199D01*
X173609001Y-73355199D01*
X173609001Y-73355199D01*
X173609001Y-73355199D01*
X173609001Y-73355199D01*
X173609001Y-73355200D01*
X173609001Y-73355200D01*
X173609001Y-73355200D01*
X173609001Y-73355200D01*
X173609001Y-73355200D01*
X173609001Y-73355200D01*
X173609001Y-73355200D01*
D11*
D12*
X173609001Y-73990199D02*
X173609001Y-73990199D01*
X173609001Y-73990199D01*
X173609001Y-73990199D01*
X173609001Y-73990199D01*
X173609001Y-73990199D01*
X173609001Y-73990200D01*
X173609001Y-73990200D01*
X173609001Y-73990200D01*
X173609001Y-73990200D01*
X173609001Y-73990200D01*
X173609001Y-73990200D01*
X173609001Y-73990200D01*
X173609000Y-73990200D01*
X173609000Y-73990200D01*
X173609000Y-73990200D01*
X173609000Y-73990200D01*
X173609000Y-73990200D01*
X173609000Y-73990200D01*
X173609000Y-73990200D01*
X173609000Y-73990200D01*
X173609000Y-73990200D01*
X173609000Y-73990200D01*
X173609000Y-73990200D01*
X173609000Y-73990200D01*
X173608999Y-73990200D01*
X173608999Y-73990200D01*
X173608999Y-73990200D01*
X173608999Y-73990200D01*
X173608999Y-73990200D01*
X173608999Y-73990200D01*
X173608999Y-73990199D01*
X173608999Y-73990199D01*
X173608999Y-73990199D01*
X173608999Y-73990199D01*
X173608999Y-73990199D01*
X173608999Y-73990199D01*
X173608999Y-73990199D02*
X173608999Y-73990199D01*
X173608999Y-73990199D01*
X173608999Y-73990199D01*
X173608999Y-73990199D01*
X173608999Y-73990199D01*
X173608999Y-73990199D01*
X173608999Y-73990198D01*
X173608999Y-73990198D01*
X173608999Y-73990198D01*
X173608999Y-73990198D01*
X173608999Y-73990198D01*
X173609000Y-73990198D01*
X173609000Y-73990198D01*
X173609000Y-73990198D01*
X173609000Y-73990198D01*
X173609000Y-73990198D01*
X173609000Y-73990198D01*
X173609000Y-73990198D01*
X173609000Y-73990198D01*
X173609000Y-73990198D01*
X173609000Y-73990198D01*
X173609000Y-73990198D01*
X173609000Y-73990198D01*
X173609001Y-73990198D01*
X173609001Y-73990198D01*
X173609001Y-73990198D01*
X173609001Y-73990198D01*
X173609001Y-73990198D01*
X173609001Y-73990198D01*
X173609001Y-73990199D01*
X173609001Y-73990199D01*
X173609001Y-73990199D01*
X173609001Y-73990199D01*
X173609001Y-73990199D01*
X173609001Y-73990199D01*
X173609001Y-73990199D01*
D11*
D12*
X173609001Y-74625200D02*
X173609001Y-74625200D01*
X173609001Y-74625200D01*
X173609001Y-74625200D01*
X173609001Y-74625200D01*
X173609001Y-74625200D01*
X173609001Y-74625201D01*
X173609001Y-74625201D01*
X173609001Y-74625201D01*
X173609001Y-74625201D01*
X173609001Y-74625201D01*
X173609001Y-74625201D01*
X173609001Y-74625201D01*
X173609000Y-74625201D01*
X173609000Y-74625201D01*
X173609000Y-74625201D01*
X173609000Y-74625201D01*
X173609000Y-74625201D01*
X173609000Y-74625201D01*
X173609000Y-74625201D01*
X173609000Y-74625201D01*
X173609000Y-74625201D01*
X173609000Y-74625201D01*
X173609000Y-74625201D01*
X173609000Y-74625201D01*
X173608999Y-74625201D01*
X173608999Y-74625201D01*
X173608999Y-74625201D01*
X173608999Y-74625201D01*
X173608999Y-74625201D01*
X173608999Y-74625201D01*
X173608999Y-74625200D01*
X173608999Y-74625200D01*
X173608999Y-74625200D01*
X173608999Y-74625200D01*
X173608999Y-74625200D01*
X173608999Y-74625200D01*
X173608999Y-74625200D02*
X173608999Y-74625200D01*
X173608999Y-74625200D01*
X173608999Y-74625200D01*
X173608999Y-74625200D01*
X173608999Y-74625200D01*
X173608999Y-74625200D01*
X173608999Y-74625199D01*
X173608999Y-74625199D01*
X173608999Y-74625199D01*
X173608999Y-74625199D01*
X173608999Y-74625199D01*
X173609000Y-74625199D01*
X173609000Y-74625199D01*
X173609000Y-74625199D01*
X173609000Y-74625199D01*
X173609000Y-74625199D01*
X173609000Y-74625199D01*
X173609000Y-74625199D01*
X173609000Y-74625199D01*
X173609000Y-74625199D01*
X173609000Y-74625199D01*
X173609000Y-74625199D01*
X173609000Y-74625199D01*
X173609001Y-74625199D01*
X173609001Y-74625199D01*
X173609001Y-74625199D01*
X173609001Y-74625199D01*
X173609001Y-74625199D01*
X173609001Y-74625199D01*
X173609001Y-74625200D01*
X173609001Y-74625200D01*
X173609001Y-74625200D01*
X173609001Y-74625200D01*
X173609001Y-74625200D01*
X173609001Y-74625200D01*
X173609001Y-74625200D01*
D11*
D12*
X173609001Y-75260200D02*
X173609001Y-75260200D01*
X173609001Y-75260200D01*
X173609001Y-75260200D01*
X173609001Y-75260200D01*
X173609001Y-75260200D01*
X173609001Y-75260201D01*
X173609001Y-75260201D01*
X173609001Y-75260201D01*
X173609001Y-75260201D01*
X173609001Y-75260201D01*
X173609001Y-75260201D01*
X173609001Y-75260201D01*
X173609000Y-75260201D01*
X173609000Y-75260201D01*
X173609000Y-75260201D01*
X173609000Y-75260201D01*
X173609000Y-75260201D01*
X173609000Y-75260201D01*
X173609000Y-75260201D01*
X173609000Y-75260201D01*
X173609000Y-75260201D01*
X173609000Y-75260201D01*
X173609000Y-75260201D01*
X173609000Y-75260201D01*
X173608999Y-75260201D01*
X173608999Y-75260201D01*
X173608999Y-75260201D01*
X173608999Y-75260201D01*
X173608999Y-75260201D01*
X173608999Y-75260201D01*
X173608999Y-75260200D01*
X173608999Y-75260200D01*
X173608999Y-75260200D01*
X173608999Y-75260200D01*
X173608999Y-75260200D01*
X173608999Y-75260200D01*
X173608999Y-75260200D02*
X173608999Y-75260200D01*
X173608999Y-75260200D01*
X173608999Y-75260200D01*
X173608999Y-75260200D01*
X173608999Y-75260200D01*
X173608999Y-75260200D01*
X173608999Y-75260199D01*
X173608999Y-75260199D01*
X173608999Y-75260199D01*
X173608999Y-75260199D01*
X173608999Y-75260199D01*
X173609000Y-75260199D01*
X173609000Y-75260199D01*
X173609000Y-75260199D01*
X173609000Y-75260199D01*
X173609000Y-75260199D01*
X173609000Y-75260199D01*
X173609000Y-75260199D01*
X173609000Y-75260199D01*
X173609000Y-75260199D01*
X173609000Y-75260199D01*
X173609000Y-75260199D01*
X173609000Y-75260199D01*
X173609001Y-75260199D01*
X173609001Y-75260199D01*
X173609001Y-75260199D01*
X173609001Y-75260199D01*
X173609001Y-75260199D01*
X173609001Y-75260199D01*
X173609001Y-75260200D01*
X173609001Y-75260200D01*
X173609001Y-75260200D01*
X173609001Y-75260200D01*
X173609001Y-75260200D01*
X173609001Y-75260200D01*
X173609001Y-75260200D01*
D11*
D12*
X173609001Y-75895200D02*
X173609001Y-75895200D01*
X173609001Y-75895200D01*
X173609001Y-75895200D01*
X173609001Y-75895200D01*
X173609001Y-75895200D01*
X173609001Y-75895201D01*
X173609001Y-75895201D01*
X173609001Y-75895201D01*
X173609001Y-75895201D01*
X173609001Y-75895201D01*
X173609001Y-75895201D01*
X173609001Y-75895201D01*
X173609000Y-75895201D01*
X173609000Y-75895201D01*
X173609000Y-75895201D01*
X173609000Y-75895201D01*
X173609000Y-75895201D01*
X173609000Y-75895201D01*
X173609000Y-75895201D01*
X173609000Y-75895201D01*
X173609000Y-75895201D01*
X173609000Y-75895201D01*
X173609000Y-75895201D01*
X173609000Y-75895201D01*
X173608999Y-75895201D01*
X173608999Y-75895201D01*
X173608999Y-75895201D01*
X173608999Y-75895201D01*
X173608999Y-75895201D01*
X173608999Y-75895201D01*
X173608999Y-75895200D01*
X173608999Y-75895200D01*
X173608999Y-75895200D01*
X173608999Y-75895200D01*
X173608999Y-75895200D01*
X173608999Y-75895200D01*
X173608999Y-75895200D02*
X173608999Y-75895200D01*
X173608999Y-75895200D01*
X173608999Y-75895200D01*
X173608999Y-75895200D01*
X173608999Y-75895200D01*
X173608999Y-75895200D01*
X173608999Y-75895199D01*
X173608999Y-75895199D01*
X173608999Y-75895199D01*
X173608999Y-75895199D01*
X173608999Y-75895199D01*
X173609000Y-75895199D01*
X173609000Y-75895199D01*
X173609000Y-75895199D01*
X173609000Y-75895199D01*
X173609000Y-75895199D01*
X173609000Y-75895199D01*
X173609000Y-75895199D01*
X173609000Y-75895199D01*
X173609000Y-75895199D01*
X173609000Y-75895199D01*
X173609000Y-75895199D01*
X173609000Y-75895199D01*
X173609001Y-75895199D01*
X173609001Y-75895199D01*
X173609001Y-75895199D01*
X173609001Y-75895199D01*
X173609001Y-75895199D01*
X173609001Y-75895199D01*
X173609001Y-75895200D01*
X173609001Y-75895200D01*
X173609001Y-75895200D01*
X173609001Y-75895200D01*
X173609001Y-75895200D01*
X173609001Y-75895200D01*
X173609001Y-75895200D01*
D11*
D12*
X173609001Y-76530200D02*
X173609001Y-76530200D01*
X173609001Y-76530200D01*
X173609001Y-76530200D01*
X173609001Y-76530200D01*
X173609001Y-76530200D01*
X173609001Y-76530201D01*
X173609001Y-76530201D01*
X173609001Y-76530201D01*
X173609001Y-76530201D01*
X173609001Y-76530201D01*
X173609001Y-76530201D01*
X173609001Y-76530201D01*
X173609000Y-76530201D01*
X173609000Y-76530201D01*
X173609000Y-76530201D01*
X173609000Y-76530201D01*
X173609000Y-76530201D01*
X173609000Y-76530201D01*
X173609000Y-76530201D01*
X173609000Y-76530201D01*
X173609000Y-76530201D01*
X173609000Y-76530201D01*
X173609000Y-76530201D01*
X173609000Y-76530201D01*
X173608999Y-76530201D01*
X173608999Y-76530201D01*
X173608999Y-76530201D01*
X173608999Y-76530201D01*
X173608999Y-76530201D01*
X173608999Y-76530201D01*
X173608999Y-76530200D01*
X173608999Y-76530200D01*
X173608999Y-76530200D01*
X173608999Y-76530200D01*
X173608999Y-76530200D01*
X173608999Y-76530200D01*
X173608999Y-76530200D02*
X173608999Y-76530200D01*
X173608999Y-76530200D01*
X173608999Y-76530200D01*
X173608999Y-76530200D01*
X173608999Y-76530200D01*
X173608999Y-76530200D01*
X173608999Y-76530199D01*
X173608999Y-76530199D01*
X173608999Y-76530199D01*
X173608999Y-76530199D01*
X173608999Y-76530199D01*
X173609000Y-76530199D01*
X173609000Y-76530199D01*
X173609000Y-76530199D01*
X173609000Y-76530199D01*
X173609000Y-76530199D01*
X173609000Y-76530199D01*
X173609000Y-76530199D01*
X173609000Y-76530199D01*
X173609000Y-76530199D01*
X173609000Y-76530199D01*
X173609000Y-76530199D01*
X173609000Y-76530199D01*
X173609001Y-76530199D01*
X173609001Y-76530199D01*
X173609001Y-76530199D01*
X173609001Y-76530199D01*
X173609001Y-76530199D01*
X173609001Y-76530199D01*
X173609001Y-76530200D01*
X173609001Y-76530200D01*
X173609001Y-76530200D01*
X173609001Y-76530200D01*
X173609001Y-76530200D01*
X173609001Y-76530200D01*
X173609001Y-76530200D01*
D11*
D12*
X173609001Y-77165200D02*
X173609001Y-77165200D01*
X173609001Y-77165200D01*
X173609001Y-77165200D01*
X173609001Y-77165200D01*
X173609001Y-77165200D01*
X173609001Y-77165201D01*
X173609001Y-77165201D01*
X173609001Y-77165201D01*
X173609001Y-77165201D01*
X173609001Y-77165201D01*
X173609001Y-77165201D01*
X173609001Y-77165201D01*
X173609000Y-77165201D01*
X173609000Y-77165201D01*
X173609000Y-77165201D01*
X173609000Y-77165201D01*
X173609000Y-77165201D01*
X173609000Y-77165201D01*
X173609000Y-77165201D01*
X173609000Y-77165201D01*
X173609000Y-77165201D01*
X173609000Y-77165201D01*
X173609000Y-77165201D01*
X173609000Y-77165201D01*
X173608999Y-77165201D01*
X173608999Y-77165201D01*
X173608999Y-77165201D01*
X173608999Y-77165201D01*
X173608999Y-77165201D01*
X173608999Y-77165201D01*
X173608999Y-77165200D01*
X173608999Y-77165200D01*
X173608999Y-77165200D01*
X173608999Y-77165200D01*
X173608999Y-77165200D01*
X173608999Y-77165200D01*
X173608999Y-77165200D02*
X173608999Y-77165200D01*
X173608999Y-77165200D01*
X173608999Y-77165200D01*
X173608999Y-77165200D01*
X173608999Y-77165200D01*
X173608999Y-77165200D01*
X173608999Y-77165199D01*
X173608999Y-77165199D01*
X173608999Y-77165199D01*
X173608999Y-77165199D01*
X173608999Y-77165199D01*
X173609000Y-77165199D01*
X173609000Y-77165199D01*
X173609000Y-77165199D01*
X173609000Y-77165199D01*
X173609000Y-77165199D01*
X173609000Y-77165199D01*
X173609000Y-77165199D01*
X173609000Y-77165199D01*
X173609000Y-77165199D01*
X173609000Y-77165199D01*
X173609000Y-77165199D01*
X173609000Y-77165199D01*
X173609001Y-77165199D01*
X173609001Y-77165199D01*
X173609001Y-77165199D01*
X173609001Y-77165199D01*
X173609001Y-77165199D01*
X173609001Y-77165199D01*
X173609001Y-77165200D01*
X173609001Y-77165200D01*
X173609001Y-77165200D01*
X173609001Y-77165200D01*
X173609001Y-77165200D01*
X173609001Y-77165200D01*
X173609001Y-77165200D01*
D11*
D12*
X173609001Y-77800200D02*
X173609001Y-77800200D01*
X173609001Y-77800200D01*
X173609001Y-77800200D01*
X173609001Y-77800200D01*
X173609001Y-77800200D01*
X173609001Y-77800201D01*
X173609001Y-77800201D01*
X173609001Y-77800201D01*
X173609001Y-77800201D01*
X173609001Y-77800201D01*
X173609001Y-77800201D01*
X173609001Y-77800201D01*
X173609000Y-77800201D01*
X173609000Y-77800201D01*
X173609000Y-77800201D01*
X173609000Y-77800201D01*
X173609000Y-77800201D01*
X173609000Y-77800201D01*
X173609000Y-77800201D01*
X173609000Y-77800201D01*
X173609000Y-77800201D01*
X173609000Y-77800201D01*
X173609000Y-77800201D01*
X173609000Y-77800201D01*
X173608999Y-77800201D01*
X173608999Y-77800201D01*
X173608999Y-77800201D01*
X173608999Y-77800201D01*
X173608999Y-77800201D01*
X173608999Y-77800201D01*
X173608999Y-77800200D01*
X173608999Y-77800200D01*
X173608999Y-77800200D01*
X173608999Y-77800200D01*
X173608999Y-77800200D01*
X173608999Y-77800200D01*
X173608999Y-77800200D02*
X173608999Y-77800200D01*
X173608999Y-77800200D01*
X173608999Y-77800200D01*
X173608999Y-77800200D01*
X173608999Y-77800200D01*
X173608999Y-77800200D01*
X173608999Y-77800199D01*
X173608999Y-77800199D01*
X173608999Y-77800199D01*
X173608999Y-77800199D01*
X173608999Y-77800199D01*
X173609000Y-77800199D01*
X173609000Y-77800199D01*
X173609000Y-77800199D01*
X173609000Y-77800199D01*
X173609000Y-77800199D01*
X173609000Y-77800199D01*
X173609000Y-77800199D01*
X173609000Y-77800199D01*
X173609000Y-77800199D01*
X173609000Y-77800199D01*
X173609000Y-77800199D01*
X173609000Y-77800199D01*
X173609001Y-77800199D01*
X173609001Y-77800199D01*
X173609001Y-77800199D01*
X173609001Y-77800199D01*
X173609001Y-77800199D01*
X173609001Y-77800199D01*
X173609001Y-77800200D01*
X173609001Y-77800200D01*
X173609001Y-77800200D01*
X173609001Y-77800200D01*
X173609001Y-77800200D01*
X173609001Y-77800200D01*
X173609001Y-77800200D01*
D10*
X173979041Y-51830441D02*
G75*
G02*
X174980600Y-50114200I1971159J41D01*
G01*
X173990000Y-69215000D02*
G75*
G02*
X172720000Y-70485000I-1270000J0D01*
G01*
X173990000Y-69215000D02*
X173979041Y-51830441D01*
X173990000Y-94615000D02*
G75*
G02*
X172872396Y-96392991I-1973100J0D01*
G01*
X173990000Y-94615000D02*
X173990000Y-79375000D01*
X174980600Y-50114200D02*
X185420000Y-42291000D01*
X185420000Y-42291000D02*
X221615000Y-32385000D01*
X218504930Y-114299999D02*
X159512000Y-121538999D01*
X221615000Y-32385000D02*
X276098000Y-32424841D01*
X222250000Y-110753737D02*
G75*
G02*
X218504935Y-114300022I-4803900J1322537D01*
G01*
X222310612Y-110608606D02*
X222250000Y-110753737D01*
X222310612Y-110608604D02*
G75*
G02*
X232474930Y-103505028I10164288J-3720096D01*
G01*
X224536000Y-90551000D02*
X257302000Y-90551000D01*
X257302000Y-101219000D01*
X224536000Y-101219000D01*
X224536000Y-90551000D01*
X276098000Y-32424841D02*
G75*
G02*
X278130059Y-34456841I0J-2032059D01*
G01*
X276098000Y-103504999D02*
X232474930Y-103504999D01*
X278130000Y-34456841D02*
X278130000Y-101473000D01*
X278130000Y-101473000D02*
G75*
G02*
X276098000Y-103505000I-2032000J0D01*
G01*
M02*
