M48
; DRILL file KiCad 10.0.2 date 2026-05-12T18:23:40
; FORMAT={-:-/ absolute / metric / decimal}
; #@! TF.CreationDate,2026-05-12T18:23:40+02:00
; #@! TF.GenerationSoftware,Kicad,Pcbnew,10.0.2
; #@! TF.FileFunction,NonPlated,1,2,NPTH
FMAT,2
METRIC
; #@! TA.AperFunction,NonPlated,NPTH,ComponentDrill
T1C0.700
; #@! TA.AperFunction,NonPlated,NPTH,ComponentDrill
T2C1.050
; #@! TA.AperFunction,NonPlated,NPTH,ComponentDrill
T3C1.200
%
G90
G05
T1
X83.754Y-36.26
X86.624Y-37.135
X211.417Y-37.052
X214.315Y-36.273
T2
X26.086Y-62.069
X26.086Y-79.069
X26.086Y-96.069
X44.086Y-49.069
X44.086Y-66.069
X44.086Y-83.069
X62.086Y-42.069
X62.086Y-59.069
X62.086Y-76.069
X80.086Y-50.069
X80.086Y-67.069
X80.086Y-84.069
X90.469Y-106.744
X98.086Y-52.069
X98.086Y-69.069
X98.086Y-86.069
X110.455Y-105.13
X130.112Y-109.099
X157.75Y-113.817
X176.668Y-106.745
X188.758Y-52.069
X188.758Y-69.069
X188.758Y-86.069
X196.654Y-105.13
X206.752Y-50.069
X206.752Y-67.069
X206.752Y-84.069
X224.758Y-42.069
X224.758Y-59.069
X224.758Y-76.069
X242.758Y-49.069
X242.758Y-66.069
X242.758Y-83.069
X260.758Y-62.069
X260.758Y-79.069
X260.758Y-96.069
T3
X37.686Y-57.609
X37.686Y-64.129
X37.686Y-74.609
X37.686Y-81.129
X37.686Y-91.609
X37.686Y-98.129
X55.686Y-44.609
X55.686Y-51.129
X55.686Y-61.609
X55.686Y-68.129
X55.686Y-78.609
X55.686Y-85.129
X73.686Y-37.609
X73.686Y-44.129
X73.686Y-54.609
X73.686Y-61.129
X73.686Y-71.609
X73.686Y-78.129
X91.686Y-45.609
X91.686Y-52.129
X91.686Y-62.609
X91.686Y-69.129
X91.686Y-79.609
X91.686Y-86.129
X101.336Y-100.713
X102.243Y-107.17
X109.686Y-47.609
X109.686Y-54.129
X109.686Y-64.609
X109.686Y-71.129
X109.686Y-81.609
X109.686Y-88.129
X121.656Y-108.784
X122.563Y-102.328
X139.871Y-115.699
X142.523Y-109.743
X166.533Y-105.025
X169.185Y-110.981
X187.535Y-100.714
X188.442Y-107.17
X200.358Y-47.609
X200.358Y-54.129
X200.358Y-64.609
X200.358Y-71.129
X200.358Y-81.609
X200.358Y-88.129
X207.855Y-108.784
X208.762Y-102.328
X218.352Y-45.609
X218.352Y-52.129
X218.352Y-62.609
X218.352Y-69.129
X218.352Y-79.609
X218.352Y-86.129
X236.358Y-37.609
X236.358Y-44.129
X236.358Y-54.609
X236.358Y-61.129
X236.358Y-71.609
X236.358Y-78.129
X254.358Y-44.609
X254.358Y-51.129
X254.358Y-61.609
X254.358Y-68.129
X254.358Y-78.609
X254.358Y-85.129
X272.358Y-57.609
X272.358Y-64.129
X272.358Y-74.609
X272.358Y-81.129
X272.358Y-91.609
X272.358Y-98.129
M30
