<?xml version="1.0" encoding="UTF-8" standalone="no"?>
<svg
   version="1.1"
   width="263.0932mm"
   height="92.2020mm"
   viewBox="0.0000 0.0000 263.0932 92.2020"
   id="svg1055"
   sodipodi:docname="layout.svg"
   inkscape:version="1.3.2 (091e20ef0f, 2023-11-25)"
   xmlns:inkscape="http://www.inkscape.org/namespaces/inkscape"
   xmlns:sodipodi="http://sodipodi.sourceforge.net/DTD/sodipodi-0.dtd"
   xmlns="http://www.w3.org/2000/svg"
   xmlns:svg="http://www.w3.org/2000/svg">
  <defs
     id="defs1055" />
  <sodipodi:namedview
     id="namedview1055"
     pagecolor="#ffffff"
     bordercolor="#000000"
     borderopacity="0.25"
     inkscape:showpageshadow="2"
     inkscape:pageopacity="0.0"
     inkscape:pagecheckerboard="0"
     inkscape:deskcolor="#d1d1d1"
     inkscape:document-units="mm"
     inkscape:zoom="14.69719"
     inkscape:cx="573.88521"
     inkscape:cy="120.66932"
     inkscape:window-width="2556"
     inkscape:window-height="1377"
     inkscape:window-x="0"
     inkscape:window-y="0"
     inkscape:window-maximized="0"
     inkscape:current-layer="svg1055" />
  <title
     id="title1">SVG Image created as mnhttn-User_Comments.svg date 2024/02/15 11:27:25 </title>
  <desc
     id="desc1">Image generated by PCBNEW </desc>
  <g
     style="fill:#000000; fill-opacity:1.0000;stroke:#000000; stroke-opacity:1.0000; stroke-linecap:round; stroke-linejoin:round;"
     transform="translate(0 0) scale(1 1)"
     id="g1" />
  <g
     style="fill:#000000; fill-opacity:0.0;  stroke:#000000; stroke-width:0.0000; stroke-opacity:1;  stroke-linecap:round; stroke-linejoin:round;"
     id="g2" />
  <g
     style="fill:#5994DC; fill-opacity:0.0;  stroke:#5994DC; stroke-width:0.0000; stroke-opacity:1;  stroke-linecap:round; stroke-linejoin:round;"
     id="g3" />
  <g
     style="fill:#5994DC; fill-opacity:0.0;  stroke:#5994DC; stroke-width:0.1200; stroke-opacity:1;  stroke-linecap:round; stroke-linejoin:round;"
     id="g231">
    <path
       d="M60.7202 45.7365 L75.7202 45.7365 "
       id="path3" />
    <path
       d="M75.7202 45.7365 L75.7202 60.7365 "
       id="path4" />
    <path
       d="M75.7202 60.7365 L60.7202 60.7365 "
       id="path5" />
    <path
       d="M60.7202 60.7365 L60.7202 45.7365 "
       id="path6" />
    <path
       d="M60.7202 11.7365 L75.7202 11.7365 "
       id="path7" />
    <path
       d="M75.7202 11.7365 L75.7202 26.7365 "
       id="path8" />
    <path
       d="M75.7202 26.7365 L60.7202 26.7365 "
       id="path9" />
    <path
       d="M60.7202 26.7365 L60.7202 11.7365 "
       id="path10" />
    <path
       d="M6.7202 40.7365 L21.7202 40.7365 "
       id="path11" />
    <path
       d="M21.7202 40.7365 L21.7202 55.7365 "
       id="path12" />
    <path
       d="M21.7202 55.7365 L6.7202 55.7365 "
       id="path13" />
    <path
       d="M6.7202 55.7365 L6.7202 40.7365 "
       id="path14" />
    <path
       d="M136.2651 76.9286 L149.9683 70.8276 "
       id="path15" />
    <path
       d="M149.9683 70.8276 L156.0694 84.5308 "
       id="path16" />
    <path
       d="M156.0694 84.5308 L142.3662 90.6318 "
       id="path17" />
    <path
       d="M142.3662 90.6318 L136.2651 76.9286 "
       id="path18" />
    <path
       d="M78.7202 47.7365 L93.7202 47.7365 "
       id="path19" />
    <path
       d="M93.7202 47.7365 L93.7202 62.7365 "
       id="path20" />
    <path
       d="M93.7202 62.7365 L78.7202 62.7365 "
       id="path21" />
    <path
       d="M78.7202 62.7365 L78.7202 47.7365 "
       id="path22" />
    <path
       d="M78.7202 13.7365 L93.7202 13.7365 "
       id="path23" />
    <path
       d="M93.7202 13.7365 L93.7202 28.7365 "
       id="path24" />
    <path
       d="M93.7202 28.7365 L78.7202 28.7365 "
       id="path25" />
    <path
       d="M78.7202 28.7365 L78.7202 13.7365 "
       id="path26" />
    <path
       d="M42.7202 3.7365 L57.7202 3.7365 "
       id="path27" />
    <path
       d="M57.7202 3.7365 L57.7202 18.7365 "
       id="path28" />
    <path
       d="M57.7202 18.7365 L42.7202 18.7365 "
       id="path29" />
    <path
       d="M42.7202 18.7365 L42.7202 3.7365 "
       id="path30" />
    <path
       d="M24.7202 44.7365 L39.7202 44.7365 "
       id="path31" />
    <path
       d="M39.7202 44.7365 L39.7202 59.7365 "
       id="path32" />
    <path
       d="M39.7202 59.7365 L24.7202 59.7365 "
       id="path33" />
    <path
       d="M24.7202 59.7365 L24.7202 44.7365 "
       id="path34" />
    <path
       d="M24.7202 10.7365 L39.7202 10.7365 "
       id="path35" />
    <path
       d="M39.7202 10.7365 L39.7202 25.7365 "
       id="path36" />
    <path
       d="M39.7202 25.7365 L24.7202 25.7365 "
       id="path37" />
    <path
       d="M24.7202 25.7365 L24.7202 10.7365 "
       id="path38" />
    <path
       d="M78.7202 30.7365 L93.7202 30.7365 "
       id="path39" />
    <path
       d="M93.7202 30.7365 L93.7202 45.7365 "
       id="path40" />
    <path
       d="M93.7202 45.7365 L78.7202 45.7365 "
       id="path41" />
    <path
       d="M78.7202 45.7365 L78.7202 30.7365 "
       id="path42" />
    <path
       d="M179.6370 66.6459 L194.4910 68.7335 "
       id="path43" />
    <path
       d="M194.4910 68.7335 L192.4035 83.5875 "
       id="path44" />
    <path
       d="M192.4035 83.5875 L177.5494 81.4999 "
       id="path45" />
    <path
       d="M177.5494 81.4999 L179.6370 66.6459 "
       id="path46" />
    <path
       d="M241.3920 23.7365 L256.3920 23.7365 "
       id="path47" />
    <path
       d="M256.3920 23.7365 L256.3920 38.7365 "
       id="path48" />
    <path
       d="M256.3920 38.7365 L241.3920 38.7365 "
       id="path49" />
    <path
       d="M241.3920 38.7365 L241.3920 23.7365 "
       id="path50" />
    <path
       d="M92.3170 66.6457 L107.1710 68.7333 "
       id="path51" />
    <path
       d="M107.1710 68.7333 L105.0835 83.5873 "
       id="path52" />
    <path
       d="M105.0835 83.5873 L90.2294 81.4997 "
       id="path53" />
    <path
       d="M90.2294 81.4997 L92.3170 66.6457 "
       id="path54" />
    <path
       d="M205.3920 20.7365 L220.3920 20.7365 "
       id="path55" />
    <path
       d="M220.3920 20.7365 L220.3920 35.7365 "
       id="path56" />
    <path
       d="M220.3920 35.7365 L205.3920 35.7365 "
       id="path57" />
    <path
       d="M205.3920 35.7365 L205.3920 20.7365 "
       id="path58" />
    <path
       d="M241.3920 40.7365 L256.3920 40.7365 "
       id="path59" />
    <path
       d="M256.3920 40.7365 L256.3920 55.7365 "
       id="path60" />
    <path
       d="M256.3920 55.7365 L241.3920 55.7365 "
       id="path61" />
    <path
       d="M241.3920 55.7365 L241.3920 40.7365 "
       id="path62" />
    <path
       d="M60.7202 28.7365 L75.7202 28.7365 "
       id="path63" />
    <path
       d="M75.7202 28.7365 L75.7202 43.7365 "
       id="path64" />
    <path
       d="M75.7202 43.7365 L60.7202 43.7365 "
       id="path65" />
    <path
       d="M60.7202 43.7365 L60.7202 28.7365 "
       id="path66" />
    <path
       d="M187.3857 45.7365 L202.3857 45.7365 "
       id="path67" />
    <path
       d="M202.3857 45.7365 L202.3857 60.7365 "
       id="path68" />
    <path
       d="M202.3857 60.7365 L187.3857 60.7365 "
       id="path69" />
    <path
       d="M187.3857 60.7365 L187.3857 45.7365 "
       id="path70" />
    <path
       d="M223.3920 27.7365 L238.3920 27.7365 "
       id="path71" />
    <path
       d="M238.3920 27.7365 L238.3920 42.7365 "
       id="path72" />
    <path
       d="M238.3920 42.7365 L223.3920 42.7365 "
       id="path73" />
    <path
       d="M223.3920 42.7365 L223.3920 27.7365 "
       id="path74" />
    <path
       d="M157.2294 68.7335 L172.0835 66.6459 "
       id="path75" />
    <path
       d="M172.0835 66.6459 L174.1710 81.4999 "
       id="path76" />
    <path
       d="M174.1710 81.4999 L159.3170 83.5875 "
       id="path77" />
    <path
       d="M159.3170 83.5875 L157.2294 68.7335 "
       id="path78" />
    <path
       d="M6.7202 57.7365 L21.7202 57.7365 "
       id="path79" />
    <path
       d="M21.7202 57.7365 L21.7202 72.7365 "
       id="path80" />
    <path
       d="M21.7202 72.7365 L6.7202 72.7365 "
       id="path81" />
    <path
       d="M6.7202 72.7365 L6.7202 57.7365 "
       id="path82" />
    <path
       d="M114.4318 70.8278 L128.1350 76.9288 "
       id="path83" />
    <path
       d="M128.1350 76.9288 L122.0339 90.6320 "
       id="path84" />
    <path
       d="M122.0339 90.6320 L108.3307 84.5310 "
       id="path85" />
    <path
       d="M108.3307 84.5310 L114.4318 70.8278 "
       id="path86" />
    <path
       d="M42.7202 20.7365 L57.7202 20.7365 "
       id="path87" />
    <path
       d="M57.7202 20.7365 L57.7202 35.7365 "
       id="path88" />
    <path
       d="M57.7202 35.7365 L42.7202 35.7365 "
       id="path89" />
    <path
       d="M42.7202 35.7365 L42.7202 20.7365 "
       id="path90" />
    <path
       d="M169.3920 30.7365 L184.3920 30.7365 "
       id="path91" />
    <path
       d="M184.3920 30.7365 L184.3920 45.7365 "
       id="path92" />
    <path
       d="M184.3920 45.7365 L169.3920 45.7365 "
       id="path93" />
    <path
       d="M169.3920 45.7365 L169.3920 30.7365 "
       id="path94" />
    <path
       d="M223.3920 10.7365 L238.3920 10.7365 "
       id="path95" />
    <path
       d="M238.3920 10.7365 L238.3920 25.7365 "
       id="path96" />
    <path
       d="M238.3920 25.7365 L223.3920 25.7365 "
       id="path97" />
    <path
       d="M223.3920 25.7365 L223.3920 10.7365 "
       id="path98" />
    <path
       d="M205.3920 3.7365 L220.3920 3.7365 "
       id="path99" />
    <path
       d="M220.3920 3.7365 L220.3920 18.7365 "
       id="path100" />
    <path
       d="M220.3920 18.7365 L205.3920 18.7365 "
       id="path101" />
    <path
       d="M205.3920 18.7365 L205.3920 3.7365 "
       id="path102" />
    <path
       d="M169.3920 47.7365 L184.3920 47.7365 "
       id="path103" />
    <path
       d="M184.3920 47.7365 L184.3920 62.7365 "
       id="path104" />
    <path
       d="M184.3920 62.7365 L169.3920 62.7365 "
       id="path105" />
    <path
       d="M169.3920 62.7365 L169.3920 47.7365 "
       id="path106" />
    <path
       d="M223.3920 44.7365 L238.3920 44.7365 "
       id="path107" />
    <path
       d="M238.3920 44.7365 L238.3920 59.7365 "
       id="path108" />
    <path
       d="M238.3920 59.7365 L223.3920 59.7365 "
       id="path109" />
    <path
       d="M223.3920 59.7365 L223.3920 44.7365 "
       id="path110" />
    <path
       d="M69.9094 68.7333 L84.7635 66.6457 "
       id="path111" />
    <path
       d="M84.7635 66.6457 L86.8510 81.4997 "
       id="path112" />
    <path
       d="M86.8510 81.4997 L71.9970 83.5873 "
       id="path113" />
    <path
       d="M71.9970 83.5873 L69.9094 68.7333 "
       id="path114" />
    <path
       d="M24.7202 27.7365 L39.7202 27.7365 "
       id="path115" />
    <path
       d="M39.7202 27.7365 L39.7202 42.7365 "
       id="path116" />
    <path
       d="M39.7202 42.7365 L24.7202 42.7365 "
       id="path117" />
    <path
       d="M24.7202 42.7365 L24.7202 27.7365 "
       id="path118" />
    <path
       d="M42.7202 37.7365 L57.7202 37.7365 "
       id="path119" />
    <path
       d="M57.7202 37.7365 L57.7202 52.7365 "
       id="path120" />
    <path
       d="M57.7202 52.7365 L42.7202 52.7365 "
       id="path121" />
    <path
       d="M42.7202 52.7365 L42.7202 37.7365 "
       id="path122" />
    <path
       d="M187.3857 28.7365 L202.3857 28.7365 "
       id="path123" />
    <path
       d="M202.3857 28.7365 L202.3857 43.7365 "
       id="path124" />
    <path
       d="M202.3857 43.7365 L187.3857 43.7365 "
       id="path125" />
    <path
       d="M187.3857 43.7365 L187.3857 28.7365 "
       id="path126" />
    <path
       d="M205.3920 37.7365 L220.3920 37.7365 "
       id="path127" />
    <path
       d="M220.3920 37.7365 L220.3920 52.7365 "
       id="path128" />
    <path
       d="M220.3920 52.7365 L205.3920 52.7365 "
       id="path129" />
    <path
       d="M205.3920 52.7365 L205.3920 37.7365 "
       id="path130" />
    <path
       d="M187.3857 11.7365 L202.3857 11.7365 "
       id="path131" />
    <path
       d="M202.3857 11.7365 L202.3857 26.7365 "
       id="path132" />
    <path
       d="M202.3857 26.7365 L187.3857 26.7365 "
       id="path133" />
    <path
       d="M187.3857 26.7365 L187.3857 11.7365 "
       id="path134" />
    <path
       d="M241.3920 57.7365 L256.3920 57.7365 "
       id="path135" />
    <path
       d="M256.3920 57.7365 L256.3920 72.7365 "
       id="path136" />
    <path
       d="M256.3920 72.7365 L241.3920 72.7365 "
       id="path137" />
    <path
       d="M241.3920 72.7365 L241.3920 57.7365 "
       id="path138" />
    <path
       d="M169.3920 13.7365 L184.3920 13.7365 "
       id="path139" />
    <path
       d="M184.3920 13.7365 L184.3920 28.7365 "
       id="path140" />
    <path
       d="M184.3920 28.7365 L169.3920 28.7365 "
       id="path141" />
    <path
       d="M169.3920 28.7365 L169.3920 13.7365 "
       id="path142" />
    <path
       d="M6.7202 23.7365 L21.7202 23.7365 "
       id="path143" />
    <path
       d="M21.7202 23.7365 L21.7202 38.7365 "
       id="path144" />
    <path
       d="M21.7202 38.7365 L6.7202 38.7365 "
       id="path145" />
    <path
       d="M6.7202 38.7365 L6.7202 23.7365 "
       id="path146" />
    <g
       id="g146" />
    <g
       id="g147" />
    <g
       id="g148" />
    <g
       id="g149" />
    <g
       id="g150" />
    <g
       id="g151" />
    <g
       id="g152" />
    <g
       id="g153" />
    <g
       id="g154" />
    <g
       id="g155" />
    <g
       id="g156" />
    <g
       id="g157" />
    <g
       id="g158" />
    <g
       id="g159" />
    <g
       id="g160" />
    <g
       id="g161" />
    <g
       id="g162" />
    <g
       id="g163" />
    <g
       id="g164" />
    <g
       id="g165" />
    <g
       id="g166" />
    <g
       id="g167" />
    <g
       id="g168" />
    <g
       id="g169" />
    <g
       id="g170" />
    <g
       id="g171" />
    <g
       id="g172" />
    <g
       id="g173" />
    <g
       id="g174" />
    <g
       id="g175" />
    <g
       id="g176" />
    <g
       id="g177" />
    <g
       id="g178" />
    <g
       id="g179" />
    <g
       id="g180" />
    <g
       id="g181" />
    <g
       id="g182" />
    <g
       id="g183" />
    <g
       id="g184" />
    <g
       id="g185" />
    <g
       id="g186" />
    <g
       id="g187" />
    <g
       id="g188" />
    <g
       id="g189" />
    <g
       id="g190" />
    <g
       id="g191" />
    <g
       id="g192" />
    <g
       id="g193" />
    <g
       id="g194" />
    <g
       id="g195" />
    <g
       id="g196" />
    <g
       id="g197" />
    <g
       id="g198" />
    <g
       id="g199" />
    <g
       id="g200" />
    <g
       id="g201" />
    <g
       id="g202" />
    <g
       id="g203" />
    <g
       id="g204" />
    <g
       id="g205" />
    <g
       id="g206" />
    <g
       id="g207" />
    <g
       id="g208" />
    <g
       id="g209" />
    <g
       id="g210" />
    <g
       id="g211" />
    <g
       id="g212" />
    <g
       id="g213" />
    <g
       id="g214" />
    <g
       id="g215" />
    <g
       id="g216" />
    <g
       id="g217" />
    <g
       id="g218" />
    <g
       id="g219" />
    <g
       id="g220" />
    <g
       id="g221" />
    <g
       id="g222" />
    <g
       id="g223" />
    <g
       id="g224" />
    <g
       id="g225" />
    <g
       id="g226" />
    <g
       id="g227" />
    <g
       id="g228" />
    <g
       id="g229" />
    <g
       id="g230" />
  </g>
  <g
     style="fill:#000000; fill-opacity:0.0;  stroke:#000000; stroke-width:0.1200; stroke-opacity:1;  stroke-linecap:round; stroke-linejoin:round;"
     id="g232" />
  <g
     style="fill:#D0D2CD; fill-opacity:0.0;  stroke:#D0D2CD; stroke-width:0.1200; stroke-opacity:1;  stroke-linecap:round; stroke-linejoin:round;"
     id="g233" />
  <g
     style="fill:#D0D2CD; fill-opacity:0.0;  stroke:#D0D2CD; stroke-width:0.1000; stroke-opacity:1;  stroke-linecap:round; stroke-linejoin:round;"
     id="g234">
    <path
       d="m 156.3242,64.9827 c 0.005,-14.261537 -0.002,-28.523067 -0.0109,-42.7846"
       id="path233"
       sodipodi:nodetypes="cc" />
  </g>
  <g
     style="fill:#D0D2CD; fill-opacity:0.0;  stroke:#D0D2CD; stroke-width:0.6350; stroke-opacity:1;  stroke-linecap:round; stroke-linejoin:round;"
     id="g235" />
  <g
     style="fill:#D0D2CD; fill-opacity:1.0000;  stroke:#D0D2CD; stroke-width:0.1000; stroke-opacity:1;  stroke-linecap:round; stroke-linejoin:round;"
     id="g237" />
  <g
     style="fill:#D0D2CD; fill-opacity:0.0;  stroke:#D0D2CD; stroke-width:0.1000; stroke-opacity:1;  stroke-linecap:round; stroke-linejoin:round;"
     id="g240">
    <path
       d="M2.6542 4.8245 L2.6542 71.8407 "
       id="path237" />
    <path
       d="M192.5192 84.6677 A4.9826 4.9826 0.0 0 0 196.2643 81.1214"
       id="path238" />
    <path
       d="M196.3249 80.9763 L196.2643 81.1214 "
       id="path240" />
  </g>
  <g
     style="fill:#D0D2CD; fill-opacity:0.0;  stroke:#D0D2CD; stroke-width:0.6350; stroke-opacity:1;  stroke-linecap:round; stroke-linejoin:round;"
     id="g241" />
  <g
     style="fill:#D0D2CD; fill-opacity:0.0;  stroke:#D0D2CD; stroke-width:0.6350; stroke-opacity:1;  stroke-linecap:round; stroke-linejoin:round;"
     id="g243" />
  <g
     style="fill:#D0D2CD; fill-opacity:0.0;  stroke:#D0D2CD; stroke-width:0.1000; stroke-opacity:1;  stroke-linecap:round; stroke-linejoin:round;"
     id="g245">
    <path
       d="M4.6862 2.7925 A2.0319 2.0319 0.0 0 0 2.6542 4.8245"
       id="path244" />
  </g>
  <g
     style="fill:#D0D2CD; fill-opacity:0.0;  stroke:#D0D2CD; stroke-width:0.6350; stroke-opacity:1;  stroke-linecap:round; stroke-linejoin:round;"
     id="g246" />
  <g
     style="fill:#D0D2CD; fill-opacity:0.0;  stroke:#D0D2CD; stroke-width:0.1000; stroke-opacity:1;  stroke-linecap:round; stroke-linejoin:round;"
     id="g250">
    <path
       d="M260.4642 4.8245 A2.0320 2.0320 0.0 0 0 258.4322 2.7925"
       id="path247" />
    <path
       d="M139.3062 90.3827 L134.0401 78.4744 "
       id="path248" />
    <path
       d="M66.8542 81.1214 A4.9826 4.9826 0.0 0 0 70.5992 84.6677"
       id="path250" />
  </g>
  <g
     style="fill:#D0D2CD; fill-opacity:0.0;  stroke:#D0D2CD; stroke-width:0.6350; stroke-opacity:1;  stroke-linecap:round; stroke-linejoin:round;"
     id="g251" />
  <g
     style="fill:#D0D2CD; fill-opacity:1.0000;  stroke:#D0D2CD; stroke-width:0.1000; stroke-opacity:1;  stroke-linecap:round; stroke-linejoin:round;"
     id="g253" />
  <g
     style="fill:#D0D2CD; fill-opacity:0.0;  stroke:#D0D2CD; stroke-width:0.1000; stroke-opacity:1;  stroke-linecap:round; stroke-linejoin:round;"
     id="g254">
    <path
       d="M128.0955 75.7741 L107.9118 66.7607 "
       id="path253" />
    <path
       d="M121.2722 91.9067 A2.3615 2.3615 0.0 0 0 123.8122 90.3827"
       id="path254" />
  </g>
  <g
     style="fill:#D0D2CD; fill-opacity:0.0;  stroke:#D0D2CD; stroke-width:0.6350; stroke-opacity:1;  stroke-linecap:round; stroke-linejoin:round;"
     id="g255" />
  <g
     style="fill:#D0D2CD; fill-opacity:0.0;  stroke:#D0D2CD; stroke-width:0.1000; stroke-opacity:1;  stroke-linecap:round; stroke-linejoin:round;"
     id="g262">
    <path
       d="M129.0784 78.4744 A2.0320 2.0320 0.0 0 0 128.0955 75.7741"
       id="path257" />
    <path
       d="M95.3642 12.6587 L59.1692 2.7527 "
       id="path259" />
    <path
       d="M135.0229 75.7741 L155.2066 66.7607 "
       id="path260" />
    <path
       d="M155.2066 66.7607 A1.9731 1.9731 0.0 0 0 156.3242 64.9827"
       id="path261" />
    <path
       d="M66.7936 80.9763 L66.8542 81.1214 "
       id="path262" />
  </g>
  <g
     style="fill:#D0D2CD; fill-opacity:0.0;  stroke:#D0D2CD; stroke-width:0.6350; stroke-opacity:1;  stroke-linecap:round; stroke-linejoin:round;"
     id="g263" />
  <g
     style="fill:#D0D2CD; fill-opacity:0.0;  stroke:#D0D2CD; stroke-width:0.6350; stroke-opacity:1;  stroke-linecap:round; stroke-linejoin:round;"
     id="g265" />
  <g
     style="fill:#D0D2CD; fill-opacity:1.0000;  stroke:#D0D2CD; stroke-width:0.1000; stroke-opacity:1;  stroke-linecap:round; stroke-linejoin:round;"
     id="g267" />
  <g
     style="fill:#D0D2CD; fill-opacity:0.0;  stroke:#D0D2CD; stroke-width:0.1000; stroke-opacity:1;  stroke-linecap:round; stroke-linejoin:round;"
     id="g268">
    <path
       d="M203.9492 2.7527 L258.4322 2.7925 "
       id="path267" />
  </g>
  <g
     style="fill:#D0D2CD; fill-opacity:0.0;  stroke:#D0D2CD; stroke-width:0.6350; stroke-opacity:1;  stroke-linecap:round; stroke-linejoin:round;"
     id="g269" />
  <g
     style="fill:#D0D2CD; fill-opacity:0.0;  stroke:#D0D2CD; stroke-width:0.6350; stroke-opacity:1;  stroke-linecap:round; stroke-linejoin:round;"
     id="g271" />
  <g
     style="fill:#D0D2CD; fill-opacity:1.0000;  stroke:#D0D2CD; stroke-width:0.1000; stroke-opacity:1;  stroke-linecap:round; stroke-linejoin:round;"
     id="g273" />
  <g
     style="fill:#D0D2CD; fill-opacity:0.0;  stroke:#D0D2CD; stroke-width:0.1000; stroke-opacity:1;  stroke-linecap:round; stroke-linejoin:round;"
     id="g274">
    <path
       d="M70.5992 84.6677 L121.2722 91.9067 "
       id="path273" />
  </g>
  <g
     style="fill:#D0D2CD; fill-opacity:0.0;  stroke:#D0D2CD; stroke-width:0.6350; stroke-opacity:1;  stroke-linecap:round; stroke-linejoin:round;"
     id="g275" />
  <g
     style="fill:#D0D2CD; fill-opacity:0.0;  stroke:#D0D2CD; stroke-width:0.1000; stroke-opacity:1;  stroke-linecap:round; stroke-linejoin:round;"
     id="g278">
    <path
       d="M106.8052 22.1981 A1.9712 1.9712 0.0 0 0 105.8036 20.4819"
       id="path276" />
    <path
       d="M157.3148 20.4819 L167.7542 12.6587 "
       id="path277" />
    <path
       d="M139.3062 90.3827 A2.3615 2.3615 0.0 0 0 141.8462 91.9067"
       id="path278" />
  </g>
  <g
     style="fill:#D0D2CD; fill-opacity:0.0;  stroke:#D0D2CD; stroke-width:0.6350; stroke-opacity:1;  stroke-linecap:round; stroke-linejoin:round;"
     id="g279" />
  <g
     style="fill:#D0D2CD; fill-opacity:0.0;  stroke:#D0D2CD; stroke-width:0.6350; stroke-opacity:1;  stroke-linecap:round; stroke-linejoin:round;"
     id="g282" />
  <g
     style="fill:#D0D2CD; fill-opacity:0.0;  stroke:#D0D2CD; stroke-width:0.1000; stroke-opacity:1;  stroke-linecap:round; stroke-linejoin:round;"
     id="g291">
    <path
       d="M105.8036 20.4819 L95.3642 12.6587 "
       id="path284" />
    <path
       d="M106.7942 64.9827 A1.9731 1.9731 0.0 0 0 107.9118 66.7607"
       id="path285" />
    <path
       d="M258.4322 73.8727 A2.0320 2.0320 0.0 0 0 260.4642 71.8407"
       id="path286" />
    <path
       d="M123.8122 90.3827 L129.0784 78.4744 "
       id="path287" />
    <path
       d="M192.5192 84.6677 L141.8462 91.9067 "
       id="path289" />
    <path
       d="M4.6862 73.8727 L56.6292 73.8727 "
       id="path290" />
    <path
       d="M66.7936 80.9763 A10.8237 10.8237 0.0 0 0 56.6292 73.8727"
       id="path291" />
  </g>
  <g
     style="fill:#D0D2CD; fill-opacity:0.0;  stroke:#D0D2CD; stroke-width:0.6350; stroke-opacity:1;  stroke-linecap:round; stroke-linejoin:round;"
     id="g292" />
  <g
     style="fill:#D0D2CD; fill-opacity:0.0;  stroke:#D0D2CD; stroke-width:0.6350; stroke-opacity:1;  stroke-linecap:round; stroke-linejoin:round;"
     id="g294" />
  <g
     style="fill:#D0D2CD; fill-opacity:0.0;  stroke:#D0D2CD; stroke-width:0.6350; stroke-opacity:1;  stroke-linecap:round; stroke-linejoin:round;"
     id="g296" />
  <g
     style="fill:#D0D2CD; fill-opacity:1.0000;  stroke:#D0D2CD; stroke-width:0.1000; stroke-opacity:1;  stroke-linecap:round; stroke-linejoin:round;"
     id="g298" />
  <g
     style="fill:#D0D2CD; fill-opacity:0.0;  stroke:#D0D2CD; stroke-width:0.6350; stroke-opacity:1;  stroke-linecap:round; stroke-linejoin:round;"
     id="g300" />
  <g
     style="fill:#D0D2CD; fill-opacity:0.0;  stroke:#D0D2CD; stroke-width:0.6350; stroke-opacity:1;  stroke-linecap:round; stroke-linejoin:round;"
     id="g302" />
  <g
     style="fill:#D0D2CD; fill-opacity:1.0000;  stroke:#D0D2CD; stroke-width:0.1000; stroke-opacity:1;  stroke-linecap:round; stroke-linejoin:round;"
     id="g304" />
  <g
     style="fill:#D0D2CD; fill-opacity:0.0;  stroke:#D0D2CD; stroke-width:0.1000; stroke-opacity:1;  stroke-linecap:round; stroke-linejoin:round;"
     id="g307">
    <path
       d="M258.4322 73.8727 L206.4892 73.8727 "
       id="path304" />
    <path
       d="M206.4892 73.8727 A10.8237 10.8237 0.0 0 0 196.3249 80.9763"
       id="path305" />
    <path
       d="M167.7542 12.6587 L203.9492 2.7527 "
       id="path306" />
  </g>
  <g
     style="fill:#D0D2CD; fill-opacity:0.0;  stroke:#D0D2CD; stroke-width:0.6350; stroke-opacity:1;  stroke-linecap:round; stroke-linejoin:round;"
     id="g308" />
  <g
     style="fill:#D0D2CD; fill-opacity:0.0;  stroke:#D0D2CD; stroke-width:0.1000; stroke-opacity:1;  stroke-linecap:round; stroke-linejoin:round;"
     id="g311">
    <path
       d="M59.1692 2.7527 L4.6862 2.7925 "
       id="path310" />
    <path
       d="M135.0229 75.7741 A2.0320 2.0320 0.0 0 0 134.0401 78.4744"
       id="path311" />
  </g>
  <g
     style="fill:#D0D2CD; fill-opacity:0.0;  stroke:#D0D2CD; stroke-width:0.6350; stroke-opacity:1;  stroke-linecap:round; stroke-linejoin:round;"
     id="g312" />
  <g
     style="fill:#D0D2CD; fill-opacity:0.0;  stroke:#D0D2CD; stroke-width:0.6350; stroke-opacity:1;  stroke-linecap:round; stroke-linejoin:round;"
     id="g314" />
  <g
     style="fill:#D0D2CD; fill-opacity:1.0000;  stroke:#D0D2CD; stroke-width:0.1000; stroke-opacity:1;  stroke-linecap:round; stroke-linejoin:round;"
     id="g316" />
  <g
     style="fill:#D0D2CD; fill-opacity:0.0;  stroke:#D0D2CD; stroke-width:0.1000; stroke-opacity:1;  stroke-linecap:round; stroke-linejoin:round;"
     id="g317">
    <path
       id="path316"
       d="m 106.7942,64.9827 c -0.002,-13.99245 0.003,-26.212507 0.011,-42.7846"
       sodipodi:nodetypes="cc" />
  </g>
  <g
     style="fill:#D0D2CD; fill-opacity:0.0;  stroke:#D0D2CD; stroke-width:0.6350; stroke-opacity:1;  stroke-linecap:round; stroke-linejoin:round;"
     id="g318" />
  <g
     style="fill:#D0D2CD; fill-opacity:0.0;  stroke:#D0D2CD; stroke-width:0.6350; stroke-opacity:1;  stroke-linecap:round; stroke-linejoin:round;"
     id="g320" />
  <g
     style="fill:#D0D2CD; fill-opacity:0.0;  stroke:#D0D2CD; stroke-width:0.1000; stroke-opacity:1;  stroke-linecap:round; stroke-linejoin:round;"
     id="g323">
    <path
       d="M2.6542 71.8407 A2.0320 2.0320 0.0 0 0 4.6862 73.8727"
       id="path321" />
    <path
       d="M260.4642 4.8245 L260.4642 71.8407 "
       id="path322" />
    <path
       d="M157.3148 20.4819 A1.9712 1.9712 0.0 0 0 156.3133 22.1981"
       id="path323" />
  </g>
  <g
     style="fill:#D0D2CD; fill-opacity:0.0;  stroke:#D0D2CD; stroke-width:0.6350; stroke-opacity:1;  stroke-linecap:round; stroke-linejoin:round;"
     id="g324" />
  <g
     style="fill:#D0D2CD; fill-opacity:1.0000;  stroke:#D0D2CD; stroke-width:0.1200; stroke-opacity:1;  stroke-linecap:round; stroke-linejoin:round;"
     id="g326" />
</svg>
