<?xml version="1.0" encoding="UTF-8" standalone="no"?>
<svg
   version="1.1"
   width="299.99945mm"
   height="179.73201mm"
   viewBox="0 0 299.99946 179.73201"
   id="svg1292"
   sodipodi:docname="logo-light.svg"
   inkscape:version="1.3.2 (091e20ef0f, 2023-11-25)"
   xmlns:inkscape="http://www.inkscape.org/namespaces/inkscape"
   xmlns:sodipodi="http://sodipodi.sourceforge.net/DTD/sodipodi-0.dtd"
   xmlns="http://www.w3.org/2000/svg"
   xmlns:svg="http://www.w3.org/2000/svg"
   xmlns:rdf="http://www.w3.org/1999/02/22-rdf-syntax-ns#"
   xmlns:cc="http://creativecommons.org/ns#"
   xmlns:dc="http://purl.org/dc/elements/1.1/">
  <defs
     id="defs1292" />
  <sodipodi:namedview
     id="namedview1292"
     pagecolor="#ffffff"
     bordercolor="#000000"
     borderopacity="0.25"
     inkscape:showpageshadow="2"
     inkscape:pageopacity="0.0"
     inkscape:pagecheckerboard="0"
     inkscape:deskcolor="#d1d1d1"
     inkscape:document-units="mm"
     inkscape:zoom="0.98483936"
     inkscape:cx="-71.585279"
     inkscape:cy="345.74167"
     inkscape:window-width="2556"
     inkscape:window-height="1377"
     inkscape:window-x="0"
     inkscape:window-y="0"
     inkscape:window-maximized="0"
     inkscape:current-layer="g79" />
  <title
     id="title1">SVG Image created as mnhttn-F_Cu.svg date 2024/02/08 00:10:29 </title>
  <desc
     id="desc1">Image generated by PCBNEW </desc>
  <g
     style="fill:#000000;fill-opacity:1;stroke:#000000;stroke-linecap:round;stroke-linejoin:round;stroke-opacity:1"
     id="g1"
     transform="translate(-144.57936,-102.65403)" />
  <g
     style="fill:#000000;fill-opacity:0;stroke:#000000;stroke-width:0;stroke-linecap:round;stroke-linejoin:round;stroke-opacity:1"
     id="g2"
     transform="translate(-144.57936,-102.65403)" />
  <g
     style="fill:#000000;fill-opacity:0;stroke:#000000;stroke-width:0.2;stroke-linecap:round;stroke-linejoin:round;stroke-opacity:1"
     id="g79"
     transform="translate(-165.36386,-25.337622)">
    <g
       class="stroked-text"
       id="g78"
       transform="matrix(38.24699,0,0,38.24699,-5392.0282,-2691.6922)"
       style="fill:#1f2328;fill-opacity:0.997357">
      <desc
         id="desc41">mnhTTn</desc>
      <g
         id="path41"
         style="fill:#1f2328;fill-opacity:0.997357">
        <path
           style="color:#000000;fill:#1f2328;fill-opacity:0.997357;stroke:none;stroke-linecap:butt;stroke-linejoin:miter;-inkscape-stroke:none"
           d="m 145.40357,75.638885 v -3"
           id="path5" />
        <path
           style="color:#000000;fill:#1f2328;fill-opacity:0.997357;stroke:none;stroke-linecap:butt;stroke-linejoin:miter;-inkscape-stroke:none"
           d="m 145.4043,72.539062 a 0.1,0.1 0 0 0 -0.10157,0.09961 v 3 a 0.1,0.1 0 0 0 0.10157,0.09961 0.1,0.1 0 0 0 0.0996,-0.09961 v -3 a 0.1,0.1 0 0 0 -0.0996,-0.09961 z"
           id="path6" />
      </g>
      <g
         id="path42"
         style="fill:#1f2328;fill-opacity:0.997357">
        <path
           style="color:#000000;fill:#1f2328;fill-opacity:0.997357;stroke:none;stroke-linecap:butt;stroke-linejoin:miter;-inkscape-stroke:none"
           d="m 145.40357,73.067457 0.0714,-0.214286"
           id="path7" />
        <path
           style="color:#000000;fill:#1f2328;fill-opacity:0.997357;stroke:none;stroke-linecap:butt;stroke-linejoin:miter;-inkscape-stroke:none"
           d="m 145.50586,72.757812 a 0.1,0.1 0 0 0 -0.125,0.06445 l -0.0723,0.21289 a 0.1,0.1 0 0 0 0.0625,0.126953 0.1,0.1 0 0 0 0.12696,-0.0625 l 0.0723,-0.214843 a 0.1,0.1 0 0 0 -0.0644,-0.126954 z"
           id="path8" />
      </g>
      <g
         id="path43"
         style="fill:#1f2328;fill-opacity:0.997357">
        <path
           style="color:#000000;fill:#1f2328;fill-opacity:0.997357;stroke:none;stroke-linecap:butt;stroke-linejoin:miter;-inkscape-stroke:none"
           d="m 145.475,72.853171 0.14286,-0.214286"
           id="path9" />
        <path
           style="color:#000000;fill:#1f2328;fill-opacity:0.997357;stroke:none;stroke-linecap:butt;stroke-linejoin:miter;-inkscape-stroke:none"
           d="m 145.59766,72.541016 a 0.1,0.1 0 0 0 -0.0625,0.04297 l -0.14258,0.212891 a 0.1,0.1 0 0 0 0.0273,0.138672 0.1,0.1 0 0 0 0.13867,-0.02734 l 0.14258,-0.212891 a 0.1,0.1 0 0 0 -0.0273,-0.138671 0.1,0.1 0 0 0 -0.0762,-0.01563 z"
           id="path10" />
      </g>
      <g
         id="path44"
         style="fill:#1f2328;fill-opacity:0.997357">
        <path
           style="color:#000000;fill:#1f2328;fill-opacity:0.997357;stroke:none;stroke-linecap:butt;stroke-linejoin:miter;-inkscape-stroke:none"
           d="m 145.61786,72.638885 h 0.21428"
           id="path11" />
        <path
           style="color:#000000;fill:#1f2328;fill-opacity:0.997357;stroke:none;stroke-linecap:butt;stroke-linejoin:miter;-inkscape-stroke:none"
           d="m 145.61719,72.539062 a 0.1,0.1 0 0 0 -0.0996,0.09961 0.1,0.1 0 0 0 0.0996,0.09961 h 0.21484 a 0.1,0.1 0 0 0 0.0996,-0.09961 0.1,0.1 0 0 0 -0.0996,-0.09961 z"
           id="path12" />
      </g>
      <g
         id="path45"
         style="fill:#1f2328;fill-opacity:0.997357">
        <path
           style="color:#000000;fill:#1f2328;fill-opacity:0.997357;stroke:none;stroke-linecap:butt;stroke-linejoin:miter;-inkscape-stroke:none"
           d="m 145.83214,72.638885 0.14286,0.214286"
           id="path13" />
        <path
           style="color:#000000;fill:#1f2328;fill-opacity:0.997357;stroke:none;stroke-linecap:butt;stroke-linejoin:miter;-inkscape-stroke:none"
           d="m 145.85156,72.541016 a 0.1,0.1 0 0 0 -0.0742,0.01563 0.1,0.1 0 0 0 -0.0293,0.138671 l 0.14453,0.212891 a 0.1,0.1 0 0 0 0.13867,0.02734 0.1,0.1 0 0 0 0.0273,-0.138672 l -0.14257,-0.212891 a 0.1,0.1 0 0 0 -0.0645,-0.04297 z"
           id="path14" />
      </g>
      <g
         id="path46"
         style="fill:#1f2328;fill-opacity:0.997357">
        <path
           style="color:#000000;fill:#1f2328;fill-opacity:0.997357;stroke:none;stroke-linecap:butt;stroke-linejoin:miter;-inkscape-stroke:none"
           d="m 145.975,72.853171 0.0714,0.428571"
           id="path15" />
        <path
           style="color:#000000;fill:#1f2328;fill-opacity:0.997357;stroke:none;stroke-linecap:butt;stroke-linejoin:miter;-inkscape-stroke:none"
           d="m 145.95898,72.753906 a 0.1,0.1 0 0 0 -0.082,0.115235 l 0.0703,0.429687 a 0.1,0.1 0 0 0 0.11523,0.08203 0.1,0.1 0 0 0 0.082,-0.115234 l -0.0703,-0.429688 a 0.1,0.1 0 0 0 -0.11524,-0.08203 z"
           id="path16" />
      </g>
      <g
         id="path47"
         style="fill:#1f2328;fill-opacity:0.997357">
        <path
           style="color:#000000;fill:#1f2328;fill-opacity:0.997357;stroke:none;stroke-linecap:butt;stroke-linejoin:miter;-inkscape-stroke:none"
           d="m 146.04643,73.281742 v 2.357143"
           id="path17" />
        <path
           style="color:#000000;fill:#1f2328;fill-opacity:0.997357;stroke:none;stroke-linecap:butt;stroke-linejoin:miter;-inkscape-stroke:none"
           d="m 146.04687,73.181641 a 0.1,0.1 0 0 0 -0.0996,0.09961 v 2.357422 a 0.1,0.1 0 0 0 0.0996,0.09961 0.1,0.1 0 0 0 0.0996,-0.09961 V 73.28125 a 0.1,0.1 0 0 0 -0.0996,-0.09961 z"
           id="path18" />
      </g>
      <g
         id="path48"
         style="fill:#1f2328;fill-opacity:0.997357">
        <path
           style="color:#000000;fill:#1f2328;fill-opacity:0.997357;stroke:none;stroke-linecap:butt;stroke-linejoin:miter;-inkscape-stroke:none"
           d="m 146.04643,73.281742 0.0714,-0.428571"
           id="path19" />
        <path
           style="color:#000000;fill:#1f2328;fill-opacity:0.997357;stroke:none;stroke-linecap:butt;stroke-linejoin:miter;-inkscape-stroke:none"
           d="m 146.13477,72.753906 a 0.1,0.1 0 0 0 -0.11524,0.08203 l -0.0723,0.429688 a 0.1,0.1 0 0 0 0.082,0.115234 0.1,0.1 0 0 0 0.11523,-0.08203 l 0.0723,-0.429687 a 0.1,0.1 0 0 0 -0.082,-0.115235 z"
           id="path20" />
      </g>
      <g
         id="path49"
         style="fill:#1f2328;fill-opacity:0.997357">
        <path
           style="color:#000000;fill:#1f2328;fill-opacity:0.997357;stroke:none;stroke-linecap:butt;stroke-linejoin:miter;-inkscape-stroke:none"
           d="m 146.11786,72.853171 0.14285,-0.214286"
           id="path21" />
        <path
           style="color:#000000;fill:#1f2328;fill-opacity:0.997357;stroke:none;stroke-linecap:butt;stroke-linejoin:miter;-inkscape-stroke:none"
           d="m 146.31641,72.556641 a 0.1,0.1 0 0 0 -0.13868,0.02734 l -0.14257,0.212891 a 0.1,0.1 0 0 0 0.0273,0.138672 0.1,0.1 0 0 0 0.13867,-0.02734 l 0.14258,-0.212891 a 0.1,0.1 0 0 0 -0.0273,-0.138672 z"
           id="path22" />
      </g>
      <g
         id="path50"
         style="fill:#1f2328;fill-opacity:0.997357">
        <path
           style="color:#000000;fill:#1f2328;fill-opacity:0.997357;stroke:none;stroke-linecap:butt;stroke-linejoin:miter;-inkscape-stroke:none"
           d="M 146.26071,72.638885 H 146.475"
           id="path23" />
        <path
           style="color:#000000;fill:#1f2328;fill-opacity:0.997357;stroke:none;stroke-linecap:butt;stroke-linejoin:miter;-inkscape-stroke:none"
           d="m 146.25977,72.539062 a 0.1,0.1 0 0 0 -0.0996,0.09961 0.1,0.1 0 0 0 0.0996,0.09961 h 0.21484 a 0.1,0.1 0 0 0 0.0996,-0.09961 0.1,0.1 0 0 0 -0.0996,-0.09961 z"
           id="path24" />
      </g>
      <g
         id="path51"
         style="fill:#1f2328;fill-opacity:0.997357">
        <path
           style="color:#000000;fill:#1f2328;fill-opacity:0.997357;stroke:none;stroke-linecap:butt;stroke-linejoin:miter;-inkscape-stroke:none"
           d="m 146.475,72.638885 0.14286,0.214286"
           id="path25" />
        <path
           style="color:#000000;fill:#1f2328;fill-opacity:0.997357;stroke:none;stroke-linecap:butt;stroke-linejoin:miter;-inkscape-stroke:none"
           d="m 146.49414,72.541016 a 0.1,0.1 0 0 0 -0.0742,0.01563 0.1,0.1 0 0 0 -0.0273,0.138671 l 0.14258,0.212891 a 0.1,0.1 0 0 0 0.13867,0.02734 0.1,0.1 0 0 0 0.0273,-0.138672 l -0.14258,-0.212891 a 0.1,0.1 0 0 0 -0.0645,-0.04297 z"
           id="path26" />
      </g>
      <g
         id="path52"
         style="fill:#1f2328;fill-opacity:0.997357">
        <path
           style="color:#000000;fill:#1f2328;fill-opacity:0.997357;stroke:none;stroke-linecap:butt;stroke-linejoin:miter;-inkscape-stroke:none"
           d="m 146.61786,72.853171 0.0714,0.428571"
           id="path27" />
        <path
           style="color:#000000;fill:#1f2328;fill-opacity:0.997357;stroke:none;stroke-linecap:butt;stroke-linejoin:miter;-inkscape-stroke:none"
           d="m 146.60156,72.753906 a 0.1,0.1 0 0 0 -0.082,0.115235 l 0.0703,0.429687 a 0.1,0.1 0 0 0 0.11524,0.08203 0.1,0.1 0 0 0 0.082,-0.115234 l -0.0703,-0.429688 a 0.1,0.1 0 0 0 -0.11524,-0.08203 z"
           id="path28" />
      </g>
      <g
         id="path53"
         style="fill:#1f2328;fill-opacity:0.997357">
        <path
           style="color:#000000;fill:#1f2328;fill-opacity:0.997357;stroke:none;stroke-linecap:butt;stroke-linejoin:miter;-inkscape-stroke:none"
           d="m 146.68929,73.281742 v 2.357143"
           id="path29" />
        <path
           style="color:#000000;fill:#1f2328;fill-opacity:0.997357;stroke:none;stroke-linecap:butt;stroke-linejoin:miter;-inkscape-stroke:none"
           d="m 146.68945,73.181641 a 0.1,0.1 0 0 0 -0.0996,0.09961 v 2.357422 a 0.1,0.1 0 0 0 0.0996,0.09961 0.1,0.1 0 0 0 0.0996,-0.09961 V 73.28125 a 0.1,0.1 0 0 0 -0.0996,-0.09961 z"
           id="path30" />
      </g>
      <g
         id="path54"
         style="fill:#1f2328;fill-opacity:0.997357">
        <path
           style="color:#000000;fill:#1f2328;fill-opacity:0.997357;stroke:none;stroke-linecap:butt;stroke-linejoin:miter;-inkscape-stroke:none"
           d="m 147.40357,72.638885 v 3"
           id="path31" />
        <path
           style="color:#000000;fill:#1f2328;fill-opacity:0.997357;stroke:none;stroke-linecap:butt;stroke-linejoin:miter;-inkscape-stroke:none"
           d="m 147.4043,72.539062 a 0.1,0.1 0 0 0 -0.10157,0.09961 v 3 a 0.1,0.1 0 0 0 0.10157,0.09961 0.1,0.1 0 0 0 0.0996,-0.09961 v -3 a 0.1,0.1 0 0 0 -0.0996,-0.09961 z"
           id="path32" />
      </g>
      <g
         id="path55"
         style="fill:#1f2328;fill-opacity:0.997357">
        <path
           style="color:#000000;fill:#1f2328;fill-opacity:0.997357;stroke:none;stroke-linecap:butt;stroke-linejoin:miter;-inkscape-stroke:none"
           d="m 147.40357,73.067457 0.0714,-0.214286"
           id="path33" />
        <path
           style="color:#000000;fill:#1f2328;fill-opacity:0.997357;stroke:none;stroke-linecap:butt;stroke-linejoin:miter;-inkscape-stroke:none"
           d="m 147.50586,72.757812 a 0.1,0.1 0 0 0 -0.125,0.06445 l -0.0723,0.21289 a 0.1,0.1 0 0 0 0.0625,0.126953 0.1,0.1 0 0 0 0.12696,-0.0625 l 0.0723,-0.214843 a 0.1,0.1 0 0 0 -0.0644,-0.126954 z"
           id="path34" />
      </g>
      <g
         id="path56"
         style="fill:#1f2328;fill-opacity:0.997357">
        <path
           style="color:#000000;fill:#1f2328;fill-opacity:0.997357;stroke:none;stroke-linecap:butt;stroke-linejoin:miter;-inkscape-stroke:none"
           d="m 147.475,72.853171 0.14286,-0.214286"
           id="path35" />
        <path
           style="color:#000000;fill:#1f2328;fill-opacity:0.997357;stroke:none;stroke-linecap:butt;stroke-linejoin:miter;-inkscape-stroke:none"
           d="m 147.59766,72.541016 a 0.1,0.1 0 0 0 -0.0625,0.04297 l -0.14258,0.212891 a 0.1,0.1 0 0 0 0.0273,0.138672 0.1,0.1 0 0 0 0.13867,-0.02734 l 0.14258,-0.212891 a 0.1,0.1 0 0 0 -0.0273,-0.138671 0.1,0.1 0 0 0 -0.0762,-0.01563 z"
           id="path36" />
      </g>
      <g
         id="path57"
         style="fill:#1f2328;fill-opacity:0.997357">
        <path
           style="color:#000000;fill:#1f2328;fill-opacity:0.997357;stroke:none;stroke-linecap:butt;stroke-linejoin:miter;-inkscape-stroke:none"
           d="m 147.61786,72.638885 h 0.21428"
           id="path37" />
        <path
           style="color:#000000;fill:#1f2328;fill-opacity:0.997357;stroke:none;stroke-linecap:butt;stroke-linejoin:miter;-inkscape-stroke:none"
           d="m 147.61719,72.539062 a 0.1,0.1 0 0 0 -0.0996,0.09961 0.1,0.1 0 0 0 0.0996,0.09961 h 0.21484 a 0.1,0.1 0 0 0 0.0996,-0.09961 0.1,0.1 0 0 0 -0.0996,-0.09961 z"
           id="path38" />
      </g>
      <g
         id="path58"
         style="fill:#1f2328;fill-opacity:0.997357">
        <path
           style="color:#000000;fill:#1f2328;fill-opacity:0.997357;stroke:none;stroke-linecap:butt;stroke-linejoin:miter;-inkscape-stroke:none"
           d="m 147.83214,72.638885 0.14286,0.214286"
           id="path39" />
        <path
           style="color:#000000;fill:#1f2328;fill-opacity:0.997357;stroke:none;stroke-linecap:butt;stroke-linejoin:miter;-inkscape-stroke:none"
           d="m 147.85156,72.541016 a 0.1,0.1 0 0 0 -0.0742,0.01563 0.1,0.1 0 0 0 -0.0293,0.138671 l 0.14453,0.212891 a 0.1,0.1 0 0 0 0.13867,0.02734 0.1,0.1 0 0 0 0.0273,-0.138672 l -0.14257,-0.212891 a 0.1,0.1 0 0 0 -0.0645,-0.04297 z"
           id="path40" />
      </g>
      <g
         id="path59"
         style="fill:#1f2328;fill-opacity:0.997357">
        <path
           style="color:#000000;fill:#1f2328;fill-opacity:0.997357;stroke:none;stroke-linecap:butt;stroke-linejoin:miter;-inkscape-stroke:none"
           d="m 147.975,72.853171 0.0714,0.428571"
           id="path79" />
        <path
           style="color:#000000;fill:#1f2328;fill-opacity:0.997357;stroke:none;stroke-linecap:butt;stroke-linejoin:miter;-inkscape-stroke:none"
           d="m 147.95898,72.753906 a 0.1,0.1 0 0 0 -0.082,0.115235 l 0.0703,0.429687 a 0.1,0.1 0 0 0 0.11523,0.08203 0.1,0.1 0 0 0 0.082,-0.115234 l -0.0703,-0.429688 a 0.1,0.1 0 0 0 -0.11524,-0.08203 z"
           id="path80" />
      </g>
      <g
         id="path60"
         style="fill:#1f2328;fill-opacity:0.997357">
        <path
           style="color:#000000;fill:#1f2328;fill-opacity:0.997357;stroke:none;stroke-linecap:butt;stroke-linejoin:miter;-inkscape-stroke:none"
           d="m 148.04643,73.281742 v 2.357143"
           id="path81" />
        <path
           style="color:#000000;fill:#1f2328;fill-opacity:0.997357;stroke:none;stroke-linecap:butt;stroke-linejoin:miter;-inkscape-stroke:none"
           d="m 148.04687,73.181641 a 0.1,0.1 0 0 0 -0.0996,0.09961 v 2.357422 a 0.1,0.1 0 0 0 0.0996,0.09961 0.1,0.1 0 0 0 0.0996,-0.09961 V 73.28125 a 0.1,0.1 0 0 0 -0.0996,-0.09961 z"
           id="path82" />
      </g>
      <g
         id="path61"
         style="fill:#1f2328;fill-opacity:0.997357">
        <path
           style="color:#000000;fill:#1f2328;fill-opacity:0.997357;stroke:none;stroke-linecap:butt;stroke-linejoin:miter;-inkscape-stroke:none"
           d="m 148.76071,75.638885 v -4.5"
           id="path83" />
        <path
           style="color:#000000;fill:#1f2328;fill-opacity:0.997357;stroke:none;stroke-linecap:butt;stroke-linejoin:miter;-inkscape-stroke:none"
           d="m 148.75977,71.039062 a 0.1,0.1 0 0 0 -0.0996,0.09961 v 4.5 a 0.1,0.1 0 0 0 0.0996,0.09961 0.1,0.1 0 0 0 0.10156,-0.09961 v -4.5 a 0.1,0.1 0 0 0 -0.10156,-0.09961 z"
           id="path84" />
      </g>
      <g
         id="path62"
         style="fill:#1f2328;fill-opacity:0.997357">
        <path
           style="color:#000000;fill:#1f2328;fill-opacity:0.997357;stroke:none;stroke-linecap:butt;stroke-linejoin:miter;-inkscape-stroke:none"
           d="M 149.40357,75.638885 V 73.281742"
           id="path85" />
        <path
           style="color:#000000;fill:#1f2328;fill-opacity:0.997357;stroke:none;stroke-linecap:butt;stroke-linejoin:miter;-inkscape-stroke:none"
           d="m 149.4043,73.181641 a 0.1,0.1 0 0 0 -0.10157,0.09961 v 2.357422 a 0.1,0.1 0 0 0 0.10157,0.09961 0.1,0.1 0 0 0 0.0996,-0.09961 V 73.28125 a 0.1,0.1 0 0 0 -0.0996,-0.09961 z"
           id="path86" />
      </g>
      <g
         id="path63"
         style="fill:#1f2328;fill-opacity:0.997357">
        <path
           style="color:#000000;fill:#1f2328;fill-opacity:0.997357;stroke:none;stroke-linecap:butt;stroke-linejoin:miter;-inkscape-stroke:none"
           d="m 149.40357,73.281742 -0.0714,-0.428571"
           id="path87" />
        <path
           style="color:#000000;fill:#1f2328;fill-opacity:0.997357;stroke:none;stroke-linecap:butt;stroke-linejoin:miter;-inkscape-stroke:none"
           d="m 149.31641,72.753906 a 0.1,0.1 0 0 0 -0.082,0.115235 l 0.0703,0.429687 a 0.1,0.1 0 0 0 0.11523,0.08203 0.1,0.1 0 0 0 0.082,-0.115234 l -0.0703,-0.429688 a 0.1,0.1 0 0 0 -0.11523,-0.08203 z"
           id="path88" />
      </g>
      <g
         id="path64"
         style="fill:#1f2328;fill-opacity:0.997357">
        <path
           style="color:#000000;fill:#1f2328;fill-opacity:0.997357;stroke:none;stroke-linecap:butt;stroke-linejoin:miter;-inkscape-stroke:none"
           d="m 149.33214,72.853171 -0.14285,-0.214286"
           id="path89" />
        <path
           style="color:#000000;fill:#1f2328;fill-opacity:0.997357;stroke:none;stroke-linecap:butt;stroke-linejoin:miter;-inkscape-stroke:none"
           d="m 149.13477,72.556641 a 0.1,0.1 0 0 0 -0.0293,0.138671 l 0.14258,0.212891 a 0.1,0.1 0 0 0 0.13867,0.02734 0.1,0.1 0 0 0 0.0293,-0.138672 l -0.14258,-0.212891 a 0.1,0.1 0 0 0 -0.13867,-0.02734 z"
           id="path90" />
      </g>
      <g
         id="path65"
         style="fill:#1f2328;fill-opacity:0.997357">
        <path
           style="color:#000000;fill:#1f2328;fill-opacity:0.997357;stroke:none;stroke-linecap:butt;stroke-linejoin:miter;-inkscape-stroke:none"
           d="M 149.18929,72.638885 H 148.975"
           id="path91" />
        <path
           style="color:#000000;fill:#1f2328;fill-opacity:0.997357;stroke:none;stroke-linecap:butt;stroke-linejoin:miter;-inkscape-stroke:none"
           d="m 148.97461,72.539062 a 0.1,0.1 0 0 0 -0.0996,0.09961 0.1,0.1 0 0 0 0.0996,0.09961 h 0.21484 a 0.1,0.1 0 0 0 0.0996,-0.09961 0.1,0.1 0 0 0 -0.0996,-0.09961 z"
           id="path92" />
      </g>
      <g
         id="path66"
         style="fill:#1f2328;fill-opacity:0.997357">
        <path
           style="color:#000000;fill:#1f2328;fill-opacity:0.997357;stroke:none;stroke-linecap:butt;stroke-linejoin:miter;-inkscape-stroke:none"
           d="m 148.975,72.638885 -0.14286,0.214286"
           id="path93" />
        <path
           style="color:#000000;fill:#1f2328;fill-opacity:0.997357;stroke:none;stroke-linecap:butt;stroke-linejoin:miter;-inkscape-stroke:none"
           d="m 148.95508,72.541016 a 0.1,0.1 0 0 0 -0.0625,0.04297 l -0.14453,0.212891 a 0.1,0.1 0 0 0 0.0293,0.138672 0.1,0.1 0 0 0 0.13868,-0.02734 l 0.14257,-0.212891 a 0.1,0.1 0 0 0 -0.0273,-0.138671 0.1,0.1 0 0 0 -0.0762,-0.01563 z"
           id="path94" />
      </g>
      <g
         id="path67"
         style="fill:#1f2328;fill-opacity:0.997357">
        <path
           style="color:#000000;fill:#1f2328;fill-opacity:0.997357;stroke:none;stroke-linecap:butt;stroke-linejoin:miter;-inkscape-stroke:none"
           d="m 148.83214,72.853171 -0.0714,0.214286"
           id="path95" />
        <path
           style="color:#000000;fill:#1f2328;fill-opacity:0.997357;stroke:none;stroke-linecap:butt;stroke-linejoin:miter;-inkscape-stroke:none"
           d="m 148.86328,72.757812 a 0.1,0.1 0 0 0 -0.12695,0.06445 l -0.0703,0.21289 a 0.1,0.1 0 0 0 0.0625,0.126953 0.1,0.1 0 0 0 0.12695,-0.0625 l 0.0723,-0.214843 a 0.1,0.1 0 0 0 -0.0644,-0.126954 z"
           id="path96" />
      </g>
      <g
         id="path68"
         style="fill:#1f2328;fill-opacity:0.997357">
        <path
           style="color:#000000;fill:#1f2328;fill-opacity:0.997357;stroke:none;stroke-linecap:butt;stroke-linejoin:miter;-inkscape-stroke:none"
           d="m 149.90357,71.138885 h 0.85714"
           id="path97" />
        <path
           style="color:#000000;fill:#1f2328;fill-opacity:0.997357;stroke:none;stroke-linecap:butt;stroke-linejoin:miter;-inkscape-stroke:none"
           d="m 149.9043,71.039062 a 0.1,0.1 0 0 0 -0.10157,0.09961 0.1,0.1 0 0 0 0.10157,0.09961 h 0.85547 a 0.1,0.1 0 0 0 0.10156,-0.09961 0.1,0.1 0 0 0 -0.10156,-0.09961 z"
           id="path98" />
      </g>
      <g
         id="path69"
         style="fill:#1f2328;fill-opacity:0.997357">
        <path
           style="color:#000000;fill:#1f2328;fill-opacity:0.997357;stroke:none;stroke-linecap:butt;stroke-linejoin:miter;-inkscape-stroke:none"
           d="m 150.33214,75.638885 v -4.5"
           id="path99" />
        <path
           style="color:#000000;fill:#1f2328;fill-opacity:0.997357;stroke:none;stroke-linecap:butt;stroke-linejoin:miter;-inkscape-stroke:none"
           d="m 150.33203,71.039062 a 0.1,0.1 0 0 0 -0.0996,0.09961 v 4.5 a 0.1,0.1 0 0 0 0.0996,0.09961 0.1,0.1 0 0 0 0.0996,-0.09961 v -4.5 a 0.1,0.1 0 0 0 -0.0996,-0.09961 z"
           id="path100" />
      </g>
      <g
         id="path70"
         style="fill:#1f2328;fill-opacity:0.997357">
        <path
           style="color:#000000;fill:#1f2328;fill-opacity:0.997357;stroke:none;stroke-linecap:butt;stroke-linejoin:miter;-inkscape-stroke:none"
           d="m 151.04643,71.138885 h 0.85714"
           id="path101" />
        <path
           style="color:#000000;fill:#1f2328;fill-opacity:0.997357;stroke:none;stroke-linecap:butt;stroke-linejoin:miter;-inkscape-stroke:none"
           d="m 151.04687,71.039062 a 0.1,0.1 0 0 0 -0.0996,0.09961 0.1,0.1 0 0 0 0.0996,0.09961 h 0.85743 a 0.1,0.1 0 0 0 0.0996,-0.09961 0.1,0.1 0 0 0 -0.0996,-0.09961 z"
           id="path102" />
      </g>
      <g
         id="path71"
         style="fill:#1f2328;fill-opacity:0.997357">
        <path
           style="color:#000000;fill:#1f2328;fill-opacity:0.997357;stroke:none;stroke-linecap:butt;stroke-linejoin:miter;-inkscape-stroke:none"
           d="m 151.475,75.638885 v -4.5"
           id="path103" />
        <path
           style="color:#000000;fill:#1f2328;fill-opacity:0.997357;stroke:none;stroke-linecap:butt;stroke-linejoin:miter;-inkscape-stroke:none"
           d="m 151.47461,71.039062 a 0.1,0.1 0 0 0 -0.0996,0.09961 v 4.5 a 0.1,0.1 0 0 0 0.0996,0.09961 0.1,0.1 0 0 0 0.0996,-0.09961 v -4.5 a 0.1,0.1 0 0 0 -0.0996,-0.09961 z"
           id="path104" />
      </g>
      <g
         id="path72"
         style="fill:#1f2328;fill-opacity:0.997357">
        <path
           style="color:#000000;fill:#1f2328;fill-opacity:0.997357;stroke:none;stroke-linecap:butt;stroke-linejoin:miter;-inkscape-stroke:none"
           d="m 152.40357,72.638885 v 3"
           id="path105" />
        <path
           style="color:#000000;fill:#1f2328;fill-opacity:0.997357;stroke:none;stroke-linecap:butt;stroke-linejoin:miter;-inkscape-stroke:none"
           d="m 152.4043,72.539062 a 0.1,0.1 0 0 0 -0.10157,0.09961 v 3 a 0.1,0.1 0 0 0 0.10157,0.09961 0.1,0.1 0 0 0 0.0996,-0.09961 v -3 a 0.1,0.1 0 0 0 -0.0996,-0.09961 z"
           id="path106" />
      </g>
      <g
         id="path73"
         style="fill:#1f2328;fill-opacity:0.997357">
        <path
           style="color:#000000;fill:#1f2328;fill-opacity:0.997357;stroke:none;stroke-linecap:butt;stroke-linejoin:miter;-inkscape-stroke:none"
           d="m 152.40357,73.067457 0.0714,-0.214286"
           id="path107" />
        <path
           style="color:#000000;fill:#1f2328;fill-opacity:0.997357;stroke:none;stroke-linecap:butt;stroke-linejoin:miter;-inkscape-stroke:none"
           d="m 152.50586,72.757812 a 0.1,0.1 0 0 0 -0.125,0.06445 l -0.0723,0.21289 a 0.1,0.1 0 0 0 0.0625,0.126953 0.1,0.1 0 0 0 0.12696,-0.0625 l 0.0723,-0.214843 a 0.1,0.1 0 0 0 -0.0644,-0.126954 z"
           id="path108" />
      </g>
      <g
         id="path74"
         style="fill:#1f2328;fill-opacity:0.997357">
        <path
           style="color:#000000;fill:#1f2328;fill-opacity:0.997357;stroke:none;stroke-linecap:butt;stroke-linejoin:miter;-inkscape-stroke:none"
           d="m 152.475,72.853171 0.14286,-0.214286"
           id="path109" />
        <path
           style="color:#000000;fill:#1f2328;fill-opacity:0.997357;stroke:none;stroke-linecap:butt;stroke-linejoin:miter;-inkscape-stroke:none"
           d="m 152.59766,72.541016 a 0.1,0.1 0 0 0 -0.0625,0.04297 l -0.14258,0.212891 a 0.1,0.1 0 0 0 0.0273,0.138672 0.1,0.1 0 0 0 0.13867,-0.02734 l 0.14258,-0.212891 a 0.1,0.1 0 0 0 -0.0273,-0.138671 0.1,0.1 0 0 0 -0.0762,-0.01563 z"
           id="path110" />
      </g>
      <g
         id="path75"
         style="fill:#1f2328;fill-opacity:0.997357">
        <path
           style="color:#000000;fill:#1f2328;fill-opacity:0.997357;stroke:none;stroke-linecap:butt;stroke-linejoin:miter;-inkscape-stroke:none"
           d="m 152.61786,72.638885 h 0.21428"
           id="path111" />
        <path
           style="color:#000000;fill:#1f2328;fill-opacity:0.997357;stroke:none;stroke-linecap:butt;stroke-linejoin:miter;-inkscape-stroke:none"
           d="m 152.61719,72.539062 a 0.1,0.1 0 0 0 -0.0996,0.09961 0.1,0.1 0 0 0 0.0996,0.09961 h 0.21484 a 0.1,0.1 0 0 0 0.0996,-0.09961 0.1,0.1 0 0 0 -0.0996,-0.09961 z"
           id="path112" />
      </g>
      <g
         id="path76"
         style="fill:#1f2328;fill-opacity:0.997357">
        <path
           style="color:#000000;fill:#1f2328;fill-opacity:0.997357;stroke:none;stroke-linecap:butt;stroke-linejoin:miter;-inkscape-stroke:none"
           d="m 152.83214,72.638885 0.14286,0.214286"
           id="path113" />
        <path
           style="color:#000000;fill:#1f2328;fill-opacity:0.997357;stroke:none;stroke-linecap:butt;stroke-linejoin:miter;-inkscape-stroke:none"
           d="m 152.85156,72.541016 a 0.1,0.1 0 0 0 -0.0742,0.01563 0.1,0.1 0 0 0 -0.0293,0.138671 l 0.14453,0.212891 a 0.1,0.1 0 0 0 0.13867,0.02734 0.1,0.1 0 0 0 0.0273,-0.138672 l -0.14257,-0.212891 a 0.1,0.1 0 0 0 -0.0645,-0.04297 z"
           id="path114" />
      </g>
      <g
         id="path77"
         style="fill:#1f2328;fill-opacity:0.997357">
        <path
           style="color:#000000;fill:#1f2328;fill-opacity:0.997357;stroke:none;stroke-linecap:butt;stroke-linejoin:miter;-inkscape-stroke:none"
           d="m 152.975,72.853171 0.0714,0.428571"
           id="path115" />
        <path
           style="color:#000000;fill:#1f2328;fill-opacity:0.997357;stroke:none;stroke-linecap:butt;stroke-linejoin:miter;-inkscape-stroke:none"
           d="m 152.95898,72.753906 a 0.1,0.1 0 0 0 -0.082,0.115235 l 0.0703,0.429687 a 0.1,0.1 0 0 0 0.11523,0.08203 0.1,0.1 0 0 0 0.082,-0.115234 l -0.0703,-0.429688 a 0.1,0.1 0 0 0 -0.11524,-0.08203 z"
           id="path116" />
      </g>
      <g
         id="path78"
         style="fill:#1f2328;fill-opacity:0.997357">
        <path
           style="color:#000000;fill:#1f2328;fill-opacity:0.997357;stroke:none;stroke-linecap:butt;stroke-linejoin:miter;-inkscape-stroke:none"
           d="m 153.04643,73.281742 v 2.357143"
           id="path117" />
        <path
           style="color:#000000;fill:#1f2328;fill-opacity:0.997357;stroke:none;stroke-linecap:butt;stroke-linejoin:miter;-inkscape-stroke:none"
           d="m 153.04687,73.181641 a 0.1,0.1 0 0 0 -0.0996,0.09961 v 2.357422 a 0.1,0.1 0 0 0 0.0996,0.09961 0.1,0.1 0 0 0 0.0996,-0.09961 V 73.28125 a 0.1,0.1 0 0 0 -0.0996,-0.09961 z"
           id="path118" />
      </g>
    </g>
  </g>
  <metadata
     id="metadata1292">
    <rdf:RDF>
      <cc:Work
         rdf:about="">
        <dc:title>SVG Image created as mnhttn-F_Cu.svg date 2024/02/08 00:10:29 </dc:title>
      </cc:Work>
    </rdf:RDF>
  </metadata>
</svg>
